<svg width="166" height="30" viewBox="0 0 166 30" fill="none" xmlns="http://www.w3.org/2000/svg">
<g clip-path="url(#clip0)">
<path d="M36 21.6665L21 29L21.002 10" stroke="black" stroke-width="3" stroke-linecap="round" stroke-linejoin="round"/>
<path d="M21 20L36 12" stroke="black" stroke-width="3" stroke-linecap="round" stroke-linejoin="round"/>
<path d="M36 12V21" stroke="black" stroke-width="3" stroke-linecap="round" stroke-linejoin="round"/>
<path d="M2 21.275L17 29L16.998 19" stroke="black" stroke-width="3" stroke-linecap="round" stroke-linejoin="round"/>
<path d="M17 19L2 11" stroke="black" stroke-width="3" stroke-linecap="round" stroke-linejoin="round"/>
<path d="M2 1V21" stroke="black" stroke-width="3" stroke-linecap="round" stroke-linejoin="round"/>
</g>
<path d="M61.3125 16.834C61.3125 18.4486 60.9414 19.7474 60.1992 20.7305C59.457 21.707 58.4609 22.1953 57.2109 22.1953C55.8763 22.1953 54.8444 21.7233 54.1152 20.7793L54.0273 22H52.3672V7H54.1738V12.5957C54.903 11.6908 55.9089 11.2383 57.1914 11.2383C58.474 11.2383 59.4798 11.7233 60.209 12.6934C60.9447 13.6634 61.3125 14.9915 61.3125 16.6777V16.834ZM59.5059 16.6289C59.5059 15.3984 59.2682 14.4479 58.793 13.7773C58.3177 13.1068 57.6341 12.7715 56.7422 12.7715C55.5508 12.7715 54.6947 13.3249 54.1738 14.4316V19.002C54.7272 20.1087 55.5898 20.6621 56.7617 20.6621C57.6276 20.6621 58.3014 20.3268 58.7832 19.6562C59.265 18.9857 59.5059 17.9766 59.5059 16.6289ZM72.543 16.834C72.543 18.4486 72.1719 19.7474 71.4297 20.7305C70.6875 21.707 69.6914 22.1953 68.4414 22.1953C67.1068 22.1953 66.0749 21.7233 65.3457 20.7793L65.2578 22H63.5977V7H65.4043V12.5957C66.1335 11.6908 67.1393 11.2383 68.4219 11.2383C69.7044 11.2383 70.7103 11.7233 71.4395 12.6934C72.1751 13.6634 72.543 14.9915 72.543 16.6777V16.834ZM70.7363 16.6289C70.7363 15.3984 70.4987 14.4479 70.0234 13.7773C69.5482 13.1068 68.8646 12.7715 67.9727 12.7715C66.7812 12.7715 65.9251 13.3249 65.4043 14.4316V19.002C65.9577 20.1087 66.8203 20.6621 67.9922 20.6621C68.8581 20.6621 69.5319 20.3268 70.0137 19.6562C70.4954 18.9857 70.7363 17.9766 70.7363 16.6289ZM79.2129 22.1953C77.7806 22.1953 76.6152 21.7266 75.7168 20.7891C74.8184 19.8451 74.3691 18.5853 74.3691 17.0098V16.6777C74.3691 15.6296 74.5677 14.6953 74.9648 13.875C75.3685 13.0482 75.9284 12.4036 76.6445 11.9414C77.3672 11.4727 78.1484 11.2383 78.9883 11.2383C80.362 11.2383 81.4297 11.6908 82.1914 12.5957C82.9531 13.5007 83.334 14.7962 83.334 16.4824V17.2344H76.1758C76.2018 18.276 76.5046 19.1191 77.084 19.7637C77.6699 20.4017 78.4121 20.7207 79.3105 20.7207C79.9486 20.7207 80.4889 20.5905 80.9316 20.3301C81.3743 20.0697 81.7617 19.7246 82.0938 19.2949L83.1973 20.1543C82.3118 21.515 80.9837 22.1953 79.2129 22.1953ZM78.9883 12.7227C78.2591 12.7227 77.6471 12.9896 77.1523 13.5234C76.6576 14.0508 76.3516 14.793 76.2344 15.75H81.5273V15.6133C81.4753 14.6953 81.2279 13.9857 80.7852 13.4844C80.3424 12.9766 79.7435 12.7227 78.9883 12.7227ZM88.9785 15.291L91.3223 11.4336H93.4316L89.9746 16.6582L93.5391 22H91.4492L89.0078 18.0449L86.5664 22H84.4668L88.0312 16.6582L84.5742 11.4336H86.6641L88.9785 15.291ZM99.3984 20.7207C100.043 20.7207 100.606 20.5254 101.088 20.1348C101.57 19.7441 101.837 19.2559 101.889 18.6699H103.598C103.565 19.2754 103.357 19.8516 102.973 20.3984C102.589 20.9453 102.074 21.3815 101.43 21.707C100.792 22.0326 100.115 22.1953 99.3984 22.1953C97.9596 22.1953 96.8138 21.7168 95.9609 20.7598C95.1146 19.7962 94.6914 18.4811 94.6914 16.8145V16.5117C94.6914 15.4831 94.8802 14.5684 95.2578 13.7676C95.6354 12.9668 96.1758 12.3451 96.8789 11.9023C97.5885 11.4596 98.4251 11.2383 99.3887 11.2383C100.574 11.2383 101.557 11.5931 102.338 12.3027C103.126 13.0124 103.546 13.9336 103.598 15.0664H101.889C101.837 14.3828 101.576 13.8229 101.107 13.3867C100.645 12.944 100.072 12.7227 99.3887 12.7227C98.4707 12.7227 97.7578 13.0547 97.25 13.7188C96.7487 14.3763 96.498 15.3301 96.498 16.5801V16.9219C96.498 18.1393 96.7487 19.0768 97.25 19.7344C97.7513 20.3919 98.4674 20.7207 99.3984 20.7207ZM107.436 12.7129C108.236 11.7298 109.278 11.2383 110.561 11.2383C112.794 11.2383 113.92 12.498 113.939 15.0176V22H112.133V15.0078C112.126 14.2461 111.951 13.6829 111.605 13.3184C111.267 12.9538 110.736 12.7715 110.014 12.7715C109.428 12.7715 108.913 12.9277 108.471 13.2402C108.028 13.5527 107.683 13.9629 107.436 14.4707V22H105.629V7H107.436V12.7129ZM123.168 22C123.064 21.7917 122.979 21.4206 122.914 20.8867C122.074 21.7591 121.072 22.1953 119.906 22.1953C118.865 22.1953 118.008 21.9023 117.338 21.3164C116.674 20.724 116.342 19.9753 116.342 19.0703C116.342 17.9701 116.758 17.1172 117.592 16.5117C118.432 15.8997 119.61 15.5938 121.127 15.5938H122.885V14.7637C122.885 14.1322 122.696 13.6309 122.318 13.2598C121.941 12.8822 121.384 12.6934 120.648 12.6934C120.004 12.6934 119.464 12.8561 119.027 13.1816C118.591 13.5072 118.373 13.901 118.373 14.3633H116.557C116.557 13.8359 116.742 13.3281 117.113 12.8398C117.491 12.3451 117.999 11.9544 118.637 11.668C119.281 11.3815 119.988 11.2383 120.756 11.2383C121.973 11.2383 122.927 11.5443 123.617 12.1562C124.307 12.7617 124.665 13.5983 124.691 14.666V19.5293C124.691 20.4993 124.815 21.2708 125.062 21.8438V22H123.168ZM120.17 20.623C120.736 20.623 121.273 20.4766 121.781 20.1836C122.289 19.8906 122.657 19.5098 122.885 19.041V16.873H121.469C119.255 16.873 118.148 17.5208 118.148 18.8164C118.148 19.3828 118.337 19.8255 118.715 20.1445C119.092 20.4635 119.577 20.623 120.17 20.623ZM129.232 11.4336L129.291 12.7617C130.098 11.7461 131.153 11.2383 132.455 11.2383C134.688 11.2383 135.814 12.498 135.834 15.0176V22H134.027V15.0078C134.021 14.2461 133.845 13.6829 133.5 13.3184C133.161 12.9538 132.631 12.7715 131.908 12.7715C131.322 12.7715 130.808 12.9277 130.365 13.2402C129.923 13.5527 129.577 13.9629 129.33 14.4707V22H127.523V11.4336H129.232ZM138.129 16.6289C138.129 14.9818 138.51 13.6732 139.271 12.7031C140.033 11.7266 141.042 11.2383 142.299 11.2383C143.588 11.2383 144.594 11.694 145.316 12.6055L145.404 11.4336H147.055V21.7461C147.055 23.1133 146.648 24.1908 145.834 24.9785C145.027 25.7663 143.939 26.1602 142.572 26.1602C141.811 26.1602 141.065 25.9974 140.336 25.6719C139.607 25.3464 139.05 24.9004 138.666 24.334L139.604 23.25C140.378 24.207 141.326 24.6855 142.445 24.6855C143.324 24.6855 144.008 24.4382 144.496 23.9434C144.991 23.4486 145.238 22.752 145.238 21.8535V20.9453C144.516 21.7786 143.529 22.1953 142.279 22.1953C141.042 22.1953 140.04 21.6973 139.271 20.7012C138.51 19.7051 138.129 18.3477 138.129 16.6289ZM139.945 16.834C139.945 18.0254 140.189 18.9629 140.678 19.6465C141.166 20.3236 141.85 20.6621 142.729 20.6621C143.868 20.6621 144.704 20.1445 145.238 19.1094V14.2852C144.685 13.276 143.855 12.7715 142.748 12.7715C141.869 12.7715 141.182 13.1133 140.688 13.7969C140.193 14.4805 139.945 15.4928 139.945 16.834ZM154.174 22.1953C152.742 22.1953 151.576 21.7266 150.678 20.7891C149.779 19.8451 149.33 18.5853 149.33 17.0098V16.6777C149.33 15.6296 149.529 14.6953 149.926 13.875C150.329 13.0482 150.889 12.4036 151.605 11.9414C152.328 11.4727 153.109 11.2383 153.949 11.2383C155.323 11.2383 156.391 11.6908 157.152 12.5957C157.914 13.5007 158.295 14.7962 158.295 16.4824V17.2344H151.137C151.163 18.276 151.465 19.1191 152.045 19.7637C152.631 20.4017 153.373 20.7207 154.271 20.7207C154.91 20.7207 155.45 20.5905 155.893 20.3301C156.335 20.0697 156.723 19.7246 157.055 19.2949L158.158 20.1543C157.273 21.515 155.945 22.1953 154.174 22.1953ZM153.949 12.7227C153.22 12.7227 152.608 12.9896 152.113 13.5234C151.618 14.0508 151.312 14.793 151.195 15.75H156.488V15.6133C156.436 14.6953 156.189 13.9857 155.746 13.4844C155.303 12.9766 154.704 12.7227 153.949 12.7227ZM165.502 13.0547C165.229 13.0091 164.932 12.9863 164.613 12.9863C163.428 12.9863 162.624 13.4909 162.201 14.5V22H160.395V11.4336H162.152L162.182 12.6543C162.774 11.7103 163.614 11.2383 164.701 11.2383C165.053 11.2383 165.32 11.2839 165.502 11.375V13.0547Z" fill="#313B46"/>
<defs>
<clipPath id="clip0">
<rect width="150" height="30" fill="white"/>
</clipPath>
</defs>
</svg>
