<svg width="40" height="40" viewBox="0 0 40 40" fill="none" xmlns="http://www.w3.org/2000/svg">
<path fill-rule="evenodd" clip-rule="evenodd" d="M10.2338 18.9261L14.1561 12.0149L14.3395 16.5646L10.2338 18.9261Z" fill="white"/>
<path fill-rule="evenodd" clip-rule="evenodd" d="M14.968 11.0141L15.1385 16.0772L23.6534 11.0141H14.968Z" fill="white"/>
<path fill-rule="evenodd" clip-rule="evenodd" d="M15.7099 16.7342L24.8716 11.2508L26.9359 21.2315L15.7099 16.7342Z" fill="white"/>
<path fill-rule="evenodd" clip-rule="evenodd" d="M27.7667 21.2228L29.9425 19.8393L26.12 13.1165L27.7667 21.2228Z" fill="white"/>
<path fill-rule="evenodd" clip-rule="evenodd" d="M25.0117 28.7804L21.0365 26.4317L29.2699 21.26L25.0117 28.7804Z" fill="white"/>
<path fill-rule="evenodd" clip-rule="evenodd" d="M20.4046 25.8552L26.5623 21.959L15.7011 17.6293L20.4046 25.8552Z" fill="white"/>
<path fill-rule="evenodd" clip-rule="evenodd" d="M10.0386 19.9953L14.6189 17.3587L19.1621 25.3419L10.0386 19.9953Z" fill="white"/>
<path fill-rule="evenodd" clip-rule="evenodd" d="M10.3199 21.1464L14.7477 28.9343H23.6313L10.3199 21.1464Z" fill="white"/>
</svg>
