<svg width="150" height="30" viewBox="0 0 150 30" fill="none" xmlns="http://www.w3.org/2000/svg">
<path fill-rule="evenodd" clip-rule="evenodd" d="M0.395966 13.2101L7.03783 1.69149L7.34842 9.27441L0.395966 13.2101Z" fill="#3B48B0"/>
<path fill-rule="evenodd" clip-rule="evenodd" d="M8.41255 0.0234604L8.70134 8.46199L23.1201 0.0234604H8.41255Z" fill="#3B48B0"/>
<path fill-rule="evenodd" clip-rule="evenodd" d="M9.66894 9.55702L25.1829 0.418053L28.6785 17.0526L9.66894 9.55702Z" fill="#3B48B0"/>
<path fill-rule="evenodd" clip-rule="evenodd" d="M30.0854 17.038L33.7699 14.7322L27.2969 3.52747L30.0854 17.038Z" fill="#3B48B0"/>
<path fill-rule="evenodd" clip-rule="evenodd" d="M25.4202 29.634L18.6888 25.7195L32.6308 17.1L25.4202 29.634Z" fill="#3B48B0"/>
<path fill-rule="evenodd" clip-rule="evenodd" d="M17.6188 24.7586L28.0459 18.2649L9.65395 11.0488L17.6188 24.7586Z" fill="#3B48B0"/>
<path fill-rule="evenodd" clip-rule="evenodd" d="M0.0653992 14.9922L7.8214 10.5978L15.5148 23.9031L0.0653992 14.9922Z" fill="#3B48B0"/>
<path fill-rule="evenodd" clip-rule="evenodd" d="M0.541763 16.9106L8.03965 29.8905H23.0827L0.541763 16.9106Z" fill="#3B48B0"/>
<path fill-rule="evenodd" clip-rule="evenodd" d="M54.44 13.018C54.248 12.106 53.825 11.422 53.171 10.966C52.517 10.51 51.74 10.282 50.84 10.282C50.072 10.282 49.415 10.426 48.869 10.714C48.323 11.002 47.873 11.389 47.519 11.875C47.165 12.361 46.904 12.916 46.736 13.54C46.568 14.164 46.484 14.812 46.484 15.484C46.484 16.216 46.568 16.909 46.736 17.563C46.904 18.217 47.165 18.787 47.519 19.273C47.873 19.759 48.326 20.146 48.878 20.434C49.43 20.722 50.09 20.866 50.858 20.866C51.422 20.866 51.923 20.773 52.361 20.587C52.799 20.401 53.177 20.143 53.495 19.813C53.813 19.483 54.062 19.09 54.242 18.634C54.422 18.178 54.53 17.686 54.566 17.158H56.276C56.108 18.778 55.55 20.038 54.602 20.938C53.654 21.838 52.358 22.288 50.714 22.288C49.718 22.288 48.848 22.117 48.104 21.775C47.36 21.433 46.742 20.962 46.25 20.362C45.758 19.762 45.389 19.054 45.143 18.238C44.897 17.422 44.774 16.546 44.774 15.61C44.774 14.674 44.906 13.795 45.17 12.973C45.434 12.151 45.821 11.434 46.331 10.822C46.841 10.21 47.477 9.727 48.239 9.373C49.001 9.019 49.874 8.842 50.858 8.842C51.53 8.842 52.166 8.932 52.766 9.112C53.366 9.292 53.9 9.556 54.368 9.904C54.836 10.252 55.226 10.687 55.538 11.209C55.85 11.731 56.054 12.334 56.15 13.018H54.44ZM58.9265 17.356C58.9265 17.92 59.0015 18.421 59.1515 18.859C59.3015 19.297 59.5085 19.663 59.7725 19.957C60.0365 20.251 60.3455 20.476 60.6995 20.632C61.0535 20.788 61.4285 20.866 61.8245 20.866C62.2205 20.866 62.5955 20.788 62.9495 20.632C63.3035 20.476 63.6125 20.251 63.8765 19.957C64.1405 19.663 64.3475 19.297 64.4975 18.859C64.6475 18.421 64.7225 17.92 64.7225 17.356C64.7225 16.792 64.6475 16.291 64.4975 15.853C64.3475 15.415 64.1405 15.046 63.8765 14.746C63.6125 14.446 63.3035 14.218 62.9495 14.062C62.5955 13.906 62.2205 13.828 61.8245 13.828C61.4285 13.828 61.0535 13.906 60.6995 14.062C60.3455 14.218 60.0365 14.446 59.7725 14.746C59.5085 15.046 59.3015 15.415 59.1515 15.853C59.0015 16.291 58.9265 16.792 58.9265 17.356ZM57.3065 17.356C57.3065 16.672 57.4025 16.033 57.5945 15.439C57.7865 14.845 58.0745 14.329 58.4585 13.891C58.8425 13.453 59.3165 13.108 59.8805 12.856C60.4445 12.604 61.0925 12.478 61.8245 12.478C62.5685 12.478 63.2195 12.604 63.7775 12.856C64.3355 13.108 64.8065 13.453 65.1905 13.891C65.5745 14.329 65.8625 14.845 66.0545 15.439C66.2465 16.033 66.3425 16.672 66.3425 17.356C66.3425 18.04 66.2465 18.676 66.0545 19.264C65.8625 19.852 65.5745 20.365 65.1905 20.803C64.8065 21.241 64.3355 21.583 63.7775 21.829C63.2195 22.075 62.5685 22.198 61.8245 22.198C61.0925 22.198 60.4445 22.075 59.8805 21.829C59.3165 21.583 58.8425 21.241 58.4585 20.803C58.0745 20.365 57.7865 19.852 57.5945 19.264C57.4025 18.676 57.3065 18.04 57.3065 17.356ZM67.805 12.694H69.245V14.17H69.281C69.917 13.042 70.925 12.478 72.305 12.478C72.917 12.478 73.427 12.562 73.835 12.73C74.243 12.898 74.573 13.132 74.825 13.432C75.077 13.732 75.254 14.089 75.356 14.503C75.458 14.917 75.509 15.376 75.509 15.88V22H73.979V15.7C73.979 15.124 73.811 14.668 73.475 14.332C73.139 13.996 72.677 13.828 72.089 13.828C71.621 13.828 71.216 13.9 70.874 14.044C70.532 14.188 70.247 14.392 70.019 14.656C69.791 14.92 69.62 15.229 69.506 15.583C69.392 15.937 69.335 16.324 69.335 16.744V22H67.805V12.694ZM79.5995 12.694H81.4535V14.044H79.5995V19.822C79.5995 20.002 79.6145 20.146 79.6445 20.254C79.6745 20.362 79.7315 20.446 79.8155 20.506C79.8995 20.566 80.0165 20.605 80.1665 20.623C80.3165 20.641 80.5115 20.65 80.7515 20.65H81.4535V22H80.2835C79.8875 22 79.5485 21.973 79.2665 21.919C78.9845 21.865 78.7565 21.766 78.5825 21.622C78.4085 21.478 78.2795 21.274 78.1955 21.01C78.1115 20.746 78.0695 20.398 78.0695 19.966V14.044H76.4855V12.694H78.0695V9.904H79.5995V12.694ZM82.754 12.694H84.194V14.656H84.23C84.602 13.9 85.058 13.342 85.598 12.982C86.138 12.622 86.822 12.454 87.65 12.478V14.098C87.038 14.098 86.516 14.182 86.084 14.35C85.652 14.518 85.304 14.764 85.04 15.088C84.776 15.412 84.584 15.805 84.464 16.267C84.344 16.729 84.284 17.26 84.284 17.86V22H82.754V12.694ZM96.7085 21.964C96.4445 22.12 96.0785 22.198 95.6105 22.198C95.2145 22.198 94.8995 22.087 94.6655 21.865C94.4315 21.643 94.3145 21.28 94.3145 20.776C93.8945 21.28 93.4055 21.643 92.8475 21.865C92.2895 22.087 91.6865 22.198 91.0385 22.198C90.6185 22.198 90.2195 22.15 89.8415 22.054C89.4635 21.958 89.1365 21.808 88.8605 21.604C88.5845 21.4 88.3655 21.133 88.2035 20.803C88.0415 20.473 87.9605 20.074 87.9605 19.606C87.9605 19.078 88.0505 18.646 88.2305 18.31C88.4105 17.974 88.6475 17.701 88.9415 17.491C89.2355 17.281 89.5715 17.122 89.9495 17.014C90.3275 16.906 90.7145 16.816 91.1105 16.744C91.5305 16.66 91.9295 16.597 92.3075 16.555C92.6855 16.513 93.0185 16.453 93.3065 16.375C93.5945 16.297 93.8225 16.183 93.9905 16.033C94.1585 15.883 94.2425 15.664 94.2425 15.376C94.2425 15.04 94.1795 14.77 94.0535 14.566C93.9275 14.362 93.7655 14.206 93.5675 14.098C93.3695 13.99 93.1475 13.918 92.9015 13.882C92.6555 13.846 92.4125 13.828 92.1725 13.828C91.5245 13.828 90.9845 13.951 90.5525 14.197C90.1205 14.443 89.8865 14.908 89.8505 15.592H88.3205C88.3445 15.016 88.4645 14.53 88.6805 14.134C88.8965 13.738 89.1845 13.417 89.5445 13.171C89.9045 12.925 90.3155 12.748 90.7775 12.64C91.2395 12.532 91.7345 12.478 92.2625 12.478C92.6825 12.478 93.0995 12.508 93.5135 12.568C93.9275 12.628 94.3025 12.751 94.6385 12.937C94.9745 13.123 95.2445 13.384 95.4485 13.72C95.6525 14.056 95.7545 14.494 95.7545 15.034V19.822C95.7545 20.182 95.7755 20.446 95.8175 20.614C95.8595 20.782 96.0005 20.866 96.2405 20.866C96.3725 20.866 96.5285 20.836 96.7085 20.776V21.964ZM94.2245 17.194C94.0325 17.338 93.7805 17.443 93.4685 17.509C93.1565 17.575 92.8295 17.629 92.4875 17.671C92.1455 17.713 91.8005 17.761 91.4525 17.815C91.1045 17.869 90.7925 17.956 90.5165 18.076C90.2405 18.196 90.0155 18.367 89.8415 18.589C89.6675 18.811 89.5805 19.114 89.5805 19.498C89.5805 19.75 89.6315 19.963 89.7335 20.137C89.8355 20.311 89.9675 20.452 90.1295 20.56C90.2915 20.668 90.4805 20.746 90.6965 20.794C90.9125 20.842 91.1405 20.866 91.3805 20.866C91.8845 20.866 92.3165 20.797 92.6765 20.659C93.0365 20.521 93.3305 20.347 93.5585 20.137C93.7865 19.927 93.9545 19.699 94.0625 19.453C94.1705 19.207 94.2245 18.976 94.2245 18.76V17.194ZM104.111 15.682C103.991 15.094 103.739 14.638 103.355 14.314C102.971 13.99 102.455 13.828 101.807 13.828C101.255 13.828 100.793 13.93 100.421 14.134C100.049 14.338 99.752 14.608 99.53 14.944C99.308 15.28 99.149 15.667 99.053 16.105C98.957 16.543 98.909 16.996 98.909 17.464C98.909 17.896 98.96 18.316 99.062 18.724C99.164 19.132 99.323 19.495 99.539 19.813C99.755 20.131 100.037 20.386 100.385 20.578C100.733 20.77 101.147 20.866 101.627 20.866C102.383 20.866 102.974 20.668 103.4 20.272C103.826 19.876 104.087 19.318 104.183 18.598H105.749C105.581 19.75 105.152 20.638 104.462 21.262C103.772 21.886 102.833 22.198 101.645 22.198C100.937 22.198 100.31 22.084 99.764 21.856C99.218 21.628 98.762 21.304 98.396 20.884C98.03 20.464 97.754 19.963 97.568 19.381C97.382 18.799 97.289 18.16 97.289 17.464C97.289 16.768 97.379 16.117 97.559 15.511C97.739 14.905 98.012 14.377 98.378 13.927C98.744 13.477 99.203 13.123 99.755 12.865C100.307 12.607 100.949 12.478 101.681 12.478C102.209 12.478 102.704 12.541 103.166 12.667C103.628 12.793 104.036 12.988 104.39 13.252C104.744 13.516 105.035 13.849 105.263 14.251C105.491 14.653 105.635 15.13 105.695 15.682H104.111ZM109.245 12.694H111.099V14.044H109.245V19.822C109.245 20.002 109.26 20.146 109.29 20.254C109.32 20.362 109.377 20.446 109.461 20.506C109.545 20.566 109.662 20.605 109.812 20.623C109.962 20.641 110.158 20.65 110.397 20.65H111.099V22H109.929C109.533 22 109.194 21.973 108.912 21.919C108.63 21.865 108.402 21.766 108.228 21.622C108.054 21.478 107.925 21.274 107.841 21.01C107.757 20.746 107.715 20.398 107.715 19.966V14.044H106.131V12.694H107.715V9.904H109.245V12.694ZM112.706 9.148H114.416V20.56H121.22V22H112.706V9.148ZM130.368 21.964C130.104 22.12 129.738 22.198 129.27 22.198C128.874 22.198 128.559 22.087 128.325 21.865C128.091 21.643 127.974 21.28 127.974 20.776C127.554 21.28 127.066 21.643 126.507 21.865C125.949 22.087 125.346 22.198 124.698 22.198C124.278 22.198 123.88 22.15 123.502 22.054C123.124 21.958 122.797 21.808 122.521 21.604C122.244 21.4 122.026 21.133 121.864 20.803C121.701 20.473 121.62 20.074 121.62 19.606C121.62 19.078 121.71 18.646 121.89 18.31C122.07 17.974 122.307 17.701 122.601 17.491C122.895 17.281 123.231 17.122 123.609 17.014C123.987 16.906 124.374 16.816 124.771 16.744C125.191 16.66 125.589 16.597 125.967 16.555C126.345 16.513 126.678 16.453 126.966 16.375C127.255 16.297 127.482 16.183 127.65 16.033C127.818 15.883 127.902 15.664 127.902 15.376C127.902 15.04 127.839 14.77 127.713 14.566C127.587 14.362 127.425 14.206 127.228 14.098C127.03 13.99 126.808 13.918 126.562 13.882C126.315 13.846 126.072 13.828 125.832 13.828C125.184 13.828 124.645 13.951 124.213 14.197C123.781 14.443 123.546 14.908 123.51 15.592H121.98C122.004 15.016 122.124 14.53 122.34 14.134C122.556 13.738 122.844 13.417 123.204 13.171C123.564 12.925 123.975 12.748 124.437 12.64C124.899 12.532 125.394 12.478 125.922 12.478C126.342 12.478 126.759 12.508 127.174 12.568C127.588 12.628 127.962 12.751 128.298 12.937C128.634 13.123 128.904 13.384 129.108 13.72C129.312 14.056 129.414 14.494 129.414 15.034V19.822C129.414 20.182 129.435 20.446 129.477 20.614C129.519 20.782 129.66 20.866 129.9 20.866C130.032 20.866 130.188 20.836 130.368 20.776V21.964ZM127.884 17.194C127.692 17.338 127.441 17.443 127.129 17.509C126.816 17.575 126.49 17.629 126.147 17.671C125.805 17.713 125.46 17.761 125.112 17.815C124.764 17.869 124.452 17.956 124.176 18.076C123.9 18.196 123.676 18.367 123.502 18.589C123.327 18.811 123.241 19.114 123.241 19.498C123.241 19.75 123.292 19.963 123.394 20.137C123.495 20.311 123.627 20.452 123.789 20.56C123.951 20.668 124.14 20.746 124.356 20.794C124.573 20.842 124.8 20.866 125.04 20.866C125.544 20.866 125.976 20.797 126.336 20.659C126.696 20.521 126.99 20.347 127.218 20.137C127.447 19.927 127.614 19.699 127.722 19.453C127.83 19.207 127.884 18.976 127.884 18.76V17.194ZM131.453 12.694H132.893V14.17H132.929C133.565 13.042 134.573 12.478 135.953 12.478C136.565 12.478 137.075 12.562 137.483 12.73C137.891 12.898 138.221 13.132 138.473 13.432C138.725 13.732 138.902 14.089 139.004 14.503C139.106 14.917 139.157 15.376 139.157 15.88V22H137.627V15.7C137.627 15.124 137.459 14.668 137.123 14.332C136.787 13.996 136.325 13.828 135.737 13.828C135.269 13.828 134.864 13.9 134.522 14.044C134.18 14.188 133.895 14.392 133.667 14.656C133.439 14.92 133.268 15.229 133.154 15.583C133.04 15.937 132.983 16.324 132.983 16.744V22H131.453V12.694ZM142.239 17.428C142.239 17.86 142.297 18.283 142.41 18.697C142.524 19.111 142.698 19.48 142.932 19.804C143.166 20.128 143.466 20.386 143.832 20.578C144.199 20.77 144.627 20.866 145.119 20.866C145.636 20.866 146.073 20.764 146.433 20.56C146.793 20.356 147.087 20.089 147.315 19.759C147.544 19.429 147.708 19.054 147.81 18.634C147.912 18.214 147.963 17.788 147.963 17.356C147.963 16.9 147.909 16.459 147.801 16.033C147.693 15.607 147.522 15.232 147.288 14.908C147.054 14.584 146.751 14.323 146.379 14.125C146.007 13.927 145.557 13.828 145.029 13.828C144.513 13.828 144.075 13.93 143.715 14.134C143.355 14.338 143.067 14.608 142.851 14.944C142.635 15.28 142.479 15.664 142.383 16.096C142.287 16.528 142.239 16.972 142.239 17.428ZM149.439 22H147.909V20.74H147.873C147.621 21.256 147.225 21.628 146.685 21.856C146.145 22.084 145.551 22.198 144.903 22.198C144.183 22.198 143.557 22.066 143.022 21.802C142.488 21.538 142.045 21.184 141.69 20.74C141.336 20.296 141.069 19.78 140.889 19.192C140.709 18.604 140.619 17.98 140.619 17.32C140.619 16.66 140.706 16.036 140.88 15.448C141.054 14.86 141.318 14.347 141.672 13.909C142.026 13.471 142.47 13.123 143.004 12.865C143.538 12.607 144.159 12.478 144.867 12.478C145.107 12.478 145.365 12.502 145.641 12.55C145.917 12.598 146.193 12.679 146.469 12.793C146.745 12.907 147.006 13.057 147.252 13.243C147.498 13.429 147.705 13.66 147.873 13.936H147.909V9.148H149.439V22Z" fill="#313B46"/>
</svg>
