<?xml version="1.0" encoding="utf-8"?>
<!-- Generator: Adobe Illustrator 19.0.0, SVG Export Plug-In . SVG Version: 6.00 Build 0)  -->
<svg version="1.1" id="Group_1_1_" xmlns="http://www.w3.org/2000/svg" xmlns:xlink="http://www.w3.org/1999/xlink" x="0px" y="0px"
	 viewBox="0 0 720 950" style="enable-background:new 0 0 720 950;" xml:space="preserve">
<g id="Polygon_3">
	<g>
		<path style="fill:#292A33;" d="M557.44,561.55l8.38,5.23l-0.4,9.73l-8.79,4.55l-8.38-5.23l0.4-9.73L557.44,561.55 M557.55,558.61
			l-11.4,5.91l-0.52,12.7l10.88,6.79l11.4-5.91l0.52-12.7L557.55,558.61L557.55,558.61z"/>
	</g>
</g>
<g id="Polygon_1">
	<g>
		<polygon style="fill-rule:evenodd;clip-rule:evenodd;fill:#DD3E5D;" points="446.6,535.66 436.83,536.39 432.58,545.18 
			438.1,553.24 447.87,552.51 452.12,543.72 		"/>
	</g>
</g>
<g id="Polygon_2">
	<g>
		<path style="fill:#292A33;" d="M171.75,541.31l10,6.62l-0.71,12.04l-10.71,5.39l-10-6.62l0.71-12.04L171.75,541.31 M171.92,538.36
			l-13.35,6.72l-0.88,14.98l12.47,8.26l13.35-6.72l0.88-14.98L171.92,538.36L171.92,538.36z"/>
	</g>
</g>
<g id="Polygon_2_1_">
	<g>
		<polygon style="fill-rule:evenodd;clip-rule:evenodd;fill:#DD3E5D;" points="43.67,419.19 28.34,415.47 17.46,426.88 
			21.89,442.02 37.22,445.74 48.11,434.33 		"/>
	</g>
</g>
<g id="Rectangle_4">
	<g>
		<rect x="46.52" y="884.55" style="fill-rule:evenodd;clip-rule:evenodd;fill:#3C42A8;" width="27.98" height="27.98"/>
	</g>
</g>
<g id="Rectangle_4_1_">
	<g>
		<polygon style="fill-rule:evenodd;clip-rule:evenodd;fill:#5BC787;" points="654.52,924.71 645.94,939.58 660.8,948.16 
			669.38,933.29 		"/>
	</g>
</g>
<g id="Ellipse_1">
	<g>
		<circle style="fill-rule:evenodd;clip-rule:evenodd;fill:#DD3E5D;" cx="117.66" cy="941.34" r="3.92"/>
	</g>
</g>
<g id="Ellipse_1_1_">
	<g>
		<circle style="fill-rule:evenodd;clip-rule:evenodd;fill:#5CC689;" cx="564.22" cy="899.06" r="3.6"/>
	</g>
</g>
<g id="Rectangle_4_2_">
	<g>
		<rect x="687.91" y="220.78" style="fill-rule:evenodd;clip-rule:evenodd;fill:#3C42A8;" width="9.19" height="9.19"/>
	</g>
</g>
<g id="Ellipse_1_2_">
	<g>
		<circle style="fill-rule:evenodd;clip-rule:evenodd;fill:#5CC689;" cx="49.76" cy="117.15" r="8.47"/>
	</g>
</g>
<g id="Ellipse_1_3_">
	<g>
		<circle style="fill-rule:evenodd;clip-rule:evenodd;fill:#5CC689;" cx="677.8" cy="478.59" r="24.1"/>
	</g>
</g>
<g id="Ellipse_1_4_">
	<g>
		<circle style="fill-rule:evenodd;clip-rule:evenodd;fill:#DD3E5D;" cx="699.1" cy="592.33" r="2.96"/>
	</g>
</g>
<g id="Ellipse_1_5_">
	<g>
		<circle style="fill-rule:evenodd;clip-rule:evenodd;fill:#5CC689;" cx="60.75" cy="533.58" r="20.98"/>
	</g>
</g>
<g id="Ellipse_1_6_">
	<g>
		<ellipse style="fill-rule:evenodd;clip-rule:evenodd;fill:#3C42A8;" cx="158.16" cy="98.97" rx="2.94" ry="2.96"/>
	</g>
</g>
<g id="Ellipse_1_7_">
	<g>
		<circle style="fill-rule:evenodd;clip-rule:evenodd;fill:#DD3E5D;" cx="169.21" cy="473.87" r="3.6"/>
	</g>
</g>
<g id="Rectangle_4_3_">
	<g>
		
			<rect x="584.39" y="64.77" transform="matrix(0.9939 -0.1103 0.1103 0.9939 -3.886 65.1888)" style="fill-rule:evenodd;clip-rule:evenodd;fill:#DD3E5D;" width="5.9" height="5.9"/>
	</g>
</g>
<g id="Rectangle_4_4_">
	<g>
		
			<rect x="16.95" y="634.25" transform="matrix(0.9945 -0.1044 0.1044 0.9945 -66.7352 5.9188)" style="fill-rule:evenodd;clip-rule:evenodd;fill:#5CC689;" width="12.45" height="12.45"/>
	</g>
</g>
<g id="Rectangle_4_5_">
	<g>
		
			<rect x="46.37" y="229.86" transform="matrix(0.8091 -0.5877 0.5877 0.8091 -127.717 74.0426)" style="fill-rule:evenodd;clip-rule:evenodd;fill:#5CC689;" width="7.46" height="7.46"/>
	</g>
</g>
<g id="Rectangle_4_6_">
	<g>
		<path style="fill:#292A33;" d="M671.45,42.61l18.2,18.2l-18.2,18.2l-18.2-18.2L671.45,42.61 M671.45,38.99l-21.82,21.82
			l21.82,21.82l21.82-21.82L671.45,38.99L671.45,38.99z"/>
	</g>
</g>
<g id="Rectangle_4_7_">
	<g>
		<path style="fill:#292A33;" d="M58.02,5.82l3.56,27.53l-27.53,3.56L30.5,9.38L58.02,5.82 M60.23,2.96l-32.6,4.22l4.22,32.6
			l32.6-4.22L60.23,2.96L60.23,2.96z"/>
	</g>
</g>
<g id="Rectangle_4_8_">
	<g>
		<rect x="251.06" y="557.52" style="fill-rule:evenodd;clip-rule:evenodd;fill:#3C42A8;" width="12.39" height="12.39"/>
	</g>
</g>
<g id="Rectangle_4_9_">
	<g>
		
			<rect x="538.91" y="500.88" transform="matrix(0.087 -0.9962 0.9962 0.087 -7.4226 1005.094)" style="fill-rule:evenodd;clip-rule:evenodd;fill:#5CC689;" width="11.42" height="11.42"/>
	</g>
</g>
</svg>
