<svg xmlns="http://www.w3.org/2000/svg" xmlns:xlink="http://www.w3.org/1999/xlink" preserveAspectRatio="xMidYMid" width="1333.943" height="636.375" viewBox="0 0 1333.943 636.375">
  <defs>
    <style>
      .cls-1 {
        stroke: #292a33;
        stroke-width: 2px;
        fill: none;
      }

      .cls-1, .cls-2, .cls-4, .cls-7, .cls-8 {
        fill-rule: evenodd;
      }

      .cls-2, .cls-5 {
        fill: #dd3e5d;
      }

      .cls-3, .cls-7 {
        fill: #3c42a8;
      }

      .cls-4 {
        fill: #5bc787;
      }

      .cls-6, .cls-8 {
        fill: #5cc689;
      }
    </style>
  </defs>
  <g>
    <path d="M1119.772,265.951 L1119.264,278.365 L1108.122,284.138 L1097.488,277.497 L1097.996,265.082 L1109.138,259.309 L1119.772,265.951 Z" class="cls-1"/>
    <path d="M1098.009,478.501 L1093.855,487.094 L1084.305,487.808 L1078.909,479.929 L1083.064,471.337 L1092.614,470.623 L1098.009,478.501 Z" class="cls-2"/>
    <path d="M310.355,388.594 L309.494,403.235 L296.447,409.806 L284.261,401.737 L285.122,387.096 L298.169,380.524 L310.355,388.594 Z" class="cls-1"/>
    <path d="M246.836,286.042 L251.174,300.835 L240.533,311.988 L225.553,308.349 L221.214,293.557 L231.856,282.404 L246.836,286.042 Z" class="cls-2"/>
    <rect x="71.188" y="152.407" width="27.375" height="27.375" class="cls-3"/>
    <path d="M1112.744,2.638 L1127.271,11.028 L1118.884,25.559 L1104.357,17.170 L1112.744,2.638 Z" class="cls-4"/>
    <ellipse cx="275.563" cy="632.563" rx="3.813" ry="3.813" class="cls-5"/>
    <circle cx="1315.753" cy="470.5" r="3.5" class="cls-6"/>
    <path d="M1196.187,611.281 L1214.000,611.281 L1214.000,629.125 L1196.187,629.125 L1196.187,611.281 Z" class="cls-7"/>
    <circle cx="323.469" cy="188.094" r="8.281" class="cls-6"/>
    <ellipse cx="1282.563" cy="273.719" rx="23.56" ry="23.563" class="cls-6"/>
    <circle cx="1130.217" cy="135.657" r="2.875" class="cls-5"/>
    <circle cx="219.578" cy="79.11" r="26.422" class="cls-6"/>
    <circle cx="309.235" cy="2.875" r="2.859" class="cls-3"/>
    <circle cx="335.875" cy="95.032" r="3.5" class="cls-5"/>
    <path d="M1202.187,52.406 L1229.562,52.406 L1229.562,79.781 L1202.187,79.781 L1202.187,52.406 Z" class="cls-7"/>
    <path d="M1199.642,256.898 L1205.373,256.262 L1206.009,261.992 L1200.279,262.628 L1199.642,256.898 Z" class="cls-2"/>
    <path d="M173.998,537.890 L186.097,536.620 L187.367,548.719 L175.268,549.989 L173.998,537.890 Z" class="cls-8"/>
    <path d="M140.644,353.336 L146.545,349.050 L150.831,354.951 L144.930,359.237 L140.644,353.336 Z" class="cls-8"/>
    <path d="M1290.271,146.042 L1311.601,124.712 L1332.930,146.042 L1311.601,167.371 L1290.271,146.042 Z" class="cls-1"/>
    <path d="M1.010,262.781 L43.744,257.255 L49.271,299.989 L6.537,305.516 L1.010,262.781 Z" class="cls-1"/>
    <rect x="355.656" y="479.219" width="12.125" height="12.125" class="cls-3"/>
    <path d="M1206.348,394.574 L1217.471,395.545 L1216.500,406.668 L1205.376,405.697 L1206.348,394.574 Z" class="cls-8"/>
  </g>
</svg>
