<?xml version="1.0" encoding="utf-8"?>
<!-- Generator: Adobe Illustrator 18.0.0, SVG Export Plug-In . SVG Version: 6.00 Build 0)  -->
<!DOCTYPE svg PUBLIC "-//W3C//DTD SVG 1.1//EN" "http://www.w3.org/Graphics/SVG/1.1/DTD/svg11.dtd">
<svg version="1.1" id="Layer_1" xmlns="http://www.w3.org/2000/svg" xmlns:xlink="http://www.w3.org/1999/xlink" x="0px" y="0px"
	 viewBox="0 0 512 512" enable-background="new 0 0 512 512" xml:space="preserve">
<g>
	<defs>
		<rect id="SVGID_1_" width="512" height="512"/>
	</defs>
	<clipPath id="SVGID_2_">
		<use xlink:href="#SVGID_1_"  overflow="visible"/>
	</clipPath>
	<path clip-path="url(#SVGID_2_)" fill="#3B48B0" d="M0,77V52c2.1-3.2,5.1-5,8.4-6.6c19-9,38.1-18.1,57-27.2C78,12.2,90.5,6.1,103,0
		h3c0.4,0.3,0.7,0.7,1.1,0.9c31.6,15,63.1,30.1,94.7,45c4.8,2.3,7,5.4,7,10.8c-0.1,38.8-0.1,77.7,0,116.5c0,5.1-1.9,8.4-6.6,10.6
		c-11.9,5.5-23.8,11.3-35.6,16.9c-17,8.1-34,16.2-50.9,24.3c-1.7,0.8-3.9,1.3-3.9,3.9c0,7.6,0,15.3,0,22.6c2.1,1.4,4,1.1,5.8,1.1
		c32.3,0,64.7,0,97,0.1c3.9,0,5.8-1.1,7.3-4.9c5.4-14,18.8-22.8,33.9-22.9c15.3-0.1,28.9,8.7,34.4,22.9c1.5,3.8,3.4,4.9,7.3,4.9
		c32.3-0.1,64.7-0.1,97-0.1c1.8,0,3.7,0.3,5.9-1.1c0-6.3-0.3-13,0.1-19.6c0.2-4-1.4-5.8-4.9-7.5c-28.3-13.3-56.5-27-84.8-40.3
		c-5.4-2.6-7.6-6-7.5-12c0.2-38.2,0.2-76.3,0-114.5c0-6.3,2.4-9.7,7.9-12.3c19.2-8.9,38.2-18.1,57.3-27.3
		c12.6-6,25.1-12.2,37.7-18.3h3c0.4,0.3,0.7,0.8,1.1,1c31.4,15,62.9,30,94.4,44.9c3.1,1.5,5.6,3.5,7.6,6.1v77
		c-3.3,5.1-5.9,6.6-9.4,5.5c-3.7-1.1-5.3-4.1-5.3-10.2c0-0.8,0-1.7,0-2.5c0-16.8,0-33.6,0-50.4c0-1.7,0.3-3.6-0.7-5.4
		c-1.1,0.4-1.8,0.6-2.6,0.9c-25.4,12.1-50.7,24.3-76.1,36.3c-2.9,1.4-3.1,3.4-3.1,6c0,32.5,0,64.9,0.1,97.4c0,1.2-0.5,2.7,0.8,3.6
		c1,0.2,1.7-0.2,2.5-0.6c25.4-12.1,50.7-24.2,76.1-36.2c2.6-1.2,3.2-2.9,3.2-5.5c0-3.3-0.6-6.7,0.6-9.9c0.9-2.5,2.5-4.3,5.3-4.7
		c2.9-0.4,5.3,0.3,7,2.8c0.6,1,1.2,2,1.8,3v19c-2.1,3.2-5.1,5-8.5,6.6c-28.1,13.3-56.1,26.8-84.3,40.1c-3.3,1.6-4.7,3.3-4.6,7.1
		c0.3,8,0.1,16,0.1,24c0,9-2.1,11.1-11.2,11.1c-34.3,0-68.6,0-102.9,0c-1.5,0-3,0-4.5,0.1c-1,0-2.2,0.1-2.6,1.2
		c-0.9,2.6-1.1,5.4-0.3,7.9c0.7,2.2,3.2,1.3,4.9,1.3c24.2,0.1,48.3,0,72.5,0c11.7,0,16.4,4.6,16.5,16.2c0,29,0,58,0,86.9
		c0,18.8,0,37.6,0,56.5c0,4.2-0.8,7.9-3.9,10.9c-3.2,3.1-7.2,3.9-11.5,3.9c-19.3,0-38.6-0.1-58,0c-12,0.1-10.5-2.6-10.7,10.9
		c-0.1,3.4,1,5,4.5,4.6c1.5-0.2,3,0,4.5,0.2c11.2,1.6,19.2,9.6,19.9,19.8c0.8,11.9-5.5,20.5-17,23.6c-1,0.3-1.9,0.7-2.8,1H200
		c-0.8-0.3-1.5-0.7-2.3-0.9c-12.1-3.4-18.3-11.7-17.5-23.7c0.7-10.4,8.9-18.4,20.3-20c2.7-0.4,6.2,1.3,7.9-1.4
		c1.5-2.3,0.5-5.5,0.5-8.3c0-5.9,0-5.9-6.2-5.9c-20.3,0-40.6,0-61,0c-12.4,0-16.9-4.5-16.9-16.8c0-40,0-79.9,0-119.9c0-8,0-16,0-24
		c0-3.7,1-6.9,3.6-9.5c3.3-3.3,7.4-4.2,11.9-4.2c24.3,0,48.6,0,72.9,0c5.9,0,5.9,0,5.6-5.7c-0.2-4.5-0.3-4.6-5.6-4.6
		c-35.5,0-71,0-106.4,0c-7.1,0-9.7-2.5-9.7-9.5c-0.1-8.5-0.2-17,0.1-25.5c0.1-3.8-1.3-5.6-4.6-7.1c-28.1-13.3-56.2-26.8-84.3-40.1
		C5.1,183,2.1,181.2,0,178v-71c0.5-0.7,1-1.3,1.4-2c1.7-2.6,4.1-3.9,7.2-3.4c3.3,0.6,5.2,2.8,5.8,6c0.3,1.6,0.3,3.3,0.3,5
		c0,18,0.2,36-0.1,53.9c-0.1,4,1.4,5.9,4.8,7.5c24.1,11.3,48.1,22.9,72.1,34.3c1.6,0.8,3.1,2,5.1,1.7c1-1.5,0.6-3.3,0.6-4.9
		c0-31.8-0.1-63.6,0.1-95.4c0-3.9-1.2-5.9-4.8-7.5C68.5,91,44.5,79.4,20.5,68c-1.6-0.8-3.1-2-5.4-1.7c-0.7,3.2,0,6.5-0.5,9.8
		c-0.5,3.3-1.8,6.1-5.5,6.8c-3.5,0.6-6.2-0.4-7.9-3.7C0.8,78.4,0.4,77.7,0,77 M226.1,295.3c-0.8-4.2-3.6-3.6-6-3.6
		c-24.8,0-49.7,0-74.5,0c-6.6,0-6.6,0-6.6,6.5c0,34.2,0,68.3,0,102.5c0,6.5,0,6.5,6.6,6.5c56,0,112,0,168,0c1.5,0,3-0.1,4.5,0
		c5.1,0.3,7.9,2.9,8,7.1c0.1,4.3-2.7,6.9-7.8,7.3c-1.5,0.1-3,0-4.5,0c-54.7,0-109.3,0-164,0c-11.7,0-11.6,0-10.8,11.8
		c0.2,2.8,1.2,3.9,3.9,3.7c1.5-0.1,3,0,4.5,0h215c11.3,0,11.2,0,10.7-11.5c-0.1-3-1.1-4.2-4.1-4.1c-4.5,0.2-9,0.1-13.5,0
		c-1.3,0-2.7,0.1-4-0.1c-4.1-0.6-7.1-3.7-7-7.2c0.1-3.5,3-6.7,7.2-7c5.3-0.3,10.7-0.1,16-0.2c5.2,0,5.3-0.1,5.4-5.3c0-35,0-70,0-105
		c0-5.2-0.1-5.2-5.3-5.2c-25.3,0-50.7,0-76,0c-0.8,0-1.7,0-2.5,0c-2.2,0.2-3.2,1.4-3.1,3.4c1,1.2,2.2,1.3,3.3,1.5
		c20.2,5.1,36,24.6,35.6,46.9c-0.1,4.2,0.2,8.3,0,12.5c-0.2,3.8,1.4,5,5,4.9c4-0.2,8-0.1,12,0.2c3.7,0.3,5.9,3.2,5.9,6.8
		c0,3.6-2.3,6.3-6,6.8c-2,0.2-4,0.2-6,0.2c-34.2,0-68.3,0-102.5,0c-20.5,0-41,0-61.5-0.1c-5.1,0-7.8-2.7-7.8-7.1
		c0.1-4.2,2.7-6.6,7.6-6.8c3.2-0.1,6.3,0,9.5-0.1c5.6-0.1,5.7-0.2,5.8-5.5c0.1-5-0.1-10,0.2-15c1.2-18.3,10.3-31.5,26.2-40.3
		C217.4,298,221.9,297.3,226.1,295.3 M318.5,66.3c-1,1-0.7,2.2-0.7,3.3c0,32.8,0,65.6-0.1,98.4c0,3,1.3,4.4,3.8,5.6
		c24.9,11.8,49.9,23.8,74.8,35.6c1.1,0.5,2.2,1.7,3.8,0.5c0-0.8,0.2-1.8,0.2-2.8c0-32.6,0-65.3,0.1-97.9c0-3.4-1.4-4.9-4.3-6.3
		c-24.5-11.6-49-23.3-73.4-35C321.3,67,320.1,66,318.5,66.3 M193.7,66.3c-1.6-0.2-2.6,0.5-3.6,1c-24.9,11.9-49.8,23.8-74.8,35.6
		c-2.9,1.4-3.6,3.3-3.6,6.2c0.1,32.3,0,64.6,0.1,96.9c0,1.4-0.6,3,0.7,4.1c1.2,0.3,2.1-0.4,2.9-0.8c25.1-12,50.1-24,75.3-35.8
		c2.9-1.4,3.6-3.2,3.6-6.2c-0.1-32.3-0.1-64.6-0.1-96.9C194.2,69,194.4,67.7,193.7,66.3 M183.5,53.5c-1.1-0.6-1.9-1.2-2.8-1.6
		c-24.3-11.6-48.6-23.2-72.9-34.9c-2.6-1.2-4.6-1-7,0.2C76.7,28.7,52.5,40.3,28.4,51.8c-1,0.5-2.2,0.7-2.6,2.1c0.8,1.7,2.6,2,4,2.6
		C53.2,67.8,76.6,78.9,100,90.2c3.4,1.7,6,1.4,9.3-0.1c23.2-11.2,46.5-22.3,69.8-33.5C180.5,55.9,182.2,55.6,183.5,53.5 M328.7,53.1
		c0.3,1.7,1.1,2,1.9,2.3c24.8,11.9,49.5,23.7,74.3,35.6c2.3,1.1,4,0.6,6.1-0.4C435,79.1,459.2,67.6,483.4,56
		c1.1-0.5,2.7-0.7,2.9-2.7c-0.8-0.5-1.6-1-2.5-1.4c-24.3-11.6-48.7-23.2-72.9-34.9c-2.8-1.4-5-0.8-7.5,0.4
		c-16.3,7.9-32.7,15.7-49.1,23.5C345.8,44.9,337.2,49,328.7,53.1 M256,361h49.5c0.2,0,0.3,0,0.5,0c3.6,0.4,5.2-1,5.1-4.8
		c-0.3-6,0-12-0.7-18c-1.8-14.4-14.2-27-28.6-28.5c-15.4-1.7-31-1.1-46.4-0.5c-17.2,0.7-28.9,10.3-32.9,25.6
		c-1.4,5.2-1.4,10.5-1.4,15.9c0.2,11.5-1.3,10.2,10,10.3C226,361.1,241,361,256,361 M279,266.9c0.1-3-0.1-6.1-0.7-9.3
		c-2.1-10.6-11.7-18.5-22.4-18.5c-10.8,0.1-20.2,8-22.2,18.6c-1.1,6-1,11.9-0.1,17.9c1.7,10.8,10.2,18.3,21.7,19.2
		c9.5,0.7,19.3-6.2,22.3-15.9C278.8,275,279.1,271,279,266.9 M256,497.3c16.8,0,33.6,0,50.5,0c1.5,0,3,0.1,4.5-0.1
		c3.9-0.6,6.7-3.7,6.8-7.5c0.1-4-2.9-7.2-7-7.8c-1.1-0.1-2.3-0.1-3.5-0.1c-34.1,0-68.3,0-102.4,0c-1.3,0-2.7-0.1-4,0.2
		c-3.7,0.6-6.3,3.6-6.5,7.2c-0.2,3.8,2.4,7.2,6.2,7.9c1.6,0.3,3.3,0.2,5,0.2C222.4,497.3,239.2,497.2,256,497.3 M256.5,451.8h-11.5
		c-4,0-8-0.1-12,0c-11.2,0.2-10.1-2.3-10.1,10.4c0,5,0.1,5,5,5c16.8,0,33.6,0.2,50.4,0c11.9-0.1,10.4,2.6,10.6-10.9
		c0.1-3.4-1.1-4.7-4.6-4.6C275.2,451.9,265.8,451.7,256.5,451.8"/>
</g>
</svg>
