<?xml version="1.0" encoding="utf-8"?>
<!-- Generator: Adobe Illustrator 18.0.0, SVG Export Plug-In . SVG Version: 6.00 Build 0)  -->
<!DOCTYPE svg PUBLIC "-//W3C//DTD SVG 1.1//EN" "http://www.w3.org/Graphics/SVG/1.1/DTD/svg11.dtd">
<svg version="1.1" id="Layer_1" xmlns="http://www.w3.org/2000/svg" xmlns:xlink="http://www.w3.org/1999/xlink" x="0px" y="0px"
	 viewBox="0 0 512 512" enable-background="new 0 0 512 512" xml:space="preserve">
<g>
	<defs>
		<rect id="SVGID_1_" width="512" height="512"/>
	</defs>
	<clipPath id="SVGID_2_">
		<use xlink:href="#SVGID_1_"  overflow="visible"/>
	</clipPath>
	<path clip-path="url(#SVGID_2_)" fill="#3B48B0" d="M0,212c1.8-2.5,4.2-4.1,6.9-5.4c13.5-6.4,27-12.9,40.5-19.4
		c1.7-0.8,3.3-1.5,5.2-1.6c3.2-0.1,6.1,1.6,7.3,4.3c1.3,2.9,0.6,6.6-1.8,8.7c-1.2,1.1-2.8,1.9-4.2,2.6c-7.9,3.9-15.9,7.7-23.8,11.5
		c-1.2,0.6-3.2,0.9-3.2,2c0,1.6,2.1,1.8,3.4,2.4c16.8,8.1,33.6,16.1,50.4,24.2c6.8,3.2,13.5,6.4,20.2,9.7c2.4,1.2,4.4,1.4,7,0.1
		c23.8-11.5,47.7-22.9,71.6-34.3c0.8-0.4,1.5-0.7,2.2-1.1c0.8-0.5,1.3-1.2,0-1.8c-0.9-0.4-1.8-0.9-2.7-1.3
		c-23.6-11.3-47.2-22.4-70.7-33.9c-2.9-1.4-5.1-1.2-7.8,0.1c-5.8,2.9-11.6,5.9-17.6,8.2c-5.9,2.3-11.3-2.5-10.1-8.7
		c0.5-2.5,2-4.2,4.2-5.3c7.9-3.9,15.9-7.6,23.9-11.4c3.4-1.6,6.4-0.5,9.5,1c14.7,7,29.4,14,44.2,21.1c15.9,7.6,31.7,15.4,47.8,22.8
		c5.1,2.4,7,5.7,7,11.2c-0.2,38.8-0.2,77.6,0,116.5c0,5.6-2.2,8.8-7.2,11.2c-30.5,14.4-61,29-91.4,43.7c-4.3,2.1-8,2.1-12.3,0
		C67.9,374.5,37.4,360,6.9,345.5c-2.8-1.3-5.2-2.9-6.9-5.5V212z M15.2,279.4L15.2,279.4c0,16.3,0,32.6-0.1,49c0,2.6,0.5,4.2,3.1,5.4
		c25.1,11.9,50.1,23.9,75.2,35.8c3.3,1.6,3.4,1.5,3.4-2.3c0-32.6,0-65.3,0.1-97.9c0-2.5-0.8-3.8-3.1-4.9
		c-25.1-11.9-50.2-23.9-75.2-35.8c-3.3-1.6-3.4-1.5-3.4,2.2C15.2,247.1,15.2,263.3,15.2,279.4 M112.2,318.5c0,12.7,0,25.3,0,38
		c0,4,0.1,8,0,12c0,2.2,0.7,2.7,2.6,1.6c0.6-0.3,1.2-0.6,1.8-0.9c24.6-11.8,49.2-23.6,73.9-35.2c2.7-1.3,3.5-2.8,3.5-5.7
		c-0.1-29.3,0-58.6,0-87.9c0-3.5-0.1-7,0-10.5c0.1-2.4-0.9-2.5-2.6-1.6c-0.6,0.3-1.2,0.6-1.8,0.9c-24.5,11.7-48.9,23.4-73.5,34.9
		c-3.1,1.4-4,3.2-3.9,6.4C112.2,286.5,112.2,302.5,112.2,318.5"/>
	<path clip-path="url(#SVGID_2_)" fill="#6372EB" d="M512,133c-2.2,2.5-5,4.3-8,5.6c-6.2,2.8-12.3,5.9-18.5,8.8
		c-2.1,1-4.3,1.8-6.7,1.1c-3.2-1-5.1-3.2-5.6-6.4c-0.5-3.5,1.2-6.2,4.3-7.8c4.9-2.5,9.8-5,14.9-7.1c3.4-1.4,4.6-3.2,4.6-7
		c-0.2-30.6-0.1-61.3-0.1-91.9c0-1.8-0.1-3.7,0-5.5c0.2-2.8-1.1-2.6-2.9-1.6c-0.6,0.3-1.2,0.6-1.8,0.9
		c-24.2,11.5-48.3,23.1-72.6,34.5c-3.4,1.6-4.5,3.4-4.5,7.1c0.1,31.8,0.1,63.6,0.1,95.4c0,0.7,0.1,1.3,0,2c-0.3,2.8,1.1,2.5,2.9,1.6
		c7.9-3.8,15.9-7.7,23.8-11.4c3.1-1.5,6.3-3.2,9.6-4.2c4-1.3,7.6,0.6,9.2,4c1.5,3.4,0.4,7.3-3,9.6c-1.1,0.7-2.3,1.3-3.5,1.9
		c-10.9,5.3-21.9,10.5-32.8,15.8c-0.9,0.4-1.8,0.8-2.7,1.3c-11.6,5.6-10.1,5.7-22.2-0.1c-28.5-13.7-57-27.4-85.6-40.8
		c-5.8-2.7-8.1-6.2-8-12.7c0.3-38.5,0.2-77,0.1-115.4c0-4.6,1-8.2,5.2-10.5h199c2.1,1.2,3.7,2.9,5,5V133z M318.2,72
		c0,16,0.1,32-0.1,48c0,3.7,1,5.5,4.4,7.1c24.2,11.4,48.4,23,72.5,34.6c0.9,0.4,1.8,0.8,2.7,1.3c1.2,0.6,2.3,0.8,2.1-1.2
		c0-0.7,0-1.3,0-2c0-32.3,0-64.6,0.1-96.9c0-3.1-1.1-4.6-3.9-6c-24.4-11.5-48.7-23.2-73-34.8c-0.9-0.4-1.8-0.8-2.7-1.2
		c-1.3-0.7-2.2-0.6-2.2,1.2c0,1.3,0,2.7,0,4C318.2,41.3,318.2,56.7,318.2,72 M407.8,15.2c-19.6,0-39.3,0-58.9,0
		c-0.9,0-2.2-0.6-2.6,0.5c-0.2,0.7,1.1,1,1.8,1.3c18.9,9,37.8,18,56.7,27.1c1.8,0.9,3.3,0.9,5.2,0.1c19-9.1,38.1-18.2,57.1-27.3
		c0.6-0.3,1.6-0.8,1.5-1.1c-0.2-1.2-1.3-0.6-1.9-0.6C447.1,15.1,427.4,15.2,407.8,15.2"/>
	<path clip-path="url(#SVGID_2_)" fill="#6372EB" d="M308,512c-3.9-2.2-5.3-5.5-5.2-10c0.2-7.3-0.1-14.7,0.1-22
		c0.2-6.2,6.1-9.7,11.2-6.9c2.7,1.5,3.9,4,4,7c0.1,4,0,8,0,12c0,4.6,0,4.7,4.5,4.7c14.8,0,29.7,0,44.5,0c9.7,0,19.3-0.1,29,0.1
		c2.7,0,3.8-0.7,3.7-3.6c-0.1-19-0.1-38,0-57c0-2.4-1-3.5-3-4.4C371.8,420,346.7,408,321.7,396c-3.4-1.6-3.5-1.6-3.5,2.5
		c0,15.3,0,30.7,0,46c0,1.5,0.1,3-0.2,4.5c-0.6,3.9-3.8,6.5-7.7,6.4c-3.6-0.1-6.6-2.6-7.3-6.3c-0.2-1.3-0.2-2.7-0.2-4
		c0-20,0.1-40-0.1-60c-0.1-5.6,2-8.9,7-11.3c30.7-14.5,61.3-29.2,91.9-43.9c4.1-2,7.8-1.9,11.9,0.1c30.4,14.6,60.9,29.2,91.4,43.7
		c2.8,1.3,5.1,3,7.1,5.3v128c-1.2,2.1-2.9,3.7-5,5H308z M496.8,445.7c0-15.6,0-31.3,0-46.9c0-4.3-0.1-4.4-3.8-2.6
		c-24.9,11.9-49.8,23.8-74.7,35.6c-2.5,1.2-3.3,2.6-3.3,5.3c0.1,18.5,0.1,37,0.1,55.4c0,4.3,0,4.4,4.3,4.4c24.3,0,48.6,0,72.9,0
		c4.4,0,4.5,0,4.5-4.7C496.9,476.6,496.8,461.2,496.8,445.7 M415,357.3c0,2.2,0.3,4.9-0.1,7.5c-0.5,3.7-3.7,6.3-7.3,6.4
		c-3.6,0.1-6.8-2.4-7.6-6.1c-0.3-1.3-0.2-2.6-0.3-4c0-3.5-0.1-7,0-10.5c0-1.9-0.5-2.5-2.3-1.5c-1,0.5-2.1,1-3.2,1.5
		c-19.4,9.2-38.8,18.5-58.1,27.8c-1.8,0.9-3.6,1.8-5.4,2.6c-2.2,1-1.3,1.8,0.2,2.5c0.7,0.4,1.5,0.7,2.3,1.1
		c23.4,11.2,46.9,22.3,70.3,33.6c2.8,1.4,5,1.3,7.8,0c23.4-11.3,46.8-22.5,70.2-33.7c0.9-0.4,1.8-0.9,2.7-1.3c1.4-0.7,1.2-1.4,0-2
		c-1.3-0.7-2.7-1.4-4-2c-19.1-9.1-38.2-18.2-57.2-27.3c-2.4-1.1-5.4-3.9-7.1-2.9C413.9,350.3,415.5,354.1,415,357.3"/>
	<path clip-path="url(#SVGID_2_)" fill="#4E5AB8" d="M233.2,278.9c0-6.5,0-13,0-19.5c0.1-8.4,2.7-11.1,11-11.2c10.3-0.1,20.6,0,31,0
		c4.4,0,4.6,0,4.6-4.3c0-5.2,2-9.1,6.6-11.3c4.7-2.3,9.1-1.2,13,2c13.4,10.9,26.9,21.7,40.3,32.7c6.5,5.4,6.9,12.9,0.8,18.6
		c-13.4,12.5-27,24.8-40.5,37.1c-3.9,3.5-8.4,4.9-13.4,2.6c-4.9-2.2-6.9-6.4-6.9-11.7c0-3.9-0.1-4-4.3-4c-9.3,0-18.6,0-28,0
		c-1.2,0-2.3,0-3.5,0c-7.8-0.2-10.5-2.8-10.7-10.5c0-1.7,0-3.3,0-5C233.2,289.2,233.2,284,233.2,278.9 M269.3,263.8L269.3,263.8
		c-5.5,0.1-11,0-16.5,0.1c-3.8,0.1-3.8,0.1-3.9,4c-0.1,7.2-0.1,14.3-0.1,21.5c0,4.7,0.1,4.7,4.7,4.7c10.5,0,21-0.1,31.5,0.1
		c6.9,0.1,9.4,2.5,10.1,9c0.1,0.7-0.1,1.7,0.3,1.9c0.8,0.5,1.5-0.3,2.1-0.9c9.2-8.4,18.4-16.9,27.7-25.3c1.3-1.2,1.9-2.1,0.1-3.5
		c-9.3-7.5-18.6-15.1-27.9-22.7c-0.5-0.4-1.2-1-1.7-0.9c-1.1,0.3-0.6,1.3-0.6,2.1c-0.6,7.3-3,9.7-10.3,9.8
		C279.6,263.9,274.5,263.8,269.3,263.8"/>
	<path clip-path="url(#SVGID_2_)" fill="#6372EB" d="M484.6,286.9c-3.3-0.2-6.1,0.2-8.9-0.5c-3.9-1-6.2-3.7-6.2-7.3
		c0-3.7,2.2-6.7,6.1-7.3c5.9-1,11.9-1,17.8,0c3.9,0.7,6.2,3.7,6.2,7.3c0,3.6-2.3,6.4-6.1,7.4c-1.6,0.4-3.3,0.5-4.9,0.5
		C487.1,286.9,485.6,286.9,484.6,286.9"/>
	<path clip-path="url(#SVGID_2_)" fill="#6372EB" d="M340.1,218.6c0.5-5.6,6.8-9,11.5-5.7c5.2,3.6,9.6,8.2,13.3,13.3
		c2,2.8,1.4,6.1-0.9,8.7c-2.3,2.5-6.3,3.5-9,1.5c-5.4-3.8-10.1-8.6-14-14C340.2,221.4,339.9,220,340.1,218.6"/>
	<path clip-path="url(#SVGID_2_)" fill="#6372EB" d="M366,327.5c0.1,2.5-0.7,4.4-2.1,5.8c-3.5,3.7-7.1,7.5-10.9,10.9
		c-3.2,2.9-7.6,2.7-10.4,0.1c-2.8-2.6-3.4-6.6-0.9-9.9c3.5-4.6,7.8-8.6,12.3-12.3c2.4-2,5.3-1.9,8-0.6
		C364.5,322.8,365.8,325,366,327.5"/>
	<path clip-path="url(#SVGID_2_)" fill="#6372EB" d="M474.9,338.3c0.2,6-6.3,10.1-11.3,6.9c-5.3-3.4-9.6-8.2-13.4-13.2
		c-2.1-2.8-1.6-6.1,0.6-8.7c2-2.4,5.9-3.9,8.5-2.1c6.1,4,11.4,9,15.1,15.5C474.8,337.2,474.8,337.9,474.9,338.3"/>
	<path clip-path="url(#SVGID_2_)" fill="#6372EB" d="M475,218.8c-0.1,2.5-1,4.5-2.5,6.1c-3.3,3.5-6.7,7-10.2,10.2
		c-3.4,3.1-7.9,3.1-10.8,0.3c-3.2-3.1-3.4-7.4,0-11.1c3.5-3.8,7.2-7.4,11-10.8c2.4-2.2,5.4-2.3,8.4-0.8
		C473.5,213.9,474.5,216.3,475,218.8"/>
	<path clip-path="url(#SVGID_2_)" fill="#6372EB" d="M415.1,202.3c0,2.5,0.2,5,0,7.5c-0.4,4.3-3.4,7.2-7.4,7.4
		c-4.1,0.1-7.6-3-7.8-7.4c-0.2-5.1-0.2-10.3,0-15.4c0.2-4.4,3.8-7.5,7.9-7.3c3.9,0.1,7,3.1,7.3,7.4
		C415.3,196.9,415.1,199.6,415.1,202.3L415.1,202.3z"/>
</g>
</svg>
