<?xml version="1.0" encoding="utf-8"?>
<!-- Generator: Adobe Illustrator 18.0.0, SVG Export Plug-In . SVG Version: 6.00 Build 0)  -->
<!DOCTYPE svg PUBLIC "-//W3C//DTD SVG 1.1//EN" "http://www.w3.org/Graphics/SVG/1.1/DTD/svg11.dtd">
<svg version="1.1" id="Layer_1" xmlns="http://www.w3.org/2000/svg" xmlns:xlink="http://www.w3.org/1999/xlink" x="0px" y="0px"
	 viewBox="0 0 512 512" enable-background="new 0 0 512 512" xml:space="preserve">
<g>
	<defs>
		<rect id="SVGID_1_" width="512" height="512"/>
	</defs>
	<clipPath id="SVGID_2_">
		<use xlink:href="#SVGID_1_"  overflow="visible"/>
	</clipPath>
	<path clip-path="url(#SVGID_2_)" fill="#3B48B0" d="M311,0c0.9,0.8,2.1,0.9,3.2,1.4c5.7,2.5,8.8,6.9,9.5,13c0.2,1.5,0.1,3,0.1,4.5
		c0,65.3-0.2,130.7,0.1,196c0.1,12.9-6.4,20.9-20.1,19.9c-1.5-0.1-3,0-4.5-0.2c-4-0.7-6.4-3.6-6.3-7.2c0.1-3.6,2.5-6.4,6.6-7
		c1.8-0.3,3.7-0.1,5.5-0.2c1.1,0,2.3,0.2,3.7-0.7V15.1H203.1v204.4c1.9,1,3.8,0.6,5.6,0.6c18.3,0,36.7,0,55,0c1.5,0,3-0.1,4.5,0.1
		c4.3,0.6,6.8,3.4,6.7,7.3c-0.1,3.7-2.4,6.3-6.5,7c-1.5,0.2-3,0.3-4.4,0.4c-1.1,3.6-1.4,42.1-0.5,49.4c1.3,1.6,3.3,2.1,5,3
		c28.1,13.4,56.1,27,84.3,40.2c5.3,2.5,7.5,5.7,7.4,11.5c-0.3,14.5-0.1,29-0.1,43.5c0,2-0.4,4,0.7,6.3h75.1
		c1.3-3.7,1.5-148.6,0.2-153.6c-1.7-0.9-3.6-0.5-5.4-0.5c-12.5,0-25,0-37.5,0c-3.9,0-7.6-0.8-10.8-3.2c-3.7-2.7-5.6-6.5-6.1-11
		c-0.2-1.3-0.1-2.7-0.1-4c0-49.5,0-99,0-148.5c0-2-0.2-4,0.5-5.9c1.2-3.5,3.5-5.2,7.1-5.1c3.3,0.1,5.4,1.8,6.6,5.2
		c0.7,2.1,0.5,4.3,0.5,6.4c0,48.2,0,96.3,0,144.5c0,2.1-0.4,4.3,0.6,6.7h105.1c0.9-4.3,1-199.5,0.1-204.7H391.1
		c-0.6,4.5-0.2,8.8-0.3,13.1c-0.1,1.8,0.1,3.7-0.5,5.4c-1.1,3.1-3.6,5.1-6.6,5.2c-3,0.1-6.2-1.7-6.7-4.9c-1.2-8.2-2-16.6,0.8-24.7
		c1.2-3.6,4.1-6,7.6-7.6C386.6,1.1,388,1,389,0h110c0.9,0.4,1.7,0.9,2.7,1.2c5.6,2,8.3,6.6,10.3,11.8v209
		c-3.3,9.8-10.4,13.3-20.5,12.9c-11.5-0.5-23-0.1-34.5-0.1c-1.8,0-3.7-0.5-5.5,0.8c-0.6,2.1-0.4,4.5-0.4,6.8c0,49.5,0,99,0,148.5
		c0,2,0.1,4-0.1,6c-0.4,4-2.7,6.3-6.6,6.8c-1.3,0.2-2.7,0.1-4,0.1c-24.3,0-48.7,0-73,0c-2.1,0-4.3-0.4-6.5,0.5
		c-1,1.6-0.7,3.5-0.7,5.3c0,9.3,0,18.7,0,28c0,5.7-0.3,11.3,0.1,17c0.4,5.8-1.6,9.7-7.2,11.5c-0.5,0.2-0.9,0.4-1.3,0.6
		c-31.5,15.1-63.1,30.1-94.6,45.2h-2c-1.7-0.8-3.3-1.5-5-2.3c-30.5-14.6-60.9-29.2-91.4-43.6c-4.9-2.3-6.9-5.4-6.8-10.8
		c0.2-15,0.1-30,0.1-45c0-2,0.4-4-0.8-6c-1.8-0.7-3.8-0.4-5.8-0.4c-24.3,0-48.6,0-72.9,0c-1.5,0-3,0.1-4.5-0.1
		c-4.2-0.4-6.5-2.8-6.9-7.1c-0.2-2-0.1-4-0.1-6c0-49.5,0-98.9,0-148.4c0-2.3,0.5-4.7-0.6-6.9c-1.7-1.1-3.6-0.6-5.4-0.6
		c-12.7,0-25.3,0-38,0c-8.2,0-12.8-3.3-16-11.1c-0.2-0.6-0.6-1.2-1-1.7V13c0.4-0.9,0.9-1.7,1.2-2.7C3.2,4.7,7.8,2,13,0h110
		c9.8,3.3,13,10.4,12.9,20.5c-0.3,45-0.1,90-0.1,135c0,2,0.2,4-0.4,6c-1,3.6-3.3,5.5-6.7,5.6c-3.7,0.1-6.3-1.9-7.1-5.7
		c-0.4-1.8-0.4-3.6-0.4-5.5c0-44.8,0-89.6,0-134.5c0-2.1,0.7-4.3-0.7-6.2c-10.5-1-101.8-0.5-105.3,0.6C14,26,14.6,216.3,15.7,219.8
		c9.5,1.1,101.6,0.6,105.2-0.5c0.5-1.8,0.3-3.6,0.3-5.4c0-6.5,0-13,0-19.5c0-3.3,0.9-6.3,4.1-8c5.1-2.6,10.3,1,10.4,7.3
		c0.2,8.7,0.2,17.3,0,26c-0.1,5.3-2.5,9.6-7.1,12.5c-3,2-6.4,2.6-10,2.6c-12.5,0-25,0-37.5,0c-1.8,0-3.7-0.4-5.3,0.5
		c-1.3,5.5-1,150.1,0.3,153.5c7.1,0.9,71.7,0.5,75.4-0.5c0.6-1.7,0.4-3.5,0.4-5.3c0-8.2,0-16.3,0-24.5c0-7,0.2-14,0-21
		c-0.1-4.7,1.8-7.6,6-9.3c0.9-0.4,1.8-0.8,2.7-1.3c27.6-13.2,55.3-26.4,82.9-39.6c1.8-0.8,3.8-1.3,5-3c1-8.2,0.6-45.7-0.5-49.3
		c-1.8-0.6-3.6-0.4-5.4-0.4c-12.7,0-25.3,0.1-38-0.1c-10-0.1-16.1-6.4-16.3-16.3c0-0.8,0-1.7,0-2.5c0-56,0-112,0-168
		c0-10.3-0.1-20.7,0-31c0.1-8.3,3.4-12.9,11-16c0.6-0.2,1.2-0.6,1.7-1H311z M345.6,347.4c-28,13.4-55.1,26.3-81.7,39
		c-1.1,2.3-0.8,4-0.8,5.6c0,6,0,12,0,18c0,25.5,0,51,0,76.5c0,1.9-0.6,4,1.4,5.9c27-12.9,54-25.8,81.1-38.7V347.4z M248.5,387.2
		c-6-4.2-78.4-38.3-82.1-38.6v105.1c27.2,13,54.3,26,82.1,39.1V387.2z M256,374.2c26.4-12.7,52.8-25.1,79.1-37.9
		c-1.2-1.6-2.3-2-3.3-2.5c-24.2-11.6-48.3-23.1-72.5-34.7c-2.6-1.2-4.6-1-7,0.2c-24,11.6-48,23-72,34.5c-1.1,0.5-2.4,0.9-3.4,2.6
		C203.4,349,229.7,361.6,256,374.2"/>
	<path clip-path="url(#SVGID_2_)" fill="#6372EB" d="M256.1,33c20.7,0.1,37,16.5,36.9,37.2c-0.1,20.7-16.7,36.8-37.4,36.8
		c-20.2,0-36.7-17.2-36.7-37C218.9,49.9,235.9,32.5,256.1,33 M248,49.1c-10.8,4-16.4,14.4-14.2,25.7c2.1,10.4,12.3,18.4,22.8,17.9
		c11.9-0.6,20.7-9.1,21.9-21.2c1-9.7-5.7-19.8-14.8-22.2c-1.1,1.6-0.6,3.5-0.7,5.3c-0.1,5.2,0.1,10.3-0.1,15.5
		c-0.2,4.4-2.9,6.9-6.9,6.9c-4.1,0-6.8-2.4-7-6.8c-0.3-5.2-0.1-10.3-0.2-15.5C248.8,52.9,249.3,51,248,49.1"/>
	<path clip-path="url(#SVGID_2_)" fill="#6372EB" d="M481,70.1c-0.1,20.7-16.6,37-37.3,36.9c-20.7-0.1-36.8-16.7-36.8-37.4
		c0-19.9,17-36.7,37.1-36.7C464.3,32.9,481.5,49.9,481,70.1 M436,49.1c-10.9,4-16.5,14.4-14.2,25.7c2.1,10.4,12.3,18.4,22.8,17.9
		c11.9-0.6,20.7-9.1,21.9-21.2c1-9.7-5.6-19.7-14.7-22.1c-1.2,1.4-0.7,3.1-0.7,4.7c-0.1,5.2,0.1,10.3-0.1,15.5
		c-0.2,4.8-2.8,7.4-7,7.4c-4.2,0-6.9-2.5-7.1-7.3c-0.2-4.8,0-9.7-0.1-14.5C436.8,53.2,437.4,51.2,436,49.1"/>
	<path clip-path="url(#SVGID_2_)" fill="#4E5AB8" d="M255.8,139.9c-9,0-18,0-27,0c-1.5,0-3,0-4.5-0.3c-3.2-0.8-5.1-3.3-5.3-6.5
		c-0.2-3.6,1.5-5.9,5-7.1c1.8-0.6,3.6-0.6,5.4-0.6c17.7,0,35.3,0,53,0c1.8,0,3.7,0,5.4,0.6c3.5,1.2,5.2,3.5,5.1,7.1
		c-0.1,3.4-2.3,6-5.7,6.6c-1.5,0.3-3,0.2-4.5,0.2C273.8,139.9,264.8,139.9,255.8,139.9L255.8,139.9z"/>
	<path clip-path="url(#SVGID_2_)" fill="#4E5AB8" d="M443.8,139.9c-9.2,0-18.3,0-27.5,0c-1.7,0-3.3,0.1-4.9-0.6
		c-2.8-1.3-4.4-3.6-4.3-6.7c0-3.2,1.6-5.3,4.6-6.5c1.7-0.6,3.6-0.8,5.4-0.8c18,0,36,0,54,0c1.7,0,3.3,0.1,4.9,0.6
		c3.5,1.2,5.2,3.5,5,7.1c-0.1,3.4-2.3,5.9-5.7,6.6c-1.5,0.3-3,0.2-4.5,0.2C461.8,139.9,452.8,139.9,443.8,139.9L443.8,139.9z"/>
	<path clip-path="url(#SVGID_2_)" fill="#4E5AB8" d="M256.2,169.9c-9.7,0-19.3,0.1-29,0c-5,0-7.8-2.3-8.2-6.3
		c-0.4-3.8,1.3-6.4,5-7.6c1.8-0.6,3.6-0.6,5.4-0.6c17.7,0,35.3,0,53,0c1.8,0,3.7,0,5.4,0.6c3.5,1.2,5.2,3.5,5,7.1
		c-0.1,3.4-2.3,5.9-5.7,6.6c-1.5,0.3-3,0.2-4.5,0.2C273.9,169.9,265.1,169.9,256.2,169.9"/>
	<path clip-path="url(#SVGID_2_)" fill="#4E5AB8" d="M444.1,169.8c-9.7,0-19.3,0.1-29,0c-5.1-0.1-8-2.6-8.1-6.9
		c-0.1-3.4,1.4-5.7,4.6-6.9c1.7-0.6,3.6-0.7,5.4-0.7c18,0,36,0,54,0c1.7,0,3.3,0.1,4.9,0.6c3.5,1.2,5.1,3.6,4.9,7.2
		c-0.2,3.2-2.2,5.7-5.3,6.4c-1.4,0.3-3,0.3-4.5,0.3C462.1,169.9,453.1,169.9,444.1,169.8L444.1,169.8z"/>
	<path clip-path="url(#SVGID_2_)" fill="#4E5AB8" d="M255.5,199.9c-9.5,0-19,0.1-28.5,0c-5-0.1-7.9-2.7-8-7
		c-0.1-3.4,1.5-5.6,4.8-6.8c1.6-0.6,3.2-0.7,4.9-0.7c18.2,0,36.3,0,54.5,0c1.7,0,3.3,0.1,4.9,0.7c3.3,1.1,4.9,3.4,4.8,6.8
		c0,3.2-1.9,5.8-5,6.7c-1.6,0.4-3.3,0.4-4.9,0.4C273.8,199.9,264.7,199.9,255.5,199.9L255.5,199.9z"/>
	<path clip-path="url(#SVGID_2_)" fill="#4E5AB8" d="M444.1,199.8c-9.7,0-19.3,0.1-29,0c-5.1-0.1-7.9-2.7-8-7
		c-0.1-3.4,1.5-5.7,4.7-6.8c1.6-0.6,3.2-0.7,4.9-0.7c18.2,0,36.3,0,54.5,0c1.5,0,3,0.1,4.4,0.5c3.8,1.2,5.6,3.6,5.3,7.4
		c-0.2,3.5-2.6,6-6.4,6.5c-1.5,0.2-3,0.1-4.5,0.1C461.4,199.9,452.7,199.9,444.1,199.8L444.1,199.8z"/>
	<path clip-path="url(#SVGID_2_)" fill="#6372EB" d="M68.2,33c20.7,0.1,36.8,16.7,36.8,37.4c0,19.9-17.1,37-37.5,36.8
		c-20.1-0.2-36.8-17.4-36.6-37.2C31.2,49.2,47.5,32.9,68.2,33 M76,49.1c-1.2,1.8-0.8,3.5-0.8,5.1c-0.1,4.3,0,8.7,0,13
		c0,6.8-2.3,9.8-7.2,9.8c-4.8-0.1-6.9-3-7-10c0-4.3,0-8.7,0-13c0-1.6,0.4-3.3-0.7-4.7c-9.2,2.5-15.8,12.4-14.7,22.2
		c1.3,12.2,10,20.6,22,21.2c10.6,0.5,20.8-7.5,22.8-17.9C92.4,63.4,86.7,53,76,49.1"/>
	<path clip-path="url(#SVGID_2_)" fill="#4E5AB8" d="M67.8,139.8c-9.5,0-19,0.1-28.5,0c-4.9,0-7.8-2.3-8.2-6.3
		c-0.4-3.8,1.3-6.4,5-7.6c1.8-0.6,3.6-0.6,5.4-0.6c17.7,0,35.3,0,53,0c1.8,0,3.7,0,5.4,0.6c3.5,1.2,5.2,3.5,5,7.1
		c-0.1,3.3-2.3,5.9-5.7,6.6c-1.5,0.3-3,0.2-4.5,0.2C85.8,139.9,76.8,139.9,67.8,139.8L67.8,139.8z"/>
	<path clip-path="url(#SVGID_2_)" fill="#4E5AB8" d="M67.8,169.9c-9.2,0-18.3,0-27.5,0c-1.7,0-3.3,0.1-4.9-0.6
		c-2.8-1.3-4.4-3.6-4.3-6.7c0-3.2,1.6-5.3,4.6-6.5c1.7-0.6,3.6-0.8,5.4-0.8c18,0,36,0,54,0c1.7,0,3.3,0.1,4.9,0.6
		c3.5,1.2,5.2,3.5,5,7.1c-0.1,3.4-2.3,5.9-5.7,6.6c-1.5,0.3-3,0.2-4.5,0.2C85.7,169.9,76.8,169.9,67.8,169.9"/>
	<path clip-path="url(#SVGID_2_)" fill="#4E5AB8" d="M67.9,199.9c-9.7,0-19.3,0.1-29,0c-4.8-0.1-7.6-2.6-7.9-6.6
		c-0.2-3.6,1.4-6,4.8-7.2c1.8-0.6,3.6-0.7,5.4-0.7c17.8,0,35.7,0,53.5,0c1.8,0,3.7,0.1,5.4,0.7c3.2,1.2,4.8,3.4,4.7,6.8
		c-0.1,3.2-1.9,5.8-5.1,6.6c-1.4,0.4-3,0.4-4.5,0.4C86.3,199.9,77.1,199.9,67.9,199.9L67.9,199.9z"/>
</g>
</svg>
