<?xml version="1.0" encoding="utf-8"?>
<!-- Generator: Adobe Illustrator 18.0.0, SVG Export Plug-In . SVG Version: 6.00 Build 0)  -->
<!DOCTYPE svg PUBLIC "-//W3C//DTD SVG 1.1//EN" "http://www.w3.org/Graphics/SVG/1.1/DTD/svg11.dtd">
<svg version="1.1" id="Layer_1" xmlns="http://www.w3.org/2000/svg" xmlns:xlink="http://www.w3.org/1999/xlink" x="0px" y="0px"
	 viewBox="0 0 512 512" enable-background="new 0 0 512 512" xml:space="preserve">
<g>
	<defs>
		<rect id="SVGID_1_" width="512" height="512"/>
	</defs>
	<clipPath id="SVGID_2_">
		<use xlink:href="#SVGID_1_"  overflow="visible"/>
	</clipPath>
	<path clip-path="url(#SVGID_2_)" fill="#6372EB" d="M0,169c1.3-0.6,1-2,1.5-3c3.8-8.8,10.3-13.8,19.9-14.3
		c9.1-0.5,16,3.5,20.8,11.3c0.6,1,1.1,2,1.7,3.1h41.8c1.1-2,0.7-3.9,0.7-5.6c0.1-11.7,0-23.3,0.1-35c0-2.2,0.2-4.3,0.5-6.5
		c0.6-3.9,2.8-6.7,6.5-8.2c2.5-1,5-1.8,7.6-2.5c23.9-5.9,46.2-15.7,67.6-27.7c11.5-6.4,22.7-13.2,35.2-17.7
		c38.2-13.8,76-12.7,113.3,3.6c9.3,4.1,17.9,9.5,26.8,14.4c4.8,2.7,9.6,5.2,14.5,7.8c1.2-3.5,1.5-38.5,0.5-44.9
		c-0.9-0.5-1.9-1-2.9-1.6c-7.8-4.7-11.8-11.6-11.3-20.8c0.5-9.6,5.6-16.1,14.3-19.9c1-0.4,2.4-0.2,3-1.5h10c0.6,1.3,2,1,3,1.5
		c8.8,3.8,13.8,10.3,14.3,19.9c0.5,9.2-3.5,16-11.3,20.8c-1,0.6-2,1.1-3.2,1.8v52.2c11.3,4.5,22.6,8.9,34.4,11.8
		c2.7,0.7,5.5,1.3,8.2,2.2c4.4,1.6,7.2,4.7,7.8,9.5c0.2,1.5,0.4,3,0.4,4.5c0,21.3,0,42.7,0,64c0,1.8-0.1,3.7-0.5,5.4
		c-0.8,3.3-3.5,5.4-6.8,5.5c-3.6,0.1-6.4-2-7.4-5.5c-0.6-2.3-0.5-4.6-0.5-7c0-19,0-38,0-57c0-1.8,0.3-3.7-0.6-5.7
		c-4.8-1.4-9.8-2.6-14.7-4.2c-21.5-6.7-41.9-16.1-61.5-27.2c-9.7-5.5-19.2-11.3-29.8-15.1c-38.3-13.8-75.5-11.6-111.6,7.4
		c-12.7,6.7-24.8,14.2-37.9,20.2c-14.8,6.9-30,12.8-45.8,17c-2.1,0.5-4.1,1.2-5.9,1.7c-1.5,1.8-1,3.5-1,5.1c0,42.8,0,85.7,0,128.5
		c0,13.4,1,26.6,4.1,39.7c4.2,17.7,11,34.2,21.2,49.3c0.9,1.4,1.8,2.8,2.5,4.3c1.5,3.4,0.5,6.8-2.3,8.9c-2.8,2.1-6.2,2-9.2-0.4
		c-1.2-0.9-2-2.2-2.9-3.4c-13.6-20-22.1-42-26.1-65.8c-2.2-12.9-2.4-25.9-2.6-38.8c0-3.5,0-7,0-11c-6.6-0.6-12.9-0.2-18.8-0.2
		c-8.1,12.7-17,17-27.8,14c-9.5-2.7-16.4-11.5-16.5-21.4c-0.2-9.8,6.5-18.8,16.1-21.7c10.9-3.3,19.8,0.9,28.1,13.6H86v-42.2H43.9
		c-0.6,1.1-1.1,2.1-1.7,3.1c-4.7,7.8-11.6,11.9-20.8,11.3c-9.6-0.5-16.1-5.5-19.9-14.3c-0.4-1-0.2-2.4-1.5-3V169z M53,231.9
		c-0.1-4.1-3.3-7.1-7.4-7.1c-4,0.1-7.3,3.4-7.2,7.3c0.1,4,3.4,7.1,7.5,7.1C50,239.1,53.1,236,53,231.9 M367,15.1
		c-3.9,0-7.2,3.4-7.2,7.4c0,4,3.3,7.4,7.2,7.4c3.9,0,7.2-3.4,7.2-7.4S370.9,15.1,367,15.1 M22.7,166.8c-4-0.1-7.4,3-7.6,7
		c-0.2,3.9,3.1,7.3,7.1,7.4c4,0.1,7.4-3,7.6-7C30,170.3,26.7,166.9,22.7,166.8"/>
	<path clip-path="url(#SVGID_2_)" fill="#6372EB" d="M512,245c-1.3,0.6-1,2-1.5,3c-3.8,8.8-10.3,13.8-19.9,14.3
		c-9.1,0.5-16-3.5-20.8-11.3c-0.3-0.6-0.6-1.2-0.9-1.8c-0.2-0.4-0.6-0.8-0.9-1.3h-42.2c-0.5,14-0.2,27.8-2.8,41.4
		c3.5,1.3,15.7,1.5,21.8,0.6c7.6-12.2,16.7-16.6,27.5-13.5c9.5,2.7,16.4,11.6,16.5,21.5c0.1,9.7-6.6,18.7-16.2,21.7
		c-10.9,3.3-19.5-0.8-28.1-13.6h-24.8c-2.9,7.5-4.7,15.1-7.8,22.3c-6.7,15.6-15.5,29.8-26.7,42.5c-29.7,34-65.3,60.1-106.2,79
		c-5.4,2.5-11,4.7-16.5,7.1c-4.4,1.9-8.6,1.8-13.1,0c-20.4-8.3-40-18.1-58.4-30.2c-1.8-1.2-3.5-2.6-6-3.3v44.9c1,0.6,2,1.1,3,1.7
		c7.8,4.7,11.8,11.6,11.3,20.8c-0.5,9.6-5.6,16.1-14.3,19.9c-1,0.4-2.4,0.2-3,1.5h-10c-0.6-1.2-2-1-3-1.5
		c-8.8-3.8-13.8-10.3-14.3-19.9c-0.5-9.1,3.5-16,11.3-20.8c0.6-0.3,1.2-0.6,1.8-0.9c0.4-0.2,0.8-0.6,1.4-1v-56.3
		c-0.6-1.5-2-2.3-3.1-3.2c-9.6-7.7-18.6-16.1-27.4-24.9c-1.2-1.2-2.4-2.3-3.3-3.7c-2-3.1-1.5-6.6,1-9.1c2.4-2.4,6.1-2.9,9.2-1
		c1.4,0.9,2.7,2,3.8,3.2c25.8,26.6,55.9,47.2,89.4,62.8c5.6,2.6,11.3,4.8,17,7.3c12.1-4.5,23.7-9.9,34.9-16
		c30.8-16.6,57.9-37.9,81.2-64c17.8-20,29.4-43,34.9-69.1c2.6-12.1,3.5-24.4,3.5-36.7c0-9.8,0-19.7,0-29.5c0-1.8,0.1-3.7,0.5-5.5
		c0.7-3.5,3.7-5.9,7-6c3.5-0.1,6.7,2.4,7.3,6.2c0.5,2.9,0.5,6,0.8,9.6c14,0.7,28.1,0,42,0.3c0.7-1.3,1.2-2.1,1.7-3
		c4.8-8.3,11.9-12.4,21.5-11.7c9.6,0.7,16,5.9,19.6,14.7c0.4,0.9,0.2,2,1.3,2.6V245z M473.6,297.9c-0.1-4-3.3-7.1-7.4-7.1
		c-4.1,0-7.2,3.2-7.2,7.3c0,4.1,3.2,7.2,7.3,7.1C470.3,305.2,473.6,301.8,473.6,297.9 M489.3,232.8c-4,0.1-7.3,3.5-7.2,7.4
		c0.1,3.9,3.5,7.1,7.6,7c4-0.1,7.3-3.5,7.2-7.4C496.7,235.9,493.3,232.7,489.3,232.8 M184.2,489.5c0-4-3.3-7.4-7.2-7.4
		c-3.9,0-7.2,3.3-7.2,7.3c0,4,3.3,7.4,7.2,7.4C180.9,496.9,184.2,493.5,184.2,489.5"/>
	<path clip-path="url(#SVGID_2_)" fill="#4E5AB8" d="M132.2,146.4c-0.8,2.1-0.5,3.8-0.5,5.5c0,35.2,0,70.3,0,105.5
		c0,18.2,2.7,35.8,9.8,52.6c5.2,12.4,12.5,23.4,21.4,33.5c18.5,20.7,39.7,37.9,63.5,52c9.5,5.6,19.2,10.6,29.5,15
		c5.2-1.8,10-4.3,14.9-6.8c30.7-15.7,57.7-36.4,80.4-62.5c15.7-18.1,24.8-39.2,28-62.9c1-7.8,1.2-15.6,1.2-23.4c0.1-34,0-68,0-102
		c0-2,0.3-4-0.3-5.8c-0.6-1.1-1.7-1.3-2.6-1.6c-22.8-7.8-44.2-18.3-65-30.5c-13.1-7.6-26.8-13.3-41.9-15.3c-15.7-2-31.2-0.9-46.4,4
		c-7.7,2.5-14.8,5.9-21.9,9.7c-1.5,0.8-2.9,1.6-4.6,1.9c-3.4,0.5-6.3-1-7.9-4c-1.5-2.9-1.1-5.9,1.2-8.3c1.1-1.2,2.6-2.1,4-2.9
		c39.3-21.8,79-22.7,118.7-1.6c17.6,9.3,34.8,19.6,53.4,26.9c5.9,2.3,11.9,4.4,17.8,6.6c8.1,3,10.5,6.2,10.6,14.8
		c0,37.3,0.1,74.6,0,112c-0.1,20-3.3,39.4-11.4,57.9c-5.4,12.3-12.3,23.6-21.1,33.8c-28,32.2-61.7,56.7-100.6,73.9
		c-4.5,2-8.5,1.9-12.9,0c-39-17.3-72.8-41.5-100.7-73.9c-17.5-20.4-27.7-44.1-31.1-70.7c-1.2-9.3-1.5-18.6-1.5-27.9
		c0-33.8,0-67.7,0-101.5c0-1.3,0-2.7,0-4c0.2-8.1,2.4-11.5,10.1-14.1c13.1-4.5,25.8-9.8,38.3-15.7c1.2-0.6,2.4-1.1,3.7-1.4
		c3.4-0.8,6.9,0.9,8.3,4c1.5,3.1,0.8,6.8-2.1,9c-1.3,1-2.8,1.7-4.3,2.4c-10.9,5-21.8,10-33.2,13.8
		C135.6,145,133.9,145.7,132.2,146.4"/>
	<path clip-path="url(#SVGID_2_)" fill="#3B48B0" d="M218.1,225c0.6-5.9,0.2-11.4,0.7-16.9c1.5-16.1,16.4-30.7,32.5-32.4
		c17.5-1.8,32,7.7,38.5,21.1c3,6.1,3.7,12.7,3.8,19.4c0.1,2.8,0,5.6,0,8.1c2,1.2,3.7,1.1,5.3,1.4c7.6,1.3,13.2,7.1,14.2,14.7
		c0.2,1.6,0.4,3.3,0.4,5c0,18.1,0,36.3,0,54.4c0,1.7-0.1,3.3-0.3,5c-1.1,8.4-6.9,14.3-15.2,15.3c-3.3,0.4-6.6,0.4-10,0.4
		c-22.8,0-45.6,0-68.4-0.1c-2.2,0-4.3-0.1-6.5-0.4c-7.6-1.1-13.4-7-14.4-14.5c-0.3-2.3-0.4-4.6-0.4-7c0-17.2,0-34.3,0-51.5
		c0-2.2,0.1-4.3,0.4-6.5c1-7.9,6.7-13.7,14.5-15C214.7,225.6,216.2,225.3,218.1,225 M214.4,304.5c5.8,1.5,79.5,1.2,83.3-0.3
		c0.7-1.2,0.6-2.6,0.6-3.9c0-18.2,0-36.3,0-54.5c0-1.6,0.2-3.4-1.2-4.6c-5.8-1.1-79-0.8-82.7,0.4C213.4,245.6,213.2,299,214.4,304.5
		 M234,225h44.1c0.4-4.9,0.4-9.6,0-14.2c-1-11-9.6-19.4-20.6-20c-11.1-0.7-21.1,6.5-23.2,17.1C233.1,213.4,233.4,219.1,234,225"/>
	<path clip-path="url(#SVGID_2_)" fill="#3B48B0" d="M263.5,287.2c0,2.7,0.2,5.3,0,8c-0.4,4.8-3.5,7.8-7.5,7.8c-4,0-7.1-3-7.5-7.8
		c-0.2-2.6,0-5.3,0-8.3c-6.8-2.9-11.8-7.6-14-14.7c-1.4-4.7-1.3-9.5,0.4-14.2c3.3-9.4,12.4-15.5,22.4-15c9.7,0.5,18.1,7.4,20.6,16.8
		C280.6,270.7,276,279.8,263.5,287.2 M256.1,258.2c-3.9-0.1-7.3,3.2-7.3,7.2c-0.1,4,3.2,7.4,7.1,7.5c3.9,0.1,7.3-3.2,7.3-7.2
		C263.3,261.7,260,258.3,256.1,258.2"/>
</g>
</svg>
