<svg width="116" height="16" viewBox="0 0 116 16" fill="none" xmlns="http://www.w3.org/2000/svg">
<path d="M2.53516 13.4668H9.27344V15H0.650391V0.78125H2.53516V13.4668ZM17.2227 13.9551C16.5195 14.7819 15.4876 15.1953 14.127 15.1953C13.0007 15.1953 12.1413 14.8698 11.5488 14.2188C10.9629 13.5612 10.6667 12.5911 10.6602 11.3086V4.43359H12.4668V11.2598C12.4668 12.8613 13.1178 13.6621 14.4199 13.6621C15.8001 13.6621 16.7181 13.1478 17.1738 12.1191V4.43359H18.9805V15H17.2617L17.2227 13.9551ZM28.2578 13.9551C27.5547 14.7819 26.5228 15.1953 25.1621 15.1953C24.0358 15.1953 23.1764 14.8698 22.584 14.2188C21.998 13.5612 21.7018 12.5911 21.6953 11.3086V4.43359H23.502V11.2598C23.502 12.8613 24.153 13.6621 25.4551 13.6621C26.8353 13.6621 27.7533 13.1478 28.209 12.1191V4.43359H30.0156V15H28.2969L28.2578 13.9551ZM43.5117 10.4883C43.3359 11.9922 42.7793 13.1543 41.8418 13.9746C40.9108 14.7884 39.6706 15.1953 38.1211 15.1953C36.4414 15.1953 35.0938 14.5931 34.0781 13.3887C33.069 12.1842 32.5645 10.5729 32.5645 8.55469V7.1875C32.5645 5.86589 32.7988 4.70378 33.2676 3.70117C33.7428 2.69857 34.4134 1.93034 35.2793 1.39648C36.1452 0.85612 37.1478 0.585938 38.2871 0.585938C39.7975 0.585938 41.0085 1.00911 41.9199 1.85547C42.8314 2.69531 43.362 3.86068 43.5117 5.35156H41.627C41.4642 4.21875 41.1094 3.39844 40.5625 2.89062C40.0221 2.38281 39.2637 2.12891 38.2871 2.12891C37.0892 2.12891 36.1484 2.57161 35.4648 3.45703C34.7878 4.34245 34.4492 5.60221 34.4492 7.23633V8.61328C34.4492 10.1562 34.7715 11.3835 35.416 12.2949C36.0605 13.2064 36.9622 13.6621 38.1211 13.6621C39.1628 13.6621 39.9603 13.4277 40.5137 12.959C41.0736 12.4837 41.4447 11.6602 41.627 10.4883H43.5117ZM45.3184 9.61914C45.3184 8.58398 45.5202 7.65299 45.9238 6.82617C46.334 5.99935 46.9004 5.36133 47.623 4.91211C48.3522 4.46289 49.1823 4.23828 50.1133 4.23828C51.5521 4.23828 52.7142 4.73633 53.5996 5.73242C54.4915 6.72852 54.9375 8.05339 54.9375 9.70703V9.83398C54.9375 10.8626 54.7389 11.7871 54.3418 12.6074C53.9512 13.4212 53.388 14.056 52.6523 14.5117C51.9232 14.9674 51.0833 15.1953 50.1328 15.1953C48.7005 15.1953 47.5384 14.6973 46.6465 13.7012C45.7611 12.7051 45.3184 11.3867 45.3184 9.74609V9.61914ZM47.1348 9.83398C47.1348 11.0059 47.4049 11.9466 47.9453 12.6562C48.4922 13.3659 49.2214 13.7207 50.1328 13.7207C51.0508 13.7207 51.7799 13.3626 52.3203 12.6465C52.8607 11.9238 53.1309 10.9147 53.1309 9.61914C53.1309 8.46029 52.8542 7.52279 52.3008 6.80664C51.7539 6.08398 51.0247 5.72266 50.1133 5.72266C49.2214 5.72266 48.502 6.07747 47.9551 6.78711C47.4082 7.49674 47.1348 8.51237 47.1348 9.83398ZM59.166 15H57.3594V4.43359H59.166V15ZM57.2129 1.63086C57.2129 1.33789 57.3008 1.09049 57.4766 0.888672C57.6589 0.686849 57.9258 0.585938 58.2773 0.585938C58.6289 0.585938 58.8958 0.686849 59.0781 0.888672C59.2604 1.09049 59.3516 1.33789 59.3516 1.63086C59.3516 1.92383 59.2604 2.16797 59.0781 2.36328C58.8958 2.55859 58.6289 2.65625 58.2773 2.65625C57.9258 2.65625 57.6589 2.55859 57.4766 2.36328C57.3008 2.16797 57.2129 1.92383 57.2129 1.63086ZM63.7754 4.43359L63.834 5.76172C64.6413 4.74609 65.696 4.23828 66.998 4.23828C69.2311 4.23828 70.3574 5.49805 70.377 8.01758V15H68.5703V8.00781C68.5638 7.24609 68.388 6.68294 68.043 6.31836C67.7044 5.95378 67.1738 5.77148 66.4512 5.77148C65.8652 5.77148 65.3509 5.92773 64.9082 6.24023C64.4655 6.55273 64.1204 6.96289 63.873 7.4707V15H62.0664V4.43359H63.7754ZM73.1406 14.0527C73.1406 13.7402 73.2318 13.4798 73.4141 13.2715C73.6029 13.0632 73.8828 12.959 74.2539 12.959C74.625 12.959 74.9049 13.0632 75.0938 13.2715C75.2891 13.4798 75.3867 13.7402 75.3867 14.0527C75.3867 14.3522 75.2891 14.6029 75.0938 14.8047C74.9049 15.0065 74.625 15.1074 74.2539 15.1074C73.8828 15.1074 73.6029 15.0065 73.4141 14.8047C73.2318 14.6029 73.1406 14.3522 73.1406 14.0527ZM82.6133 13.7207C83.2578 13.7207 83.821 13.5254 84.3027 13.1348C84.7845 12.7441 85.0514 12.2559 85.1035 11.6699H86.8125C86.7799 12.2754 86.5716 12.8516 86.1875 13.3984C85.8034 13.9453 85.2891 14.3815 84.6445 14.707C84.0065 15.0326 83.3294 15.1953 82.6133 15.1953C81.1745 15.1953 80.0286 14.7168 79.1758 13.7598C78.3294 12.7962 77.9062 11.4811 77.9062 9.81445V9.51172C77.9062 8.48307 78.0951 7.56836 78.4727 6.76758C78.8503 5.9668 79.3906 5.34505 80.0938 4.90234C80.8034 4.45964 81.64 4.23828 82.6035 4.23828C83.7884 4.23828 84.7715 4.5931 85.5527 5.30273C86.3405 6.01237 86.7604 6.93359 86.8125 8.06641H85.1035C85.0514 7.38281 84.791 6.82292 84.3223 6.38672C83.86 5.94401 83.2871 5.72266 82.6035 5.72266C81.6855 5.72266 80.9727 6.05469 80.4648 6.71875C79.9635 7.3763 79.7129 8.33008 79.7129 9.58008V9.92188C79.7129 11.1393 79.9635 12.0768 80.4648 12.7344C80.9661 13.3919 81.6823 13.7207 82.6133 13.7207ZM88.3652 9.61914C88.3652 8.58398 88.5671 7.65299 88.9707 6.82617C89.3809 5.99935 89.9473 5.36133 90.6699 4.91211C91.3991 4.46289 92.2292 4.23828 93.1602 4.23828C94.599 4.23828 95.7611 4.73633 96.6465 5.73242C97.5384 6.72852 97.9844 8.05339 97.9844 9.70703V9.83398C97.9844 10.8626 97.7858 11.7871 97.3887 12.6074C96.998 13.4212 96.4349 14.056 95.6992 14.5117C94.9701 14.9674 94.1302 15.1953 93.1797 15.1953C91.7474 15.1953 90.5853 14.6973 89.6934 13.7012C88.8079 12.7051 88.3652 11.3867 88.3652 9.74609V9.61914ZM90.1816 9.83398C90.1816 11.0059 90.4518 11.9466 90.9922 12.6562C91.5391 13.3659 92.2682 13.7207 93.1797 13.7207C94.0977 13.7207 94.8268 13.3626 95.3672 12.6465C95.9076 11.9238 96.1777 10.9147 96.1777 9.61914C96.1777 8.46029 95.901 7.52279 95.3477 6.80664C94.8008 6.08398 94.0716 5.72266 93.1602 5.72266C92.2682 5.72266 91.5488 6.07747 91.002 6.78711C90.4551 7.49674 90.1816 8.51237 90.1816 9.83398ZM101.949 4.43359L101.998 5.60547C102.773 4.69401 103.818 4.23828 105.133 4.23828C106.611 4.23828 107.617 4.80469 108.15 5.9375C108.502 5.42969 108.958 5.01953 109.518 4.70703C110.084 4.39453 110.751 4.23828 111.52 4.23828C113.837 4.23828 115.016 5.46549 115.055 7.91992V15H113.248V8.02734C113.248 7.27214 113.076 6.70898 112.73 6.33789C112.385 5.96029 111.806 5.77148 110.992 5.77148C110.322 5.77148 109.765 5.97331 109.322 6.37695C108.88 6.77409 108.622 7.3112 108.551 7.98828V15H106.734V8.07617C106.734 6.53971 105.982 5.77148 104.479 5.77148C103.294 5.77148 102.483 6.27604 102.047 7.28516V15H100.24V4.43359H101.949Z" fill="black"/>
</svg>
