<svg xmlns="http://www.w3.org/2000/svg" xmlns:xlink="http://www.w3.org/1999/xlink" preserveAspectRatio="xMidYMid" width="628.344" height="514.28" viewBox="0 0 628.344 514.28">
  <defs>
    <style>
      .cls-1 {
        stroke: #fff;
      }

      .cls-1, .cls-4 {
        stroke-width: 2px;
        fill: none;
      }

      .cls-1, .cls-2, .cls-4, .cls-5 {
        fill-rule: evenodd;
      }

      .cls-2 {
        fill: #dd3e5d;
      }

      .cls-3 {
        fill: #5bc489;
      }

      .cls-4 {
        stroke: #292a33;
      }

      .cls-5, .cls-6 {
        fill: #fff;
      }

      .cls-7 {
        fill: #5cc689;
      }
    </style>
  </defs>
  <g>
    <path d="M427.554,51.012 L427.046,63.426 L415.903,69.199 L405.269,62.557 L405.777,50.143 L416.919,44.370 L427.554,51.012 Z" class="cls-1"/>
    <path d="M25.617,234.103 L29.955,248.896 L19.314,260.049 L4.334,256.410 L-0.004,241.617 L10.637,230.464 L25.617,234.103 Z" class="cls-2"/>
    <circle cx="158.344" cy="507.28" r="7" class="cls-3"/>
    <path d="M456.064,461.480 L447.452,457.670 L446.445,448.307 L454.050,442.754 L462.662,446.563 L463.669,455.926 L456.064,461.480 Z" class="cls-2"/>
    <path d="M576.148,423.641 L594.979,410.082 L608.537,428.914 L589.706,442.472 L576.148,423.641 Z" class="cls-4"/>
    <path d="M591.066,7.780 L598.844,0.002 L606.622,7.780 L598.844,15.558 L591.066,7.780 Z" class="cls-5"/>
    <circle cx="583.844" cy="95.78" r="3.5" class="cls-6"/>
    <circle cx="618.844" cy="221.78" r="9.5" class="cls-7"/>
    <circle cx="289.361" cy="110.17" r="26.423" class="cls-7"/>
  </g>
</svg>
