<svg xmlns="http://www.w3.org/2000/svg" xmlns:xlink="http://www.w3.org/1999/xlink" version="1.1" x="0px" y="0px" viewBox="206 206 100 125" enable-background="new 206 206 100 100" xml:space="preserve"><g><path stroke="#cce3ad" d="M293.764,266.549c-1.035,0-1.875,0.841-1.875,1.874c0,0.102,0.01,0.2,0.024,0.296l-4.488,1.204l-10.271-5.932   c0.142-0.319,0.273-0.647,0.396-0.975c0.004-0.006,0.007-0.013,0.009-0.02c0.118-0.312,0.225-0.627,0.327-0.939l1.899,1.095   c0.007,0.006,0.014,0.01,0.022,0.016l4.541,2.621c0.04,0.021,0.082,0.033,0.125,0.033c0.087,0,0.171-0.046,0.218-0.125l3.274-5.665   c0.218,0.089,0.456,0.139,0.705,0.139c1.034,0,1.876-0.843,1.876-1.876c0-1.034-0.842-1.874-1.876-1.874   c-1.033,0-1.875,0.84-1.875,1.874c0,0.604,0.289,1.142,0.733,1.483l-3.147,5.448l-4.301-2.481   c-0.007-0.005-0.014-0.011-0.022-0.015l-2.02-1.167c0.654-2.157,0.989-4.404,0.989-6.68c0-0.515-0.017-1.032-0.05-1.535   c-0.065-0.957-0.188-1.897-0.363-2.804l2.979-1.72l2.646,4.585c-0.324,0.249-0.558,0.594-0.666,0.997   c-0.129,0.483-0.063,0.99,0.188,1.423c0.335,0.579,0.959,0.938,1.626,0.938c0.327,0,0.651-0.088,0.937-0.252   c0.896-0.517,1.204-1.667,0.686-2.561c-0.333-0.579-0.956-0.939-1.625-0.939c-0.243,0-0.483,0.048-0.708,0.141l-2.772-4.802   c-0.033-0.058-0.088-0.101-0.152-0.118c-0.065-0.017-0.135-0.008-0.191,0.026l-3.051,1.761c-0.057-0.265-0.115-0.528-0.182-0.787   c-0.11-0.446-0.243-0.905-0.391-1.362l6.008-3.469l5.586,1.502c-0.071,0.417-0.003,0.857,0.225,1.25   c0.334,0.579,0.956,0.938,1.624,0.938c0.329,0,0.653-0.087,0.938-0.252c0.895-0.517,1.203-1.666,0.687-2.562   c-0.335-0.577-0.958-0.937-1.628-0.937c-0.326,0-0.648,0.086-0.934,0.25c-0.346,0.2-0.603,0.495-0.761,0.832l-5.707-1.535   c-0.063-0.017-0.132-0.008-0.19,0.025l-6.005,3.469c-0.062-0.174-0.124-0.35-0.191-0.532c-0.277-0.747-0.597-1.48-0.946-2.182   l1.933-1.115c0.344,0.441,0.879,0.728,1.481,0.728c1.034,0,1.874-0.84,1.874-1.874s-0.84-1.876-1.874-1.876   c-1.033,0-1.876,0.842-1.876,1.876c0,0.251,0.052,0.492,0.142,0.709l-1.906,1.103c-0.044-0.082-0.085-0.163-0.128-0.245   c-0.458-0.851-0.972-1.669-1.53-2.448l9.661-5.58c0.057-0.033,0.101-0.089,0.118-0.153l1.233-4.602   c0.059,0.005,0.118,0.008,0.179,0.008c1.034,0,1.874-0.841,1.874-1.876c0-1.034-0.84-1.875-1.874-1.875s-1.876,0.841-1.876,1.875   c0,0.799,0.502,1.479,1.207,1.75l-1.203,4.488l-9.614,5.552c-0.401-0.541-0.839-1.076-1.313-1.603l5.809-3.353   c0.058-0.033,0.101-0.089,0.117-0.153c0.017-0.065,0.009-0.134-0.025-0.191l-3.271-5.667c0.441-0.342,0.727-0.877,0.727-1.479   c0-1.034-0.84-1.875-1.876-1.875c-1.033,0-1.874,0.84-1.874,1.875c0,1.035,0.841,1.876,1.874,1.876   c0.254,0,0.493-0.051,0.714-0.141l3.146,5.445l-5.688,3.284c-2.717-2.9-6.138-5.049-9.91-6.229v-2.841h5.294   c0.122,0.916,0.907,1.625,1.857,1.625c1.033,0,1.874-0.841,1.874-1.875s-0.841-1.876-1.874-1.876c-0.949,0-1.733,0.708-1.857,1.623   h-5.546c-0.14,0-0.251,0.112-0.251,0.252v2.936c-0.103-0.028-0.199-0.057-0.293-0.082c-0.602-0.166-1.227-0.307-1.856-0.424v-6.423   l4.093-4.087c0.326,0.27,0.742,0.433,1.197,0.433c1.033,0,1.874-0.842,1.874-1.876s-0.841-1.876-1.874-1.876   c-1.036,0-1.876,0.842-1.876,1.876c0,0.399,0.126,0.769,0.339,1.072l-4.182,4.177c-0.047,0.047-0.074,0.111-0.074,0.178v6.438   c-0.024-0.003-0.05-0.008-0.074-0.012c-0.942-0.151-1.896-0.24-2.844-0.274v-1.82c0.915-0.124,1.622-0.908,1.622-1.857   c0-1.034-0.84-1.875-1.873-1.875c-1.034,0-1.876,0.841-1.876,1.875c0,0.95,0.71,1.733,1.624,1.857v1.807   c-0.105-0.002-0.21-0.003-0.315-0.003c-0.945,0-1.901,0.059-2.842,0.173c-0.002,0-0.002,0-0.003,0v-10.843   c0-0.067-0.027-0.13-0.074-0.178l-3.371-3.369c0.22-0.307,0.349-0.682,0.349-1.088c0-1.033-0.841-1.874-1.875-1.874   s-1.876,0.841-1.876,1.874c0,1.034,0.842,1.876,1.876,1.876c0.448,0,0.859-0.159,1.181-0.421l3.286,3.284v10.809   c-0.616,0.089-1.23,0.204-1.833,0.342c-0.07,0.017-0.139,0.034-0.209,0.051v-6.468c0-0.14-0.113-0.252-0.251-0.252h-6.543   c-0.125-0.915-0.909-1.621-1.855-1.621c-1.034,0-1.876,0.84-1.876,1.874c0,1.035,0.842,1.876,1.876,1.876   c0.948,0,1.733-0.71,1.855-1.626h6.291v6.344c-3.826,1.01-7.339,3.005-10.187,5.786l-2.623-1.516l2.645-4.584   c0.227,0.094,0.469,0.143,0.711,0.143c0.67,0,1.292-0.361,1.626-0.939c0.251-0.433,0.316-0.938,0.188-1.423   c-0.129-0.482-0.44-0.887-0.874-1.138c-0.284-0.164-0.607-0.251-0.937-0.251c-0.667,0-1.29,0.359-1.624,0.938   c-0.475,0.82-0.254,1.853,0.475,2.418l-2.772,4.804c-0.069,0.121-0.029,0.273,0.092,0.344l2.723,1.572   c-0.51,0.518-1.002,1.069-1.462,1.636l-5.793-3.346l-1.493-5.589c0.712-0.267,1.223-0.951,1.223-1.755   c0-1.034-0.843-1.876-1.876-1.876c-1.034,0-1.876,0.842-1.876,1.876s0.842,1.875,1.876,1.875c0.055,0,0.109-0.003,0.161-0.008   l1.525,5.71c0.017,0.064,0.061,0.119,0.118,0.153l5.822,3.36c-0.563,0.727-1.083,1.487-1.545,2.266   c-0.032,0.052-0.063,0.104-0.094,0.158l-1.889-1.091c0.091-0.219,0.141-0.458,0.141-0.709c0-1.034-0.843-1.876-1.876-1.876   c-1.033,0-1.874,0.842-1.874,1.876c0,1.033,0.84,1.874,1.874,1.874c0.603,0,1.138-0.287,1.482-0.73l1.895,1.092   c-0.435,0.777-0.831,1.589-1.173,2.418c-0.067,0.165-0.126,0.312-0.182,0.453l-9.797-5.658c-0.057-0.034-0.125-0.042-0.191-0.025   l-4.604,1.233c-0.297-0.645-0.948-1.096-1.703-1.096c-1.035,0-1.876,0.841-1.876,1.876c0,1.034,0.841,1.874,1.876,1.874   c1.034,0,1.874-0.84,1.874-1.874c0-0.102-0.01-0.201-0.025-0.297l4.488-1.203l9.781,5.648c-0.154,0.425-0.302,0.863-0.435,1.309   c-0.069,0.23-0.131,0.46-0.191,0.688l-6.079-3.51c-0.057-0.034-0.126-0.042-0.191-0.026c-0.064,0.018-0.119,0.061-0.153,0.118   l-3.27,5.666c-0.218-0.091-0.457-0.141-0.708-0.141c-1.034,0-1.875,0.842-1.875,1.876c0,1.033,0.84,1.874,1.875,1.874   c1.034,0,1.875-0.841,1.875-1.874c0-0.604-0.289-1.14-0.731-1.484l3.144-5.448l5.986,3.457c-0.301,1.253-0.495,2.54-0.581,3.827   c-0.034,0.507-0.051,1.024-0.051,1.535c0,1.932,0.242,3.846,0.711,5.688l-3.277,1.894l-2.646-4.585   c0.729-0.564,0.951-1.598,0.478-2.419c-0.334-0.579-0.958-0.938-1.626-0.938c-0.327,0-0.651,0.087-0.936,0.252   c-0.433,0.25-0.744,0.654-0.873,1.139c-0.131,0.483-0.064,0.988,0.186,1.421c0.334,0.578,0.958,0.939,1.626,0.939   c0.243,0,0.483-0.049,0.708-0.142l2.772,4.802c0.033,0.059,0.089,0.102,0.152,0.118c0.022,0.006,0.043,0.009,0.066,0.009   c0.043,0,0.087-0.012,0.125-0.034l3.376-1.951c0.178,0.639,0.386,1.283,0.625,1.92c0.002,0.007,0.005,0.014,0.008,0.02l0.002,0.004   c0.017,0.047,0.036,0.095,0.054,0.141l-6.45,3.724l-5.588-1.5c0.017-0.103,0.029-0.207,0.029-0.314   c0-1.033-0.841-1.875-1.874-1.875c-1.036,0-1.876,0.842-1.876,1.875c0,1.034,0.84,1.875,1.876,1.875   c0.748,0,1.396-0.443,1.694-1.081l5.708,1.533c0.022,0.006,0.043,0.009,0.065,0.009c0.043,0,0.087-0.012,0.126-0.033l6.48-3.741   c0.346,0.843,0.744,1.674,1.188,2.471c0.03,0.054,0.062,0.105,0.092,0.16l-2.55,1.471c-0.344-0.442-0.879-0.728-1.481-0.728   c-1.034,0-1.875,0.84-1.875,1.874c0,1.033,0.841,1.875,1.875,1.875c1.033,0,1.876-0.842,1.876-1.875   c0-0.252-0.051-0.492-0.141-0.71l2.552-1.476c0.217,0.363,0.443,0.724,0.687,1.083c0.002,0.004,0.322,0.418,0.822,1.128   c0.087,0.126,0.183,0.264,0.282,0.409l-10.44,6.024c-0.058,0.034-0.101,0.09-0.117,0.153l-1.234,4.604   c-0.059-0.006-0.117-0.01-0.178-0.01c-1.035,0-1.876,0.842-1.876,1.875c0,1.035,0.841,1.876,1.876,1.876   c1.034,0,1.874-0.841,1.874-1.876c0-0.797-0.501-1.478-1.207-1.749l1.203-4.488l10.38-5.992c0.223,0.333,0.461,0.697,0.711,1.092   c0.127,0.201,0.259,0.412,0.393,0.629l-6.366,3.675c-0.058,0.033-0.101,0.089-0.117,0.152c-0.017,0.065-0.009,0.132,0.025,0.19   l3.272,5.668c-0.441,0.343-0.727,0.876-0.727,1.478c0,1.035,0.842,1.876,1.875,1.876c1.034,0,1.875-0.841,1.875-1.876   c0-1.033-0.84-1.875-1.875-1.875c-0.253,0-0.495,0.051-0.715,0.144l-3.144-5.447l6.158-3.555c0.094,0.157,0.19,0.316,0.287,0.483   c1.608,2.743,3.631,6.823,4.227,10.776c-0.727,0.453-1.172,1.244-1.172,2.106v0.221c0,0.982,0.574,1.829,1.402,2.232   c-0.828,0.402-1.402,1.25-1.402,2.231v0.223c0,1.37,1.114,2.482,2.484,2.482h4.253c-0.601,0.454-0.99,1.171-0.99,1.979v0.223   c0,1.37,1.113,2.482,2.481,2.482h9.521c1.368,0,2.48-1.112,2.48-2.482v-0.223c0-0.809-0.389-1.525-0.989-1.979h4.254   c1.368,0,2.482-1.112,2.482-2.482v-0.223c0-0.981-0.573-1.829-1.4-2.231c0.827-0.403,1.4-1.25,1.4-2.232v-0.221   c0-0.862-0.444-1.654-1.172-2.107c0.202-1.348,0.587-2.811,1.147-4.354c0.267-0.735,0.579-1.502,0.928-2.275   c0.556-1.232,1.207-2.498,1.937-3.771l2.875,1.661l-2.645,4.586c-0.335-0.138-0.706-0.178-1.056-0.11   c-0.539,0.099-1.006,0.43-1.282,0.906c-0.362,0.628-0.328,1.417,0.089,2.012c0.159,0.227,0.36,0.411,0.599,0.548   c0.286,0.165,0.609,0.252,0.937,0.252c0.669,0,1.292-0.358,1.625-0.937c0.251-0.435,0.318-0.94,0.188-1.424   c-0.108-0.401-0.341-0.746-0.663-0.996l2.771-4.804c0.069-0.12,0.029-0.274-0.092-0.343l-3.095-1.788   c0.147-0.246,0.289-0.486,0.431-0.718c0.239-0.395,0.473-0.766,0.696-1.108l6.5,3.752l1.493,5.589   c-0.713,0.267-1.222,0.951-1.222,1.755c0,1.034,0.841,1.876,1.874,1.876c1.034,0,1.877-0.842,1.877-1.876   c0-1.033-0.843-1.875-1.877-1.875c-0.053,0-0.108,0.004-0.161,0.009l-1.525-5.71c-0.017-0.063-0.059-0.119-0.116-0.152   l-6.568-3.791c0.111-0.167,0.22-0.332,0.324-0.484c0.751-1.114,1.273-1.785,1.289-1.804c0.023-0.037,0.049-0.073,0.072-0.109   l2.588,1.496c-0.089,0.219-0.139,0.457-0.139,0.708c0,1.036,0.84,1.877,1.874,1.877s1.876-0.841,1.876-1.877   c0-1.033-0.842-1.874-1.876-1.874c-0.602,0-1.137,0.288-1.481,0.73l-2.571-1.484c0.043-0.065,0.086-0.134,0.128-0.199l0.021-0.033   c0.51-0.822,0.966-1.68,1.363-2.547l10.316,5.959c0.039,0.021,0.082,0.033,0.126,0.033c0.021,0,0.044-0.004,0.066-0.009   l4.604-1.234c0.296,0.646,0.947,1.098,1.704,1.098c1.034,0,1.874-0.841,1.874-1.877   C295.638,267.39,294.799,266.549,293.764,266.549z M280.056,241.04c0.756,0,1.371,0.615,1.371,1.373   c0,0.756-0.615,1.371-1.371,1.371c-0.757,0-1.372-0.615-1.372-1.371C278.684,241.655,279.3,241.04,280.056,241.04z    M268.485,289.933v0.223c0,1.091-0.888,1.979-1.979,1.979h-21.011c-1.092,0-1.98-0.888-1.98-1.979v-0.223   c0-1.093,0.888-1.98,1.98-1.98h21.011C267.597,287.952,268.485,288.84,268.485,289.933z M277.087,262.821   c-0.125,0.335-0.26,0.668-0.401,0.993l-0.029,0.064c-0.017,0.037-0.033,0.076-0.053,0.117c-0.413,0.938-0.9,1.859-1.446,2.74   l-0.021,0.031c-0.085,0.138-0.171,0.277-0.267,0.42c-0.061,0.099-0.125,0.196-0.185,0.282c-0.005,0.007-0.535,0.688-1.298,1.818   c-0.15,0.222-0.309,0.46-0.474,0.715c-0.264,0.401-0.545,0.846-0.835,1.322c-0.154,0.253-0.31,0.516-0.47,0.787l-0.03,0.051   c-0.021,0.036-0.043,0.073-0.062,0.108c-0.789,1.357-1.49,2.713-2.085,4.032c-0.355,0.787-0.672,1.563-0.941,2.313   c-0.552,1.515-0.936,2.958-1.147,4.296c-0.269-0.097-0.548-0.146-0.836-0.146h-21.015c-0.287,0-0.57,0.052-0.837,0.149   c-0.636-3.985-2.656-8.058-4.268-10.805c-0.14-0.241-0.28-0.475-0.417-0.7c-0.181-0.3-0.359-0.585-0.53-0.856   c-0.304-0.477-0.591-0.913-0.851-1.298c-0.158-0.234-0.306-0.449-0.439-0.639c-0.507-0.722-0.824-1.131-0.827-1.134   c-0.275-0.408-0.541-0.831-0.789-1.257c-0.072-0.123-0.143-0.245-0.211-0.368c-0.482-0.861-0.909-1.763-1.271-2.683l-0.01-0.023   c-0.01-0.025-0.02-0.051-0.034-0.084c-0.03-0.076-0.059-0.151-0.087-0.227l-0.008-0.021c-0.001-0.006-0.005-0.013-0.008-0.017   c-0.253-0.677-0.473-1.363-0.656-2.05c-0.01-0.037-0.022-0.075-0.032-0.12c-0.492-1.864-0.742-3.8-0.742-5.749   c0-0.501,0.017-1.006,0.05-1.502c0.086-1.32,0.292-2.641,0.611-3.926c0.079-0.324,0.17-0.656,0.269-0.988   c0.149-0.505,0.315-1.002,0.495-1.477c0.081-0.219,0.169-0.445,0.282-0.715c0.366-0.886,0.791-1.753,1.264-2.577   c0.07-0.123,0.143-0.245,0.217-0.368c0.501-0.842,1.068-1.665,1.681-2.437c0.015-0.017,0.029-0.035,0.044-0.053l0.033-0.042   c0.508-0.632,1.054-1.241,1.623-1.81l0.092-0.092l0.002-0.002c2.852-2.833,6.41-4.853,10.284-5.839   c0.171-0.042,0.342-0.083,0.513-0.124c0.658-0.151,1.332-0.275,2.005-0.367c0.095-0.012,0.187-0.023,0.281-0.036   c0.921-0.112,1.857-0.169,2.782-0.169c0.171,0,0.34,0.001,0.515,0.005h0.027c0.007,0.001,0.014,0.001,0.019,0.001   c1.005,0.024,2.021,0.118,3.025,0.279c0.119,0.019,0.238,0.039,0.359,0.061c0.685,0.119,1.364,0.272,2.019,0.453   c0.201,0.054,0.402,0.114,0.603,0.174c3.823,1.163,7.283,3.337,10.016,6.306l0.013,0.013c0.532,0.579,1.029,1.179,1.478,1.789   c0.038,0.048,0.071,0.096,0.107,0.145c0,0.001,0.01,0.015,0.01,0.015c0.605,0.82,1.162,1.701,1.654,2.616   c0.083,0.156,0.165,0.312,0.244,0.472c0.385,0.751,0.729,1.539,1.028,2.342c0.104,0.281,0.198,0.544,0.284,0.807   c0.17,0.512,0.317,1.024,0.441,1.524c0.093,0.362,0.175,0.735,0.248,1.106c0.19,0.938,0.319,1.919,0.386,2.916   c0.034,0.494,0.051,0.999,0.051,1.502c0,2.292-0.345,4.556-1.025,6.727l-0.01,0.037c-0.002,0.003-0.002,0.008-0.004,0.01   c-0.117,0.381-0.25,0.766-0.393,1.144C277.094,262.807,277.09,262.814,277.087,262.821z"/><path stroke="#cce3ad" d="M269.806,257.351c-0.049-0.058-0.119-0.091-0.194-0.091h-1.72c0.018-0.098,0.034-0.194,0.05-0.293   c0.003-0.021,0.008-0.041,0.011-0.062c0.022-0.139,0.045-0.277,0.062-0.421h1.775c0.129,0,0.237-0.099,0.25-0.228   c0.04-0.426,0.06-0.864,0.06-1.302c0-0.435-0.02-0.873-0.06-1.3c-0.013-0.131-0.121-0.23-0.25-0.23h-1.775   c-0.017-0.141-0.039-0.282-0.062-0.421c-0.003-0.018-0.007-0.037-0.01-0.055c-0.017-0.101-0.033-0.2-0.051-0.297h1.72   c0.075,0,0.146-0.033,0.194-0.09c0.046-0.057,0.066-0.134,0.053-0.208c-1.243-6.662-7.072-11.496-13.859-11.496   s-12.616,4.834-13.858,11.497c-0.015,0.072,0.005,0.15,0.054,0.207c0.047,0.057,0.119,0.09,0.193,0.09h1.722   c-0.019,0.093-0.034,0.187-0.051,0.281c-0.005,0.026-0.01,0.054-0.013,0.081c-0.022,0.136-0.043,0.275-0.061,0.413h-1.775   c-0.129,0-0.238,0.099-0.25,0.23c-0.039,0.426-0.059,0.864-0.059,1.3c0,0.438,0.02,0.876,0.059,1.302   c0.012,0.129,0.121,0.228,0.25,0.228h1.775c0.019,0.142,0.039,0.28,0.061,0.42c0.003,0.021,0.008,0.04,0.012,0.061   c0.016,0.098,0.032,0.196,0.052,0.295h-1.722c-0.074,0-0.146,0.033-0.193,0.091c-0.049,0.057-0.069,0.133-0.054,0.206   c1.242,6.661,7.071,11.498,13.858,11.498s12.616-4.837,13.859-11.498C269.873,257.484,269.852,257.407,269.806,257.351z    M242.696,252.147c1.314-6.269,6.861-10.787,13.304-10.787s11.991,4.519,13.307,10.787h-1.525   c-0.613-2.573-2.075-4.908-4.144-6.589c-2.149-1.75-4.86-2.713-7.638-2.713c-2.777,0-5.488,0.963-7.638,2.713   c-2.067,1.682-3.53,4.016-4.143,6.589H242.696z M265.903,254.955c0,5.461-4.441,9.905-9.903,9.905c-5.46,0-9.903-4.443-9.903-9.905   c0-5.46,4.443-9.903,9.903-9.903C261.462,245.052,265.903,249.495,265.903,254.955z M256,268.551   c-6.443,0-11.99-4.519-13.304-10.787h1.525c0.611,2.573,2.076,4.908,4.141,6.589c2.15,1.75,4.863,2.713,7.638,2.713   c2.777,0,5.488-0.963,7.638-2.713c2.068-1.681,3.53-4.016,4.144-6.589h1.525C267.991,264.032,262.443,268.551,256,268.551z"/><path stroke="#cce3ad" d="M260.355,251.741c0-1.864-1.518-3.38-3.381-3.38h-0.989v-1.413c0-0.139-0.112-0.251-0.251-0.251s-0.251,0.113-0.251,0.251   v1.413h-2.062v-1.413c0-0.139-0.112-0.251-0.252-0.251c-0.139,0-0.251,0.113-0.251,0.251v1.413h-1.02   c-0.139,0-0.251,0.112-0.251,0.251s0.113,0.252,0.251,0.252h1.02v12.011h-1.02c-0.139,0-0.251,0.113-0.251,0.252   c0,0.14,0.113,0.251,0.251,0.251h1.02v1.414c0,0.139,0.113,0.251,0.251,0.251c0.14,0,0.252-0.112,0.252-0.251v-1.414h2.062v1.584   c0,0.14,0.112,0.252,0.251,0.252s0.251-0.112,0.251-0.252v-1.584h0.989c1.863,0,3.381-1.516,3.381-3.379   c0-1.411-0.87-2.624-2.102-3.129C259.485,254.365,260.355,253.153,260.355,251.741z M259.85,257.999   c0,1.586-1.29,2.876-2.876,2.876h-3.554v-5.754h3.554C258.56,255.121,259.85,256.412,259.85,257.999z M256.974,254.618h-3.554   v-5.754h3.554c1.586,0,2.876,1.29,2.876,2.877C259.85,253.328,258.56,254.618,256.974,254.618z"/><path stroke="#cce3ad" d="M273.214,245.016c-0.008-0.015-0.018-0.029-0.03-0.041c-1.149-1.973-2.63-3.729-4.36-5.195   c-0.014-0.019-0.026-0.037-0.046-0.052c-0.019-0.015-0.039-0.027-0.059-0.036c-3.448-2.879-7.883-4.614-12.717-4.616h-0.003   c-4.834,0.002-9.269,1.737-12.717,4.616c-0.02,0.008-0.041,0.021-0.057,0.036c-0.018,0.015-0.033,0.032-0.045,0.05   c-1.734,1.467-3.213,3.224-4.363,5.195c-0.01,0.013-0.022,0.027-0.03,0.042c-0.009,0.013-0.013,0.028-0.019,0.042   c-1.681,2.916-2.645,6.296-2.645,9.896c0,3.601,0.963,6.982,2.645,9.898c0.005,0.014,0.01,0.026,0.019,0.04   c0.007,0.014,0.017,0.023,0.025,0.034c1.151,1.975,2.631,3.734,4.368,5.203c0.012,0.019,0.027,0.036,0.045,0.052   c0.015,0.012,0.032,0.021,0.049,0.029c3.448,2.882,7.886,4.618,12.722,4.62c0.001,0,0.003,0.001,0.005,0.001   c0.002,0,0.003-0.001,0.005-0.001c4.836-0.002,9.271-1.738,12.721-4.62c0.019-0.009,0.035-0.016,0.052-0.029   c0.02-0.016,0.032-0.033,0.046-0.052c1.734-1.47,3.216-3.229,4.367-5.205c0.009-0.01,0.017-0.021,0.023-0.032   s0.014-0.024,0.019-0.038c1.681-2.916,2.645-6.297,2.645-9.9s-0.964-6.984-2.646-9.9   C273.225,245.041,273.22,245.03,273.214,245.016z M272.198,253.619c-0.372,0.064-0.728-0.188-0.791-0.555l-0.282-1.601   c-0.032-0.18,0.008-0.361,0.112-0.51c0.104-0.149,0.262-0.248,0.441-0.28c0.04-0.007,0.081-0.012,0.12-0.012   c0.33,0,0.612,0.238,0.672,0.565l0.141,0.799v0.001l0.142,0.801C272.818,253.198,272.569,253.554,272.198,253.619z    M268.639,240.285c1.578,1.36,2.934,2.971,4.005,4.77l-1.727,0.997l-0.281-0.485c-0.212-0.366-0.606-0.594-1.029-0.594   c-0.162,0-0.324,0.036-0.476,0.103c-0.351-0.464-0.726-0.913-1.121-1.334c0.334-0.497,0.245-1.178-0.223-1.57l-0.431-0.361   L268.639,240.285z M270.763,248.159c-0.103,0.061-0.221,0.092-0.34,0.092c-0.245,0-0.472-0.131-0.594-0.342l-0.813-1.408   c-0.188-0.325-0.075-0.745,0.25-0.933c0.104-0.06,0.224-0.092,0.34-0.092c0.245,0,0.473,0.131,0.595,0.342l0.812,1.408   C271.202,247.552,271.09,247.971,270.763,248.159z M265.257,241.597c0.131-0.156,0.321-0.245,0.524-0.245   c0.16,0,0.314,0.057,0.438,0.161l0.621,0.52v0.001h0.003l0.622,0.522c0.286,0.241,0.325,0.675,0.083,0.963   c-0.13,0.155-0.322,0.244-0.523,0.244c-0.161,0-0.316-0.055-0.439-0.16l-1.245-1.044   C265.052,242.317,265.015,241.885,265.257,241.597z M262.941,240.259c-0.099,0.269-0.355,0.45-0.642,0.45   c-0.079,0-0.158-0.014-0.233-0.042l-1.529-0.555c-0.352-0.129-0.536-0.522-0.407-0.876c0.097-0.269,0.355-0.45,0.642-0.45   c0.079,0,0.158,0.014,0.233,0.042l1.527,0.555C262.885,239.512,263.069,239.906,262.941,240.259z M256.251,235.585   c2.148,0.028,4.211,0.406,6.138,1.081l-0.685,1.881l-0.526-0.191c-0.132-0.049-0.27-0.072-0.407-0.072   c-0.452,0-0.862,0.261-1.06,0.661c-0.565-0.13-1.144-0.231-1.72-0.302c-0.065-0.594-0.569-1.058-1.18-1.058h-0.561V235.585z    M255.188,238.088h1.625c0.377,0,0.684,0.307,0.684,0.683c0,0.377-0.307,0.684-0.684,0.684h-1.625   c-0.378,0-0.683-0.307-0.683-0.684C254.505,238.395,254.81,238.088,255.188,238.088z M250.995,238.828   c0.075-0.029,0.154-0.042,0.232-0.042c0.288,0,0.546,0.182,0.643,0.45c0.062,0.171,0.054,0.357-0.023,0.523   c-0.077,0.165-0.213,0.291-0.386,0.353l-1.527,0.555c-0.075,0.029-0.152,0.042-0.233,0.042c-0.286,0-0.544-0.181-0.643-0.45   c-0.063-0.171-0.054-0.357,0.023-0.521c0.077-0.166,0.215-0.292,0.386-0.354l0.764-0.279L250.995,238.828z M249.139,236.838   l0.683,1.881l-0.526,0.191c-0.297,0.109-0.536,0.326-0.67,0.614c-0.114,0.247-0.141,0.519-0.078,0.781   c-0.517,0.263-1.021,0.555-1.508,0.874c-0.22-0.211-0.512-0.331-0.821-0.331c-0.279,0-0.549,0.099-0.761,0.278l-0.43,0.361   l-1.28-1.527C245.35,238.649,247.167,237.588,249.139,236.838z M246.9,242.095c-0.015,0.183-0.102,0.347-0.242,0.464l-1.245,1.044   c-0.123,0.104-0.278,0.16-0.438,0.16c-0.203,0-0.394-0.089-0.525-0.244c-0.242-0.288-0.203-0.72,0.085-0.963l1.246-1.043   c0.122-0.104,0.278-0.161,0.438-0.161c0.203,0,0.395,0.089,0.523,0.245C246.86,241.736,246.915,241.914,246.9,242.095z    M240.986,247.226l0.813-1.408c0.121-0.211,0.349-0.342,0.592-0.342c0.119,0,0.237,0.032,0.34,0.092   c0.326,0.188,0.438,0.608,0.25,0.933l-0.812,1.408c-0.122,0.211-0.349,0.342-0.592,0.342c-0.119,0-0.238-0.032-0.34-0.092   c-0.16-0.09-0.272-0.238-0.319-0.415C240.871,247.569,240.895,247.384,240.986,247.226z M239.102,245.489l1.729,0.999l-0.28,0.486   c-0.16,0.273-0.201,0.594-0.119,0.899c0.071,0.264,0.227,0.49,0.443,0.648c-0.23,0.537-0.429,1.087-0.597,1.643   c-0.025-0.002-0.051-0.007-0.076-0.007c-0.575,0-1.067,0.413-1.167,0.981l-0.097,0.552l-1.972-0.348   C237.361,249.255,238.093,247.285,239.102,245.489z M239.802,253.619c-0.372-0.065-0.621-0.421-0.555-0.792l0.141-0.799   c0-0.002,0-0.002,0.001-0.002c0-0.001,0-0.001,0-0.003l0.14-0.797c0.058-0.327,0.34-0.565,0.672-0.565   c0.04,0,0.081,0.003,0.12,0.012c0.179,0.032,0.337,0.131,0.441,0.28c0.105,0.149,0.146,0.331,0.114,0.51l-0.283,1.601   c-0.057,0.327-0.339,0.566-0.671,0.566C239.882,253.63,239.842,253.626,239.802,253.619z M240.595,256.847l0.281,1.6   c0.032,0.179-0.008,0.362-0.114,0.511c-0.104,0.15-0.26,0.249-0.441,0.281c-0.37,0.065-0.727-0.188-0.791-0.554l-0.141-0.8   l-0.143-0.802c-0.066-0.37,0.184-0.726,0.555-0.792c0.039-0.006,0.079-0.01,0.12-0.01   C240.254,256.282,240.536,256.52,240.595,256.847z M240.551,262.936l0.28,0.487l-1.729,0.998c-1.009-1.795-1.741-3.765-2.137-5.854   l1.972-0.347l0.097,0.552c0.101,0.569,0.592,0.98,1.167,0.98c0.025,0,0.051-0.006,0.074-0.006c0.169,0.556,0.371,1.106,0.599,1.644   c-0.216,0.157-0.372,0.384-0.443,0.646C240.35,262.343,240.391,262.663,240.551,262.936z M242.732,264.343   c-0.104,0.06-0.222,0.092-0.34,0.092c-0.243,0-0.472-0.131-0.592-0.342l-0.813-1.408c-0.091-0.157-0.115-0.342-0.067-0.519   c0.046-0.176,0.159-0.323,0.319-0.414c0.102-0.061,0.221-0.093,0.34-0.093c0.243,0,0.47,0.132,0.592,0.343l0.812,1.406   C243.17,263.735,243.058,264.155,242.732,264.343z M249.139,273.072c-1.97-0.749-3.789-1.81-5.393-3.122l1.28-1.526l0.432,0.361   c0.212,0.179,0.482,0.277,0.761,0.277c0.309,0,0.601-0.118,0.821-0.329c0.486,0.316,0.991,0.608,1.508,0.874   c-0.14,0.579,0.175,1.187,0.748,1.395l0.526,0.19L249.139,273.072z M244.45,266.392c0.131-0.156,0.322-0.245,0.525-0.245   c0.16,0,0.315,0.057,0.438,0.159l1.245,1.045c0.289,0.244,0.327,0.675,0.084,0.964c-0.129,0.155-0.32,0.244-0.523,0.244   c-0.159,0-0.315-0.057-0.44-0.161l-0.619-0.52l-0.001-0.001c-0.002-0.003-0.002-0.003-0.003-0.003l-0.62-0.52   C244.248,267.112,244.209,266.68,244.45,266.392z M251.87,270.675c-0.097,0.269-0.355,0.45-0.643,0.45   c-0.079,0-0.157-0.015-0.232-0.042l-1.527-0.556c-0.354-0.129-0.537-0.522-0.409-0.875c0.099-0.271,0.357-0.45,0.643-0.45   c0.081,0,0.158,0.013,0.233,0.04l1.529,0.558c0.171,0.061,0.307,0.188,0.384,0.353S251.932,270.502,251.87,270.675z    M255.188,271.823c-0.378,0-0.683-0.307-0.685-0.684c0-0.378,0.307-0.685,0.685-0.685h1.625c0.377,0,0.684,0.307,0.684,0.685   c0,0.377-0.307,0.684-0.684,0.684H255.188z M256.251,274.325v-1.999h0.561c0.61,0,1.114-0.463,1.18-1.057   c0.576-0.071,1.154-0.171,1.72-0.302c0.197,0.398,0.607,0.66,1.06,0.66c0.138,0,0.275-0.025,0.407-0.071l0.526-0.191l0.685,1.879   C260.463,273.918,258.399,274.298,256.251,274.325z M262.918,270.173c-0.077,0.167-0.213,0.292-0.386,0.354l-1.527,0.556   c-0.075,0.027-0.154,0.042-0.233,0.042c-0.286,0-0.545-0.182-0.642-0.45c-0.129-0.354,0.056-0.748,0.407-0.877l1.529-0.556   c0.075-0.027,0.154-0.04,0.233-0.04c0.286,0,0.543,0.179,0.642,0.45C263.004,269.823,262.995,270.009,262.918,270.173z    M264.597,267.773c-0.017,0.188,0.014,0.372,0.08,0.543c-0.464,0.302-0.949,0.582-1.446,0.838   c-0.221-0.282-0.563-0.455-0.932-0.455c-0.141,0-0.276,0.023-0.407,0.072l-1.526,0.556c-0.493,0.179-0.796,0.654-0.78,1.154   c-0.542,0.124-1.093,0.222-1.646,0.288c-0.156-0.473-0.602-0.816-1.126-0.816h-1.625c-0.525,0-0.97,0.342-1.128,0.815   c-0.554-0.065-1.104-0.163-1.646-0.287c0.007-0.185-0.03-0.37-0.11-0.542c-0.134-0.286-0.371-0.506-0.67-0.612l-1.526-0.556   c-0.131-0.049-0.267-0.072-0.406-0.072c-0.369,0-0.711,0.173-0.933,0.455c-0.497-0.254-0.981-0.533-1.447-0.839   c0.185-0.462,0.063-1.01-0.339-1.348l-1.245-1.046c-0.213-0.179-0.483-0.278-0.762-0.278c-0.223,0-0.438,0.064-0.624,0.179   c-0.379-0.406-0.74-0.837-1.076-1.281c0.331-0.372,0.404-0.929,0.143-1.382l-0.812-1.407c-0.211-0.367-0.606-0.595-1.029-0.595   c-0.082,0-0.164,0.011-0.243,0.028c-0.218-0.514-0.411-1.04-0.572-1.571c0.163-0.088,0.304-0.213,0.413-0.367   c0.181-0.26,0.252-0.575,0.196-0.888l-0.282-1.601c-0.09-0.509-0.497-0.894-0.998-0.966c-0.014-0.276-0.024-0.557-0.024-0.837   c0-0.279,0.01-0.557,0.024-0.835c0.501-0.072,0.908-0.457,0.998-0.968l0.282-1.601c0.056-0.312-0.015-0.626-0.196-0.886   c-0.109-0.156-0.25-0.278-0.413-0.366c0.161-0.532,0.354-1.059,0.572-1.573c0.079,0.018,0.161,0.029,0.243,0.029   c0.423,0,0.817-0.229,1.029-0.595l0.812-1.407c0.262-0.455,0.188-1.012-0.143-1.383c0.335-0.444,0.696-0.875,1.076-1.28   c0.186,0.114,0.401,0.176,0.624,0.176c0.278,0,0.548-0.097,0.762-0.276l1.245-1.045c0.244-0.203,0.391-0.488,0.419-0.806   c0.018-0.188-0.011-0.372-0.081-0.543c0.467-0.304,0.952-0.584,1.447-0.837c0.222,0.28,0.564,0.455,0.933,0.455   c0.139,0,0.275-0.023,0.406-0.072l1.526-0.556c0.299-0.109,0.536-0.326,0.67-0.614c0.081-0.171,0.117-0.356,0.11-0.541   c0.542-0.124,1.094-0.222,1.646-0.289c0.158,0.473,0.603,0.817,1.128,0.817h1.625c0.525,0,0.971-0.344,1.127-0.817   c0.553,0.067,1.104,0.165,1.646,0.289c-0.016,0.498,0.287,0.975,0.78,1.154l1.526,0.556c0.131,0.049,0.269,0.072,0.407,0.072   c0.368,0,0.711-0.175,0.932-0.455c0.497,0.253,0.982,0.534,1.446,0.837c-0.182,0.463-0.062,1.012,0.339,1.349l1.246,1.045   c0.213,0.179,0.484,0.276,0.763,0.276c0.224,0,0.438-0.062,0.622-0.176c0.38,0.404,0.741,0.834,1.077,1.28   c-0.331,0.371-0.404,0.928-0.144,1.383l0.814,1.407c0.211,0.366,0.605,0.595,1.028,0.595c0.082,0,0.162-0.012,0.241-0.029   c0.218,0.512,0.411,1.039,0.574,1.573c-0.163,0.087-0.306,0.209-0.415,0.366c-0.182,0.26-0.251,0.574-0.195,0.886l0.281,1.601   c0.091,0.512,0.497,0.896,0.998,0.968c0.014,0.278,0.023,0.557,0.023,0.835c0,0.278-0.01,0.559-0.023,0.837   c-0.501,0.072-0.907,0.457-0.998,0.968l-0.281,1.599c-0.056,0.313,0.014,0.628,0.195,0.888c0.109,0.157,0.252,0.279,0.415,0.367   c-0.163,0.533-0.356,1.06-0.574,1.571c-0.079-0.018-0.159-0.028-0.241-0.028c-0.423,0-0.817,0.228-1.028,0.595l-0.814,1.407   c-0.261,0.453-0.188,1.01,0.144,1.382c-0.336,0.444-0.696,0.875-1.077,1.281c-0.185-0.114-0.398-0.179-0.622-0.179   c-0.278,0-0.549,0.1-0.763,0.278l-1.246,1.045C264.775,267.17,264.626,267.455,264.597,267.773z M271.013,262.685l-0.812,1.408   c-0.122,0.211-0.35,0.342-0.595,0.342c-0.119,0-0.235-0.032-0.34-0.092c-0.325-0.188-0.438-0.608-0.25-0.934l0.813-1.407   c0.121-0.211,0.348-0.343,0.593-0.343c0.119,0,0.237,0.032,0.34,0.093c0.158,0.091,0.271,0.238,0.319,0.414   C271.13,262.343,271.105,262.528,271.013,262.685z M265.781,268.559c-0.203,0-0.394-0.089-0.524-0.244   c-0.116-0.141-0.172-0.318-0.158-0.499c0.017-0.183,0.103-0.347,0.242-0.465l1.245-1.043c0.124-0.104,0.278-0.161,0.439-0.161   c0.203,0,0.394,0.089,0.523,0.245c0.118,0.139,0.173,0.317,0.158,0.498c-0.018,0.183-0.103,0.347-0.241,0.465l-1.246,1.043   C266.095,268.502,265.941,268.559,265.781,268.559z M268.638,269.626l-1.281-1.526l0.431-0.361   c0.243-0.203,0.392-0.488,0.418-0.805c0.026-0.272-0.044-0.539-0.195-0.764c0.396-0.423,0.771-0.871,1.121-1.334   c0.151,0.065,0.313,0.102,0.476,0.102c0.426,0,0.82-0.228,1.029-0.593l0.281-0.486l1.727,0.997   C271.573,266.655,270.218,268.266,268.638,269.626z M272.753,257.083l-0.142,0.799v0.004l-0.141,0.799   c-0.065,0.365-0.419,0.619-0.792,0.554c-0.18-0.032-0.337-0.131-0.441-0.281c-0.104-0.148-0.145-0.329-0.112-0.511l0.282-1.6   c0.057-0.327,0.339-0.565,0.671-0.565c0.04,0,0.08,0.003,0.119,0.01c0.181,0.032,0.337,0.133,0.441,0.282   C272.744,256.724,272.785,256.905,272.753,257.083z M275.373,254.955c0,1.062-0.087,2.102-0.252,3.118l-1.971-0.349l0.097-0.553   c0.056-0.313-0.014-0.628-0.195-0.886c-0.157-0.225-0.381-0.385-0.642-0.46c0.015-0.289,0.024-0.581,0.024-0.871   c0-0.289-0.01-0.581-0.024-0.869c0.573-0.168,0.944-0.745,0.837-1.346l-0.097-0.553l1.971-0.347   C275.286,252.854,275.373,253.894,275.373,254.955z"/></g></svg>