<svg xmlns="http://www.w3.org/2000/svg" data-name="Layer 2" viewBox="0 0 100 125" x="0px" y="0px"><title>blockchain_2_exp</title><path d="M91,49.69141A13.147,13.147,0,0,1,77.86816,62.82324H71.813a1,1,0,0,1,0-2h6.05517a11.13228,11.13228,0,1,0-2.49713-21.957,12.988,12.988,0,0,1-.49457,1.705,1,1,0,0,1-.93652.65039.98943.98943,0,0,1-.3501-.064.99958.99958,0,0,1-.58642-1.28662,11.01829,11.01829,0,0,0,.53161-1.96685l.00007-.0008A11.13147,11.13147,0,0,0,62.57129,24.84521a11.0154,11.0154,0,0,0-6.19507,1.8891,18.49252,18.49252,0,0,1,.6023,2.17633.99984.99984,0,1,1-1.959.40137,16.75285,16.75285,0,1,0-32.70575,7.256,13.05437,13.05437,0,0,1,4.68036.92121.99993.99993,0,1,1-.74121,1.85742,11.13338,11.13338,0,1,0-4.12109,21.47656h6.05273a1,1,0,1,1,0,2H22.13184a13.12388,13.12388,0,0,1-1.84345-26.11877A18.74523,18.74523,0,0,1,55.62244,24.83813a12.9996,12.9996,0,0,1,6.94885-1.99292A13.147,13.147,0,0,1,75.70312,35.97705c0,.25952-.01916.51636-.03411.77374A13.10064,13.10064,0,0,1,91,49.69141ZM56.22119,68.293a2.90763,2.90763,0,0,1,.84033,2.07666l-.01709,2.06348a3.41335,3.41335,0,0,1-3.40869,3.38134h-.02832l-1.07068-.00879-.01281,1.56006a.99988.99988,0,0,1-1,.9917h-.00831a1.00007,1.00007,0,0,1-.99169-1.0083l.01281-1.55987-1.1997-.00989-.01282,1.56a.99987.99987,0,0,1-1,.99169h-.0083a1.00007,1.00007,0,0,1-.9917-1.0083l.01282-1.55981-.92054-.00757-1.91992-.01562a1,1,0,0,1,.0083-2h.0083l.91986.0075.0445-5.40008.04407-5.39972-.92005-.00751a1,1,0,0,1,.0083-2h.0083l1.91993.01563.9198.00756.01281-1.55981a.99988.99988,0,0,1,1-.9917h.0083a1.00009,1.00009,0,0,1,.9917,1.0083l-.01281,1.55957,1.20019.00989.01282-1.55969a.99987.99987,0,0,1,1-.9917h.0083a1.00008,1.00008,0,0,1,.9917,1.0083l-.01282,1.55945.72717.006a2.47238,2.47238,0,0,1,2.45215,2.49316l-.02832,3.45459a2.46776,2.46776,0,0,1-.17541.884A2.92293,2.92293,0,0,1,56.22119,68.293Zm-2.85254-5.28125-4.91791-.04022-.001.00018h-.0083L48.44,62.97137l-.91852-.0075-.03564,4.39984,3.49445.02869,2.35272.01922a.62678.62678,0,0,0,.33545-.13525.47212.47212,0,0,0,.14062-.333l.02832-3.45508a.47263.47263,0,0,0-.46875-.47656ZM55.06152,70.353a.92691.92691,0,0,0-.91992-.93457l-6.67236-.05469-.03613,4.3999.91137.00745.00073-.00012h.00831l.00109.00024,3.19013.02618.00018-.00006h.0083l.00049.00013,2.07031.017a1.42536,1.42536,0,0,0,.99952-.40478,1.39809,1.39809,0,0,0,.42089-.99317Zm12.938-2.14112A18.02176,18.02176,0,0,1,50.002,86.06445c-.05029,0-.09912,0-.14941-.00049a18.00011,18.00011,0,1,1,18.147-17.852Zm-2-.0166A16.01835,16.01835,0,0,0,50.13086,52.06494c-.04395-.00049-.08838-.00049-.13281-.00049A16,16,0,0,0,49.86914,84.064c.04395.00049.08838.00049.13281.00049A16.01884,16.01884,0,0,0,65.99951,68.19531Zm-1.87988-.01513A14.13765,14.13765,0,0,1,50.00146,82.18457c-.03955,0-.07763,0-.11718-.00049a14.12011,14.12011,0,0,1,.11426-28.23974c.03955,0,.07763,0,.11718.00048A14.13666,14.13666,0,0,1,64.11963,68.18018Zm-2-.01661A12.134,12.134,0,0,0,50.09912,55.94482c-.0332-.00048-.06689-.00048-.1001-.00048a12.12007,12.12007,0,0,0-.09814,24.23974c.0332.00049.06689.00049.1001.00049A12.13451,12.13451,0,0,0,62.11963,68.16357Z"/></svg>