<svg xmlns="http://www.w3.org/2000/svg" xmlns:xlink="http://www.w3.org/1999/xlink" version="1.1" x="0px" y="0px" viewBox="206 206 100 125" enable-background="new 206 206 100 100" xml:space="preserve"><g><path stroke="#cce3ad" d="M278.108,265.149h-17.715v-1.745h4.409c0.13,0.674,0.725,1.187,1.436,1.187c0.806,0,1.461-0.657,1.461-1.464   c0-0.806-0.655-1.463-1.461-1.463c-0.711,0-1.304,0.511-1.436,1.183h-4.688c-0.153,0-0.278,0.127-0.278,0.279v2.023h-1.298v-5.435   l2.308-2.31c0.24,0.174,0.535,0.276,0.853,0.276c0.806,0,1.463-0.655,1.463-1.461c0-0.806-0.657-1.463-1.463-1.463   s-1.461,0.657-1.461,1.463c0,0.286,0.083,0.553,0.227,0.78l-2.403,2.403c-0.052,0.052-0.079,0.122-0.079,0.196v5.55h-1.703v-10.994   c5.147-0.065,9.865-1.94,13.547-5.017c0.019-0.009,0.037-0.017,0.054-0.03c0.019-0.017,0.036-0.037,0.049-0.056   c1.887-1.597,3.494-3.509,4.744-5.656c0.009-0.009,0.019-0.021,0.025-0.033c0.01-0.013,0.016-0.028,0.021-0.043   c1.827-3.167,2.873-6.84,2.873-10.752s-1.046-7.583-2.873-10.75c-0.005-0.015-0.011-0.03-0.021-0.045   c-0.009-0.017-0.021-0.031-0.033-0.046c-1.248-2.141-2.854-4.047-4.736-5.641c-0.013-0.021-0.03-0.039-0.049-0.056   c-0.021-0.017-0.04-0.03-0.063-0.039c-3.747-3.127-8.563-5.011-13.813-5.013c-0.002,0-0.002,0-0.004,0s-0.002,0-0.004,0   c-5.249,0.002-10.065,1.886-13.813,5.013c-0.022,0.009-0.042,0.022-0.061,0.039c-0.021,0.017-0.037,0.035-0.05,0.056   c-1.883,1.593-3.489,3.5-4.736,5.641c-0.013,0.015-0.024,0.03-0.034,0.046c-0.009,0.015-0.015,0.03-0.02,0.045   c-1.827,3.167-2.873,6.838-2.873,10.75s1.047,7.585,2.874,10.754c0.004,0.013,0.011,0.028,0.019,0.041   c0.007,0.013,0.017,0.022,0.024,0.033c1.251,2.146,2.859,4.059,4.746,5.656c0.015,0.021,0.03,0.039,0.05,0.056   c0.015,0.013,0.033,0.021,0.052,0.03c3.682,3.077,8.4,4.952,13.547,5.017v10.994h-2.353v-2.245c0-0.074-0.03-0.145-0.082-0.196   l-2.993-2.991c0.14-0.225,0.221-0.486,0.221-0.769c0-0.807-0.655-1.462-1.461-1.462c-0.808,0-1.463,0.655-1.463,1.462   c0,0.806,0.655,1.463,1.463,1.463c0.323,0,0.62-0.107,0.862-0.286l2.896,2.895v2.13h-18.92c-2.048,0-3.715,1.667-3.715,3.716   c0,2.048,1.667,3.713,3.715,3.713h1.228l5.484,24.576c0,0.006,0.002,0.013,0.004,0.019l0.696,3.123   c0.028,0.126,0.141,0.217,0.271,0.217h29c0.13,0,0.242-0.091,0.271-0.217l0.696-3.125c0.002-0.005,0.004-0.009,0.004-0.015   l5.479-24.578h1.084c2.048,0,3.716-1.665,3.716-3.713C281.824,266.816,280.156,265.149,278.108,265.149z M266.238,262.221   c0.499,0,0.904,0.406,0.904,0.905c0,0.5-0.405,0.906-0.904,0.906c-0.5,0-0.906-0.406-0.906-0.906   C265.332,262.627,265.738,262.221,266.238,262.221z M261.698,255.313c0.5,0,0.906,0.407,0.906,0.906s-0.406,0.904-0.906,0.904   c-0.499,0-0.904-0.404-0.904-0.904S261.199,255.313,261.698,255.313z M249.053,259.853c-0.5,0-0.906-0.406-0.906-0.905   c0-0.5,0.406-0.904,0.906-0.904c0.498,0,0.904,0.404,0.904,0.904C249.958,259.447,249.551,259.853,249.053,259.853z    M256.278,253.598v-2.161h0.604c0.665,0,1.213-0.503,1.285-1.148c0.624-0.076,1.247-0.184,1.86-0.327   c0.217,0.435,0.663,0.717,1.155,0.717c0.15,0,0.299-0.026,0.441-0.078l0.568-0.206l0.739,2.033   C260.843,253.158,258.606,253.568,256.278,253.598z M263.509,249.094c-0.084,0.178-0.232,0.313-0.416,0.38l-1.66,0.604   c-0.079,0.03-0.165,0.044-0.25,0.044c-0.309,0-0.587-0.195-0.693-0.484c-0.139-0.383,0.06-0.806,0.44-0.945l1.66-0.604   c0.08-0.029,0.165-0.044,0.25-0.044c0.309,0,0.587,0.195,0.693,0.486C263.599,248.715,263.592,248.915,263.509,249.094z    M266.622,247.337c-0.219,0-0.425-0.096-0.565-0.264c-0.127-0.15-0.187-0.341-0.169-0.538c0.017-0.197,0.109-0.374,0.26-0.5   l1.352-1.135c0.134-0.111,0.301-0.172,0.474-0.172c0.219,0,0.425,0.094,0.564,0.264c0.126,0.15,0.188,0.341,0.171,0.537   c-0.019,0.196-0.11,0.375-0.262,0.501l-1.353,1.135C266.962,247.276,266.793,247.337,266.622,247.337z M269.726,248.493   l-1.385-1.65l0.463-0.386c0.265-0.223,0.427-0.535,0.456-0.88c0.026-0.295-0.048-0.584-0.211-0.828   c0.431-0.46,0.835-0.943,1.212-1.442c0.163,0.07,0.34,0.107,0.517,0.107c0.462,0,0.891-0.247,1.121-0.646l0.303-0.523l1.868,1.079   C272.905,245.272,271.435,247.017,269.726,248.493z M270.14,241.752l0.883-1.528c0.132-0.228,0.377-0.369,0.641-0.369   c0.128,0,0.254,0.035,0.365,0.1c0.171,0.099,0.294,0.256,0.344,0.447c0.052,0.189,0.026,0.388-0.072,0.559l-0.442,0.763   c0,0.002,0,0.002,0,0.002l-0.441,0.763c-0.13,0.226-0.375,0.368-0.639,0.368c-0.128,0-0.255-0.034-0.368-0.099   c-0.169-0.099-0.291-0.256-0.344-0.447C270.016,242.121,270.043,241.923,270.14,241.752z M274.186,234.88l-0.153,0.869   l-0.152,0.869c-0.063,0.353-0.368,0.609-0.725,0.609c-0.043,0-0.087-0.004-0.13-0.011c-0.399-0.071-0.668-0.455-0.598-0.854   l0.307-1.738c0.063-0.353,0.367-0.609,0.724-0.609c0.043,0,0.087,0.004,0.13,0.011c0.193,0.034,0.362,0.141,0.476,0.303   S274.22,234.685,274.186,234.88z M274.521,231.127c0.198-0.282,0.274-0.625,0.213-0.965l-0.104-0.596l2.13-0.375   c0.178,1.101,0.272,2.228,0.272,3.377c0,1.151-0.095,2.278-0.272,3.379l-2.13-0.377l0.104-0.594   c0.062-0.342-0.015-0.685-0.213-0.967c-0.171-0.243-0.414-0.416-0.694-0.498c0.017-0.314,0.025-0.629,0.025-0.943   c0-0.312-0.009-0.627-0.025-0.941C274.107,231.545,274.35,231.37,274.521,231.127z M274.064,230.808   c-0.113,0.162-0.282,0.27-0.476,0.303c-0.399,0.071-0.783-0.201-0.854-0.596l-0.307-1.74c-0.033-0.193,0.009-0.388,0.122-0.549   s0.282-0.27,0.476-0.303c0.043-0.007,0.087-0.011,0.13-0.011c0.356,0,0.661,0.256,0.725,0.609l0.152,0.867c0,0,0,0,0,0.002   l0.153,0.869C274.22,230.451,274.177,230.646,274.064,230.808z M269.725,216.645c1.71,1.476,3.18,3.221,4.345,5.169l-1.868,1.079   l-0.303-0.522c-0.23-0.399-0.659-0.648-1.121-0.648c-0.179,0-0.354,0.039-0.517,0.109c-0.377-0.501-0.783-0.986-1.212-1.442   c0.163-0.244,0.239-0.533,0.213-0.83c-0.031-0.344-0.193-0.655-0.458-0.878l-0.463-0.388L269.725,216.645z M272.373,224.737   c-0.05,0.189-0.173,0.349-0.344,0.447c-0.111,0.065-0.239,0.099-0.367,0.099c-0.262,0-0.507-0.142-0.639-0.368l-0.883-1.53   c-0.202-0.351-0.081-0.802,0.27-1.006c0.113-0.065,0.24-0.098,0.368-0.098c0.264,0,0.509,0.141,0.639,0.369l0.884,1.528   C272.399,224.348,272.425,224.545,272.373,224.737z M266.056,218.065c0.141-0.167,0.347-0.264,0.564-0.264   c0.172,0,0.341,0.061,0.473,0.172l1.353,1.135c0.151,0.126,0.243,0.304,0.262,0.5c0.017,0.197-0.043,0.388-0.171,0.538   c-0.14,0.167-0.346,0.264-0.564,0.264c-0.173,0-0.34-0.061-0.474-0.172l-1.352-1.135c-0.15-0.126-0.243-0.304-0.26-0.5   C265.87,218.406,265.929,218.216,266.056,218.065z M263.533,216.608c-0.106,0.29-0.385,0.484-0.693,0.484   c-0.085,0-0.17-0.015-0.252-0.044l-1.658-0.604c-0.186-0.067-0.332-0.202-0.416-0.381c-0.083-0.178-0.091-0.378-0.024-0.564   c0.106-0.29,0.383-0.485,0.693-0.485c0.085,0,0.171,0.015,0.252,0.044l0.828,0.303l0.83,0.301   C263.473,215.802,263.672,216.225,263.533,216.608z M256.278,211.538c2.328,0.032,4.564,0.44,6.653,1.172l-0.739,2.033   l-0.568-0.208c-0.143-0.052-0.291-0.078-0.441-0.078c-0.492,0-0.938,0.284-1.155,0.717c-0.613-0.141-1.234-0.25-1.86-0.325   c-0.072-0.646-0.62-1.149-1.285-1.149h-0.604V211.538z M255.118,214.257h1.764c0.407,0,0.737,0.331,0.737,0.737   s-0.33,0.737-0.737,0.737h-1.764c-0.407,0-0.737-0.331-0.737-0.737S254.711,214.257,255.118,214.257z M250.818,215.014   c0.308,0,0.586,0.195,0.692,0.485c0.067,0.186,0.06,0.386-0.024,0.564c-0.083,0.179-0.23,0.314-0.416,0.381l-1.658,0.604   c-0.082,0.03-0.167,0.044-0.252,0.044c-0.308,0-0.587-0.195-0.692-0.484c-0.139-0.383,0.059-0.806,0.44-0.945l1.66-0.604   C250.647,215.029,250.732,215.014,250.818,215.014z M248.545,212.902l0.739,2.031l-0.566,0.206   c-0.325,0.119-0.585,0.356-0.731,0.67c-0.125,0.268-0.152,0.563-0.083,0.847c-0.561,0.286-1.109,0.604-1.632,0.945   c-0.239-0.229-0.557-0.356-0.891-0.356c-0.305,0-0.6,0.107-0.832,0.303l-0.462,0.388l-1.383-1.648   C244.44,214.864,246.409,213.713,248.545,212.902z M245.853,219.103l-1.352,1.135c-0.132,0.111-0.301,0.172-0.473,0.172   c-0.219,0-0.425-0.096-0.564-0.264c-0.262-0.312-0.221-0.778,0.091-1.038l1.352-1.135c0.132-0.111,0.301-0.172,0.474-0.172   c0.217,0,0.423,0.096,0.564,0.264C246.205,218.375,246.164,218.841,245.853,219.103z M239.699,224.177l0.442-0.765l0.44-0.763   c0.132-0.228,0.377-0.369,0.641-0.369c0.128,0,0.256,0.033,0.368,0.098c0.351,0.204,0.472,0.655,0.269,1.006l-0.882,1.528   c-0.132,0.228-0.377,0.37-0.639,0.37c-0.13,0-0.256-0.034-0.368-0.099c-0.171-0.099-0.293-0.258-0.344-0.447   C239.575,224.547,239.601,224.348,239.699,224.177z M237.651,222.297l1.868,1.079l-0.301,0.524   c-0.175,0.299-0.219,0.648-0.13,0.982c0.076,0.284,0.245,0.529,0.479,0.704c-0.247,0.58-0.464,1.174-0.646,1.775   c-0.026-0.002-0.052-0.006-0.078-0.006c-0.628,0-1.165,0.449-1.272,1.07l-0.106,0.594l-2.13-0.375   C235.765,226.378,236.558,224.242,237.651,222.297z M238.411,231.111c-0.193-0.033-0.362-0.141-0.476-0.303   s-0.156-0.356-0.123-0.549l0.307-1.738c0.063-0.353,0.368-0.609,0.724-0.609c0.042,0,0.087,0.004,0.13,0.011   c0.193,0.033,0.362,0.141,0.475,0.303s0.156,0.356,0.123,0.551l-0.306,1.738c-0.063,0.353-0.368,0.609-0.724,0.609   C238.496,231.124,238.453,231.12,238.411,231.111z M239.265,234.624l0.306,1.738c0.034,0.193-0.009,0.39-0.123,0.55   c-0.113,0.161-0.282,0.269-0.475,0.304c-0.399,0.069-0.784-0.202-0.854-0.598l-0.307-1.738c-0.07-0.401,0.197-0.783,0.598-0.854   c0.042-0.007,0.085-0.011,0.13-0.011C238.897,234.014,239.201,234.271,239.265,234.624z M239.219,241.239l0.301,0.522l-1.868,1.079   c-1.093-1.946-1.886-4.081-2.315-6.344l2.13-0.375l0.106,0.594c0.107,0.62,0.644,1.07,1.272,1.07c0.026,0,0.052-0.006,0.078-0.007   c0.182,0.602,0.399,1.197,0.646,1.777C239.048,239.94,238.886,240.665,239.219,241.239z M241.933,242.311   c-0.052,0.191-0.172,0.349-0.343,0.447c-0.111,0.065-0.24,0.099-0.368,0.099c-0.264,0-0.509-0.142-0.639-0.368l-0.882-1.528   c-0.204-0.353-0.083-0.804,0.27-1.006c0.111-0.065,0.238-0.1,0.368-0.1c0.262,0,0.507,0.141,0.639,0.369l0.882,1.528   C241.957,241.923,241.983,242.121,241.933,242.311z M248.545,252.237c-2.135-0.813-4.105-1.962-5.845-3.385l1.385-1.65l0.462,0.388   c0.232,0.197,0.527,0.303,0.83,0.303c0.336,0,0.654-0.128,0.893-0.354c0.523,0.342,1.071,0.657,1.632,0.943   c-0.152,0.631,0.191,1.29,0.815,1.517l0.566,0.207L248.545,252.237z M243.463,244.992c0.139-0.169,0.345-0.264,0.564-0.264   c0.172,0,0.339,0.061,0.473,0.172l1.352,1.135c0.15,0.126,0.243,0.303,0.26,0.5s-0.043,0.386-0.169,0.538   c-0.141,0.167-0.347,0.262-0.566,0.262c-0.171,0-0.34-0.062-0.472-0.171l-1.354-1.135   C243.242,245.768,243.201,245.302,243.463,244.992z M251.51,249.637c-0.106,0.29-0.382,0.484-0.692,0.484   c-0.085,0-0.171-0.015-0.25-0.044l-1.66-0.604c-0.381-0.139-0.579-0.563-0.44-0.943c0.105-0.292,0.384-0.486,0.692-0.486   c0.085,0,0.171,0.015,0.252,0.044l1.658,0.604C251.452,248.831,251.649,249.255,251.51,249.637z M253.89,249.736   c-0.596-0.072-1.192-0.178-1.781-0.312c0.017-0.542-0.312-1.059-0.848-1.255l-1.66-0.604c-0.141-0.052-0.29-0.078-0.442-0.078   c-0.401,0-0.772,0.189-1.014,0.494c-0.539-0.275-1.062-0.58-1.565-0.906c0.074-0.186,0.106-0.384,0.087-0.588   c-0.03-0.346-0.193-0.657-0.457-0.878l-1.352-1.134c-0.234-0.195-0.529-0.303-0.832-0.303c-0.242,0-0.476,0.067-0.676,0.189   c-0.41-0.438-0.8-0.902-1.162-1.383c0.132-0.147,0.229-0.325,0.282-0.522c0.089-0.334,0.042-0.683-0.13-0.982l-0.882-1.528   c-0.232-0.399-0.661-0.648-1.122-0.648c-0.089,0-0.176,0.013-0.262,0.03c-0.236-0.554-0.442-1.124-0.619-1.699   c0.176-0.095,0.329-0.228,0.448-0.396c0.199-0.284,0.274-0.627,0.213-0.967l-0.307-1.738c-0.098-0.557-0.54-0.973-1.082-1.053   c-0.017-0.299-0.026-0.602-0.026-0.906c0-0.303,0.009-0.605,0.026-0.906c0.542-0.08,0.984-0.496,1.082-1.051l0.307-1.738   c0.061-0.342-0.015-0.685-0.213-0.967c-0.119-0.169-0.271-0.303-0.448-0.397c0.176-0.574,0.383-1.144,0.619-1.699   c0.085,0.019,0.172,0.029,0.262,0.029c0.46,0,0.889-0.247,1.122-0.646l0.882-1.53c0.284-0.494,0.206-1.098-0.152-1.504   c0.362-0.48,0.752-0.945,1.162-1.383c0.201,0.122,0.435,0.191,0.676,0.191c0.302,0,0.598-0.107,0.832-0.303l1.352-1.134   c0.437-0.368,0.568-0.964,0.37-1.467c0.503-0.329,1.029-0.631,1.565-0.906c0.241,0.305,0.613,0.492,1.014,0.492   c0.15,0,0.301-0.026,0.442-0.078l1.658-0.604c0.325-0.119,0.585-0.356,0.731-0.668c0.087-0.188,0.126-0.386,0.121-0.585   c0.585-0.135,1.181-0.239,1.779-0.312c0.171,0.514,0.655,0.886,1.228,0.886h1.764c0.572,0,1.057-0.372,1.228-0.886   c0.598,0.072,1.193,0.176,1.78,0.312c-0.007,0.199,0.032,0.397,0.119,0.585c0.146,0.312,0.406,0.55,0.729,0.668l1.66,0.604   c0.143,0.052,0.291,0.078,0.441,0.078c0.401,0,0.772-0.188,1.015-0.492c0.536,0.275,1.06,0.578,1.564,0.906   c-0.074,0.184-0.105,0.384-0.087,0.588c0.029,0.344,0.193,0.656,0.457,0.878l1.352,1.134c0.233,0.195,0.529,0.303,0.832,0.303   c0.241,0,0.475-0.069,0.676-0.191c0.41,0.44,0.8,0.902,1.164,1.383c-0.36,0.405-0.438,1.01-0.154,1.504l0.882,1.528   c0.23,0.401,0.661,0.648,1.122,0.648c0.089,0,0.176-0.011,0.262-0.029c0.233,0.553,0.441,1.121,0.618,1.699   c-0.177,0.095-0.329,0.229-0.447,0.397c-0.197,0.282-0.273,0.625-0.214,0.965l0.307,1.74c0.098,0.555,0.538,0.973,1.084,1.055   c0.015,0.301,0.024,0.604,0.024,0.902c0,0.301-0.01,0.605-0.026,0.906c-0.542,0.08-0.984,0.496-1.082,1.053l-0.307,1.738   c-0.101,0.563,0.184,1.105,0.661,1.363c-0.177,0.58-0.385,1.147-0.618,1.699c-0.086-0.017-0.173-0.03-0.26-0.03   c-0.463,0-0.892,0.249-1.122,0.648l-0.884,1.528c-0.173,0.299-0.219,0.648-0.128,0.982c0.052,0.197,0.148,0.375,0.28,0.522   c-0.36,0.481-0.75,0.943-1.162,1.385c-0.201-0.124-0.433-0.191-0.676-0.191c-0.303,0-0.599,0.107-0.832,0.303l-1.352,1.134   c-0.264,0.221-0.428,0.533-0.457,0.878c-0.019,0.204,0.013,0.403,0.087,0.588c-0.503,0.327-1.028,0.631-1.564,0.906   c-0.242-0.305-0.613-0.494-1.015-0.494c-0.15,0-0.299,0.026-0.441,0.078l-1.658,0.604c-0.538,0.197-0.865,0.713-0.851,1.255   c-0.587,0.133-1.183,0.239-1.78,0.312c-0.171-0.514-0.655-0.886-1.228-0.886h-1.764C254.548,248.85,254.063,249.221,253.89,249.736   z M255.118,250.88c-0.407,0-0.737-0.331-0.737-0.735c0-0.407,0.331-0.737,0.737-0.737h1.764c0.407,0,0.737,0.331,0.737,0.737   c0,0.405-0.33,0.735-0.737,0.735H255.118z M270.35,299.955h-28.551l-0.574-2.571h29.699L270.35,299.955z M278.108,272.021h-44.217   c-1.742,0-3.158-1.417-3.158-3.156c0-1.742,1.417-3.159,3.158-3.159h44.217c1.741,0,3.158,1.417,3.158,3.159   C281.266,270.604,279.849,272.021,278.108,272.021z"/><path stroke="#cce3ad" d="M271.054,235.396c0.017-0.082-0.006-0.165-0.06-0.228c-0.052-0.065-0.132-0.102-0.214-0.102h-1.862   c0.021-0.106,0.039-0.214,0.058-0.321c0.002-0.021,0.006-0.039,0.01-0.06c0.024-0.148,0.046-0.299,0.064-0.449h1.924   c0.144,0,0.264-0.109,0.276-0.252c0.043-0.462,0.065-0.938,0.065-1.415c0-0.475-0.022-0.951-0.065-1.413   c-0.013-0.145-0.133-0.254-0.276-0.254h-1.924c-0.019-0.15-0.04-0.303-0.064-0.453c-0.004-0.015-0.006-0.029-0.01-0.044   c-0.019-0.111-0.037-0.223-0.058-0.332h1.862c0.082,0,0.162-0.038,0.214-0.101c0.054-0.063,0.076-0.146,0.06-0.228   c-1.35-7.238-7.682-12.491-15.055-12.491s-13.705,5.253-15.055,12.491c-0.015,0.08,0.006,0.165,0.06,0.228   c0.052,0.063,0.132,0.101,0.213,0.101h1.862c-0.021,0.104-0.037,0.209-0.056,0.315c-0.003,0.022-0.007,0.044-0.011,0.065   c-0.024,0.15-0.046,0.299-0.065,0.449h-1.923c-0.143,0-0.264,0.11-0.277,0.254c-0.042,0.462-0.065,0.938-0.065,1.413   c0,0.477,0.022,0.953,0.065,1.415c0.013,0.143,0.134,0.252,0.277,0.252h1.923c0.019,0.15,0.041,0.301,0.065,0.449   c0.004,0.022,0.008,0.043,0.011,0.065c0.019,0.106,0.035,0.212,0.056,0.316h-1.862c-0.082,0-0.162,0.037-0.213,0.102   c-0.054,0.063-0.074,0.146-0.06,0.228c1.35,7.236,7.682,12.489,15.055,12.489S269.705,242.632,271.054,235.396z M241.558,229.514   c1.428-6.803,7.449-11.705,14.442-11.705c6.992,0,13.014,4.902,14.442,11.705h-1.646c-0.667-2.794-2.254-5.329-4.499-7.154   c-2.334-1.901-5.282-2.947-8.298-2.947s-5.964,1.045-8.298,2.947c-2.243,1.825-3.833,4.36-4.499,7.154H241.558z M266.751,232.568   c0,5.929-4.824,10.75-10.751,10.75s-10.749-4.822-10.749-10.75c0-5.927,4.822-10.749,10.749-10.749   S266.751,226.641,266.751,232.568z M241.558,235.622h1.645c0.667,2.796,2.256,5.331,4.499,7.156   c2.334,1.899,5.282,2.946,8.298,2.946s5.964-1.047,8.298-2.946c2.243-1.825,3.832-4.36,4.499-7.156h1.646   c-1.429,6.803-7.45,11.705-14.442,11.705C249.007,247.327,242.986,242.426,241.558,235.622z"/><path stroke="#cce3ad" d="M260.733,229.078c0-2.027-1.648-3.676-3.676-3.676h-1.068v-1.528c0-0.154-0.125-0.279-0.278-0.279   s-0.279,0.125-0.279,0.279v1.528h-2.228v-1.528c0-0.154-0.125-0.279-0.279-0.279s-0.278,0.125-0.278,0.279v1.528h-1.103   c-0.154,0-0.278,0.125-0.278,0.279s0.125,0.278,0.278,0.278h1.103v13.033h-1.103c-0.154,0-0.278,0.125-0.278,0.278   s0.125,0.278,0.278,0.278h1.103v1.529c0,0.154,0.125,0.279,0.278,0.279s0.279-0.125,0.279-0.279v-1.529h2.228v1.715   c0,0.154,0.125,0.278,0.279,0.278s0.278-0.125,0.278-0.278v-1.715h1.068c2.027,0,3.676-1.649,3.676-3.676   c0-1.53-0.939-2.845-2.271-3.397C259.794,231.923,260.733,230.609,260.733,229.078z M260.177,235.873   c0,1.72-1.399,3.119-3.119,3.119h-3.854v-6.238h3.854c0.001,0,0.001,0,0.001,0C258.778,232.755,260.177,234.154,260.177,235.873z    M257.057,232.198c-0.001,0-0.001,0-0.002,0h-3.852v-6.238h3.854c1.72,0,3.119,1.399,3.119,3.119S258.777,232.198,257.057,232.198z   "/><path d="M233.007,267.167c-0.154,0-0.278,0.125-0.278,0.279v2.834c0,0.153,0.125,0.278,0.278,0.278s0.279-0.125,0.279-0.278v-2.834   C233.285,267.292,233.16,267.167,233.007,267.167z"/><path d="M235.759,267.167h-1.352c-0.154,0-0.278,0.125-0.278,0.279v2.834c0,0.153,0.125,0.278,0.278,0.278h1.352   c0.154,0,0.279-0.125,0.279-0.278v-2.834C236.038,267.292,235.913,267.167,235.759,267.167z M235.481,270.002h-0.795v-2.277h0.795   V270.002z"/><path d="M236.937,267.167c-0.154,0-0.278,0.125-0.278,0.279v2.834c0,0.153,0.125,0.278,0.278,0.278s0.279-0.125,0.279-0.278v-2.834   C237.216,267.292,237.091,267.167,236.937,267.167z"/><path d="M239.69,267.167h-1.353c-0.154,0-0.278,0.125-0.278,0.279v2.834c0,0.153,0.125,0.278,0.278,0.278h1.353   c0.154,0,0.278-0.125,0.278-0.278v-2.834C239.968,267.292,239.844,267.167,239.69,267.167z M239.411,270.002h-0.795v-2.277h0.795   V270.002z"/><path d="M240.867,267.167c-0.154,0-0.278,0.125-0.278,0.279v2.834c0,0.153,0.125,0.278,0.278,0.278s0.279-0.125,0.279-0.278v-2.834   C241.146,267.292,241.021,267.167,240.867,267.167z"/><path d="M243.62,267.167h-1.352c-0.154,0-0.279,0.125-0.279,0.279v2.834c0,0.153,0.125,0.278,0.279,0.278h1.352   c0.154,0,0.278-0.125,0.278-0.278v-2.834C243.898,267.292,243.774,267.167,243.62,267.167z M243.341,270.002h-0.795v-2.277h0.795   V270.002z"/><path d="M244.798,267.167c-0.154,0-0.278,0.125-0.278,0.279v2.834c0,0.153,0.125,0.278,0.278,0.278s0.279-0.125,0.279-0.278v-2.834   C245.076,267.292,244.951,267.167,244.798,267.167z"/><path d="M247.55,267.167h-1.352c-0.154,0-0.279,0.125-0.279,0.279v2.834c0,0.153,0.125,0.278,0.279,0.278h1.352   c0.154,0,0.278-0.125,0.278-0.278v-2.834C247.828,267.292,247.704,267.167,247.55,267.167z M247.271,270.002h-0.795v-2.277h0.795   V270.002z"/><path d="M248.728,267.167c-0.154,0-0.278,0.125-0.278,0.279v2.834c0,0.153,0.125,0.278,0.278,0.278s0.278-0.125,0.278-0.278v-2.834   C249.007,267.292,248.882,267.167,248.728,267.167z"/><path d="M251.48,267.167h-1.352c-0.154,0-0.279,0.125-0.279,0.279v2.834c0,0.153,0.125,0.278,0.279,0.278h1.352   c0.154,0,0.279-0.125,0.279-0.278v-2.834C251.759,267.292,251.635,267.167,251.48,267.167z M251.202,270.002h-0.795v-2.277h0.795   V270.002z"/><path d="M252.658,267.167c-0.154,0-0.278,0.125-0.278,0.279v2.834c0,0.153,0.125,0.278,0.278,0.278s0.279-0.125,0.279-0.278v-2.834   C252.937,267.292,252.812,267.167,252.658,267.167z"/><path d="M255.41,267.167h-1.352c-0.154,0-0.279,0.125-0.279,0.279v2.834c0,0.153,0.125,0.278,0.279,0.278h1.352   c0.154,0,0.279-0.125,0.279-0.278v-2.834C255.689,267.292,255.565,267.167,255.41,267.167z M255.132,270.002h-0.795v-2.277h0.795   V270.002z"/><path d="M256.589,267.167c-0.154,0-0.278,0.125-0.278,0.279v2.834c0,0.153,0.125,0.278,0.278,0.278   c0.154,0,0.278-0.125,0.278-0.278v-2.834C256.867,267.292,256.743,267.167,256.589,267.167z"/><path d="M259.341,267.167h-1.352c-0.153,0-0.278,0.125-0.278,0.279v2.834c0,0.153,0.125,0.278,0.278,0.278h1.352   c0.154,0,0.278-0.125,0.278-0.278v-2.834C259.619,267.292,259.495,267.167,259.341,267.167z M259.062,270.002h-0.795v-2.277h0.795   V270.002z"/><path d="M260.519,267.167c-0.154,0-0.278,0.125-0.278,0.279v2.834c0,0.153,0.124,0.278,0.278,0.278   c0.153,0,0.278-0.125,0.278-0.278v-2.834C260.798,267.292,260.673,267.167,260.519,267.167z"/><path d="M263.271,267.167h-1.352c-0.154,0-0.279,0.125-0.279,0.279v2.834c0,0.153,0.125,0.278,0.279,0.278h1.352   c0.153,0,0.278-0.125,0.278-0.278v-2.834C263.55,267.292,263.425,267.167,263.271,267.167z M262.993,270.002h-0.795v-2.277h0.795   V270.002z"/><path d="M264.449,267.167c-0.153,0-0.278,0.125-0.278,0.279v2.834c0,0.153,0.125,0.278,0.278,0.278   c0.154,0,0.279-0.125,0.279-0.278v-2.834C264.728,267.292,264.603,267.167,264.449,267.167z"/><path d="M267.202,267.167h-1.353c-0.153,0-0.278,0.125-0.278,0.279v2.834c0,0.153,0.125,0.278,0.278,0.278h1.353   c0.153,0,0.278-0.125,0.278-0.278v-2.834C267.48,267.292,267.355,267.167,267.202,267.167z M266.924,270.002h-0.795v-2.277h0.795   V270.002z"/><path d="M268.38,267.167c-0.153,0-0.278,0.125-0.278,0.279v2.834c0,0.153,0.125,0.278,0.278,0.278c0.154,0,0.278-0.125,0.278-0.278   v-2.834C268.658,267.292,268.534,267.167,268.38,267.167z"/><path d="M271.132,267.167h-1.352c-0.154,0-0.279,0.125-0.279,0.279v2.834c0,0.153,0.125,0.278,0.279,0.278h1.352   c0.154,0,0.279-0.125,0.279-0.278v-2.834C271.411,267.292,271.286,267.167,271.132,267.167z M270.853,270.002h-0.795v-2.277h0.795   V270.002z"/><path d="M272.31,267.167c-0.154,0-0.278,0.125-0.278,0.279v2.834c0,0.153,0.124,0.278,0.278,0.278c0.153,0,0.278-0.125,0.278-0.278   v-2.834C272.589,267.292,272.464,267.167,272.31,267.167z"/><path d="M275.062,267.167h-1.352c-0.154,0-0.279,0.125-0.279,0.279v2.834c0,0.153,0.125,0.278,0.279,0.278h1.352   c0.153,0,0.278-0.125,0.278-0.278v-2.834C275.341,267.292,275.216,267.167,275.062,267.167z M274.784,270.002h-0.795v-2.277h0.795   V270.002z"/><path d="M276.24,267.167c-0.153,0-0.278,0.125-0.278,0.279v2.834c0,0.153,0.125,0.278,0.278,0.278c0.154,0,0.279-0.125,0.279-0.278   v-2.834C276.519,267.292,276.394,267.167,276.24,267.167z"/><path d="M278.993,267.167h-1.353c-0.153,0-0.278,0.125-0.278,0.279v2.834c0,0.153,0.125,0.278,0.278,0.278h1.353   c0.153,0,0.278-0.125,0.278-0.278v-2.834C279.271,267.292,279.146,267.167,278.993,267.167z M278.715,270.002h-0.796v-2.277h0.796   V270.002z"/></g></svg>