<svg xmlns="http://www.w3.org/2000/svg" xmlns:xlink="http://www.w3.org/1999/xlink" version="1.1" x="0px" y="0px" viewBox="206 206 100 125" enable-background="new 206 206 100 100" xml:space="preserve"><g><path stroke="#cce3ad" d="M296.323,261.625c-2.584-1.368-8.741,1.517-18.301,8.572c-0.946-2.013-2.944-1.89-5.893-1.709   c-2.757,0.17-6.532,0.402-11.239-1.047c-9.386-2.887-18.786-0.629-20.724-0.103v-1.961c0-1.307-1.063-2.369-2.37-2.369h-2.365   c-1.307,0-2.369,1.063-2.369,2.369v3.955h-4.255v-4.849c0.855-0.135,1.513-0.876,1.514-1.769c0-0.989-0.805-1.794-1.792-1.794   c-0.99,0-1.794,0.805-1.794,1.794c0,0.893,0.657,1.632,1.512,1.769v5.128c0,0.019,0.002,0.04,0.006,0.059   c0.026,0.127,0.138,0.224,0.274,0.224h3.969c0.005,0,0.011-0.002,0.017-0.002h0.549v1.91h-8.24l-3.766-3.771   c0.241-0.307,0.387-0.69,0.387-1.109c0-0.989-0.805-1.794-1.792-1.794c-0.99,0-1.794,0.805-1.794,1.794   c0,0.988,0.805,1.793,1.794,1.793c0.368,0,0.709-0.112,0.995-0.303l3.863,3.869c0.052,0.052,0.124,0.082,0.198,0.082h8.355v2.628   h-4.279c-0.135-0.854-0.876-1.512-1.769-1.512c-0.989,0-1.792,0.805-1.792,1.792c0,0.989,0.803,1.795,1.792,1.795   c0.893,0,1.634-0.658,1.769-1.515h4.279v2.854h-12.579c-0.075,0-0.146,0.03-0.198,0.082l-3.114,3.114   c-0.288-0.195-0.635-0.312-1.008-0.312c-0.988,0-1.792,0.805-1.792,1.792c0,0.99,0.805,1.795,1.792,1.795   c0.99,0,1.794-0.805,1.794-1.795c0-0.412-0.142-0.791-0.379-1.096l3.021-3.021h12.463v1.813h-8.071c-0.155,0-0.28,0.125-0.28,0.28   v6.059c-0.855,0.137-1.51,0.876-1.51,1.769c0,0.987,0.803,1.792,1.792,1.792c0.99,0,1.792-0.805,1.792-1.792   c0-0.895-0.657-1.636-1.514-1.771v-5.776h7.226c0.002,0,0.002,0,0.002,0h0.564v2.461c0,1.305,1.062,2.367,2.369,2.367h2.365   c1.307,0,2.37-1.063,2.37-2.367v-1.671c1.916,0.252,12.044,1.624,16.275,3.067l0.198,0.068c2.238,0.764,4.729,1.617,7.656,1.617   c3.382,0,7.346-1.135,12.174-4.849c1.759-1.354,3.667-2.808,5.51-4.214c10.871-8.286,15.636-12.013,15.636-12.924   c0-0.043,0.002-0.101,0.006-0.168C297.647,264.082,297.719,262.365,296.323,261.625z M297.061,264.706   c-0.002,0.069-0.006,0.129-0.006,0.176c-0.272,0.952-8.667,7.351-15.414,12.494c-1.847,1.405-3.753,2.858-5.514,4.214   c-8.771,6.748-14.613,4.75-19.308,3.146l-0.197-0.069c-4.336-1.479-14.726-2.876-16.457-3.102v-13.646   c1.48-0.416,11.029-2.875,20.56,0.059c4.804,1.477,8.637,1.241,11.438,1.071c3.057-0.188,4.742-0.291,5.477,1.683   c0,0.002,0,0.002,0,0.003c0.093,0.243,0.171,0.527,0.23,0.845c0.169,0.854-0.001,1.566-0.521,2.179   c-2.287,2.695-10.448,2.453-13.52,2.363c-0.407-0.013-0.728-0.022-0.942-0.022h-3.839c-0.155,0-0.28,0.125-0.28,0.28   s0.125,0.28,0.28,0.28h3.839c0.205,0,0.522,0.009,0.926,0.021c3.145,0.095,11.501,0.342,13.964-2.56   c0.627-0.739,0.844-1.632,0.644-2.649c-0.052-0.266-0.113-0.512-0.187-0.734c11.753-8.69,16.182-9.486,17.825-8.616   C297.145,262.696,297.085,264.104,297.061,264.706z"/><path stroke="#cce3ad" d="M248.516,253.765c0.007,0.013,0.019,0.022,0.026,0.034c1.253,2.151,2.864,4.064,4.753,5.663   c0.013,0.021,0.03,0.041,0.049,0.058c0.017,0.013,0.035,0.021,0.054,0.029c3.755,3.137,8.585,5.03,13.848,5.03h0.004   c5.264,0,10.093-1.892,13.846-5.03c0.019-0.009,0.039-0.017,0.055-0.029c0.021-0.017,0.037-0.037,0.05-0.058   c1.89-1.599,3.501-3.514,4.752-5.663c0.01-0.011,0.021-0.021,0.028-0.034c0.007-0.015,0.013-0.03,0.019-0.045   c1.829-3.172,2.879-6.852,2.879-10.771s-1.05-7.597-2.879-10.771c-0.006-0.015-0.012-0.03-0.019-0.043   c-0.012-0.017-0.022-0.032-0.034-0.046c-1.251-2.146-2.86-4.056-4.746-5.652c-0.013-0.021-0.029-0.039-0.05-0.056   c-0.019-0.017-0.039-0.028-0.062-0.039c-3.753-3.133-8.579-5.021-13.839-5.021h-0.004c-5.26,0-10.086,1.888-13.838,5.021   c-0.022,0.011-0.043,0.022-0.063,0.039c-0.019,0.017-0.036,0.036-0.049,0.056c-1.886,1.596-3.495,3.506-4.746,5.652   c-0.011,0.013-0.024,0.03-0.033,0.046c-0.008,0.015-0.015,0.03-0.021,0.045c-1.83,3.172-2.877,6.85-2.877,10.769   s1.049,7.597,2.879,10.771C248.503,253.736,248.508,253.75,248.516,253.765z M253.155,252.709c-0.052,0.19-0.173,0.349-0.343,0.448   c-0.112,0.065-0.239,0.099-0.368,0.099c-0.264,0-0.508-0.142-0.639-0.37l-0.885-1.531c-0.204-0.351-0.083-0.803,0.271-1.006   c0.112-0.065,0.239-0.099,0.366-0.099c0.263,0,0.51,0.142,0.641,0.37l0.883,1.531C253.179,252.32,253.206,252.518,253.155,252.709z    M259.78,262.651c-2.139-0.814-4.112-1.966-5.854-3.391l1.385-1.65l0.463,0.389c0.233,0.195,0.528,0.304,0.833,0.304   c0.336,0,0.653-0.129,0.895-0.356c0.524,0.342,1.072,0.659,1.632,0.945c-0.149,0.633,0.194,1.292,0.817,1.52l0.568,0.207   L259.78,262.651z M255.455,257.001l-0.676-0.568c-0.31-0.261-0.351-0.728-0.089-1.038c0.14-0.168,0.345-0.263,0.563-0.263   c0.174,0,0.342,0.06,0.475,0.172l1.354,1.137c0.151,0.126,0.244,0.304,0.262,0.5c0.017,0.195-0.043,0.386-0.17,0.537   c-0.141,0.166-0.348,0.264-0.566,0.264c-0.171,0-0.34-0.062-0.472-0.174l-0.678-0.565v-0.002H255.455z M262.75,260.048   c-0.106,0.289-0.385,0.485-0.694,0.485c-0.084,0-0.17-0.015-0.25-0.045l-1.662-0.604c-0.383-0.139-0.58-0.563-0.44-0.945   c0.104-0.289,0.385-0.485,0.692-0.485c0.086,0,0.17,0.015,0.253,0.045l1.661,0.605c0.185,0.066,0.332,0.203,0.415,0.381   C262.808,259.663,262.817,259.864,262.75,260.048z M266.363,261.293c-0.405,0-0.736-0.33-0.736-0.737s0.331-0.737,0.736-0.737   h1.768c0.407,0,0.737,0.33,0.737,0.737s-0.33,0.737-0.737,0.737H266.363z M267.528,264.016v-2.162h0.603   c0.667,0,1.216-0.504,1.289-1.152c0.625-0.074,1.248-0.183,1.862-0.324c0.217,0.433,0.663,0.717,1.156,0.717   c0.151,0,0.301-0.026,0.444-0.079l0.567-0.207l0.739,2.035C272.098,263.574,269.858,263.986,267.528,264.016z M274.352,259.884   l-1.662,0.604c-0.08,0.03-0.166,0.045-0.252,0.045c-0.309,0-0.586-0.194-0.692-0.485c-0.139-0.381,0.06-0.805,0.44-0.944   l1.661-0.605c0.083-0.03,0.167-0.045,0.253-0.045c0.308,0,0.586,0.196,0.692,0.485C274.93,259.322,274.733,259.745,274.352,259.884   z M277.888,257.742c-0.219,0-0.426-0.098-0.566-0.264c-0.127-0.151-0.187-0.342-0.17-0.537c0.018-0.196,0.11-0.374,0.262-0.5   l1.354-1.137c0.133-0.112,0.301-0.172,0.475-0.172c0.219,0,0.424,0.095,0.563,0.263c0.127,0.149,0.187,0.342,0.17,0.538   c-0.017,0.196-0.11,0.374-0.26,0.5l-1.355,1.135C278.228,257.681,278.06,257.742,277.888,257.742z M280.997,258.902l-1.384-1.65   l0.462-0.389c0.267-0.224,0.429-0.536,0.459-0.881c0.026-0.297-0.049-0.586-0.213-0.831c0.429-0.459,0.836-0.943,1.214-1.445   c0.164,0.073,0.34,0.11,0.517,0.11c0.463,0,0.893-0.248,1.124-0.648l0.303-0.524l1.869,1.079   C284.182,255.676,282.709,257.423,280.997,258.902z M281.415,252.15l0.883-1.531c0.131-0.228,0.378-0.37,0.639-0.37   c0.129,0,0.256,0.036,0.368,0.099c0.172,0.099,0.293,0.257,0.344,0.448c0.052,0.19,0.024,0.389-0.073,0.56l-0.885,1.531   c-0.131,0.226-0.375,0.368-0.639,0.368c-0.129,0-0.256-0.034-0.368-0.099C281.333,252.953,281.212,252.501,281.415,252.15z    M285.465,245.265l-0.153,0.868c0,0.002,0,0.002,0,0.002c0,0.001,0,0.001,0,0.001l-0.153,0.87   c-0.062,0.353-0.367,0.609-0.724,0.609c-0.043,0-0.088-0.004-0.131-0.011c-0.192-0.034-0.362-0.142-0.475-0.305   c-0.113-0.16-0.156-0.356-0.123-0.55l0.309-1.74c0.062-0.353,0.365-0.609,0.724-0.609c0.043,0,0.086,0.004,0.129,0.011   c0.194,0.034,0.362,0.142,0.477,0.303C285.455,244.874,285.5,245.071,285.465,245.265z M286.017,240.539l-0.104-0.596l2.13-0.375   c0.18,1.102,0.274,2.231,0.274,3.381c0,1.152-0.095,2.282-0.274,3.383l-2.13-0.375l0.104-0.596c0.06-0.341-0.017-0.685-0.215-0.969   c-0.172-0.245-0.414-0.417-0.696-0.5c0.017-0.313,0.028-0.629,0.028-0.943s-0.012-0.629-0.028-0.943   C285.732,241.823,286.133,241.195,286.017,240.539z M284.867,241.49c-0.399,0.071-0.784-0.204-0.853-0.598l-0.309-1.742   c-0.033-0.194,0.01-0.388,0.123-0.551c0.112-0.161,0.28-0.269,0.475-0.302c0.043-0.008,0.088-0.012,0.131-0.012   c0.356,0,0.662,0.256,0.724,0.609l0.153,0.87l0.153,0.872C285.536,241.036,285.266,241.419,284.867,241.49z M280.997,226.999   c1.712,1.477,3.186,3.227,4.351,5.177l-1.869,1.079l-0.303-0.522c-0.229-0.4-0.661-0.648-1.124-0.648   c-0.177,0-0.353,0.037-0.517,0.108c-0.379-0.502-0.785-0.986-1.214-1.443c0.362-0.543,0.265-1.285-0.245-1.712l-0.463-0.389   L280.997,226.999z M283.648,235.104c-0.051,0.188-0.172,0.349-0.344,0.446c-0.112,0.065-0.239,0.099-0.368,0.099   c-0.261,0-0.508-0.14-0.639-0.368l-0.883-1.531c-0.099-0.17-0.125-0.37-0.074-0.56c0.052-0.19,0.174-0.35,0.343-0.446   c0.112-0.065,0.239-0.099,0.368-0.099c0.264,0,0.508,0.14,0.639,0.368l0.885,1.531C283.674,234.714,283.7,234.914,283.648,235.104z    M277.322,228.422c0.141-0.168,0.348-0.264,0.566-0.264c0.172,0,0.34,0.06,0.472,0.172l1.355,1.137   c0.311,0.261,0.352,0.726,0.09,1.038c-0.14,0.168-0.345,0.263-0.563,0.263c-0.174,0-0.342-0.062-0.475-0.172l-1.354-1.137   C277.102,229.198,277.061,228.732,277.322,228.422z M274.793,226.96c-0.106,0.291-0.385,0.485-0.692,0.485   c-0.086,0-0.17-0.015-0.253-0.045l-1.661-0.605c-0.381-0.138-0.579-0.562-0.44-0.945c0.106-0.289,0.384-0.483,0.692-0.483   c0.086,0,0.172,0.015,0.252,0.045l1.662,0.603C274.735,226.156,274.93,226.579,274.793,226.96z M267.528,221.885   c2.33,0.03,4.57,0.44,6.661,1.172l-0.739,2.033l-0.567-0.205c-0.144-0.053-0.293-0.079-0.444-0.079   c-0.493,0-0.939,0.284-1.156,0.717c-0.612-0.142-1.235-0.25-1.862-0.327c-0.073-0.646-0.622-1.15-1.289-1.15h-0.603V221.885z    M266.363,224.608h1.768c0.407,0,0.737,0.331,0.737,0.737c0,0.405-0.33,0.736-0.737,0.736h-1.768c-0.405,0-0.736-0.331-0.736-0.736   C265.627,224.938,265.958,224.608,266.363,224.608z M262.057,225.365c0.308,0,0.586,0.196,0.692,0.485   c0.139,0.383-0.06,0.807-0.44,0.945l-1.661,0.605c-0.083,0.03-0.167,0.045-0.253,0.045c-0.308,0-0.586-0.194-0.692-0.485   c-0.067-0.185-0.058-0.385,0.024-0.564c0.084-0.177,0.231-0.314,0.416-0.381l1.662-0.605   C261.885,225.381,261.971,225.365,262.057,225.365z M259.78,223.25l0.739,2.033l-0.566,0.206c-0.326,0.119-0.586,0.356-0.733,0.67   c-0.125,0.269-0.153,0.566-0.084,0.85c-0.561,0.286-1.107,0.603-1.634,0.947c-0.241-0.229-0.559-0.357-0.895-0.357   c-0.304,0-0.599,0.107-0.833,0.303l-0.463,0.388l-1.385-1.65C255.668,225.214,257.641,224.062,259.78,223.25z M257.082,229.46   l-1.354,1.137c-0.133,0.11-0.301,0.172-0.475,0.172c-0.218,0-0.424-0.095-0.563-0.263c-0.262-0.312-0.221-0.777,0.089-1.038   l1.355-1.137c0.132-0.112,0.301-0.172,0.472-0.172c0.219,0,0.426,0.096,0.566,0.264   C257.434,228.732,257.393,229.198,257.082,229.46z M253.566,234.031c0.286-0.495,0.207-1.102-0.153-1.508   c0.364-0.48,0.754-0.945,1.165-1.384c0.2,0.124,0.433,0.19,0.676,0.19c0.305,0,0.602-0.108,0.835-0.304l1.354-1.135   c0.438-0.368,0.571-0.965,0.371-1.471c0.506-0.329,1.031-0.631,1.566-0.905c0.241,0.304,0.614,0.493,1.016,0.493   c0.151,0,0.301-0.026,0.444-0.079l1.66-0.604c0.538-0.196,0.868-0.711,0.854-1.257c0.586-0.134,1.182-0.239,1.781-0.312   c0.172,0.515,0.657,0.887,1.229,0.887h1.768c0.573,0,1.059-0.372,1.23-0.887c0.6,0.073,1.195,0.177,1.781,0.312   c-0.015,0.543,0.315,1.061,0.854,1.257l1.659,0.604c0.145,0.052,0.294,0.079,0.445,0.079c0.401,0,0.774-0.188,1.016-0.493   c0.537,0.274,1.06,0.579,1.566,0.905c-0.2,0.506-0.067,1.104,0.371,1.471l1.354,1.135c0.233,0.196,0.53,0.304,0.835,0.304   c0.24,0,0.474-0.067,0.676-0.19c0.41,0.439,0.801,0.902,1.165,1.384c-0.133,0.149-0.229,0.327-0.284,0.524   c-0.09,0.334-0.043,0.684,0.131,0.984l0.883,1.531c0.232,0.399,0.663,0.647,1.124,0.647c0.09,0,0.176-0.011,0.262-0.028   c0.235,0.553,0.442,1.122,0.62,1.699c-0.178,0.095-0.331,0.229-0.448,0.397c-0.2,0.284-0.274,0.627-0.215,0.969l0.307,1.742   c0.099,0.557,0.541,0.975,1.086,1.055c0.016,0.3,0.026,0.605,0.026,0.905c0,0.303-0.011,0.605-0.026,0.907   c-0.545,0.081-0.987,0.497-1.086,1.055l-0.307,1.74c-0.06,0.341,0.015,0.685,0.215,0.969c0.117,0.17,0.271,0.304,0.448,0.399   c-0.178,0.577-0.385,1.146-0.62,1.699c-0.086-0.017-0.172-0.03-0.262-0.03c-0.461,0-0.892,0.248-1.124,0.649l-0.883,1.531   c-0.285,0.495-0.207,1.1,0.153,1.507c-0.364,0.481-0.755,0.944-1.165,1.385c-0.2-0.124-0.434-0.19-0.676-0.19   c-0.305,0-0.602,0.106-0.835,0.302l-1.354,1.137c-0.265,0.222-0.43,0.536-0.459,0.881c-0.017,0.203,0.013,0.403,0.088,0.588   c-0.507,0.329-1.029,0.633-1.566,0.907c-0.241-0.306-0.614-0.494-1.016-0.494c-0.151,0-0.301,0.027-0.445,0.08l-1.659,0.603   c-0.538,0.196-0.868,0.714-0.854,1.257c-0.586,0.135-1.184,0.239-1.781,0.312c-0.172-0.513-0.657-0.887-1.23-0.887h-1.768   c-0.571,0-1.057,0.374-1.229,0.887c-0.598-0.072-1.195-0.177-1.781-0.312c0.006-0.2-0.034-0.399-0.121-0.586   c-0.146-0.313-0.405-0.551-0.732-0.671l-1.66-0.604c-0.144-0.053-0.293-0.078-0.444-0.078c-0.401,0-0.774,0.188-1.018,0.494   c-0.535-0.274-1.06-0.578-1.564-0.907c0.075-0.185,0.104-0.385,0.088-0.588c-0.031-0.346-0.194-0.659-0.459-0.881l-1.354-1.137   c-0.233-0.196-0.53-0.302-0.835-0.302c-0.243,0-0.474,0.067-0.676,0.19c-0.411-0.441-0.801-0.904-1.165-1.385   c0.133-0.147,0.229-0.325,0.284-0.523c0.09-0.336,0.043-0.685-0.13-0.984l-0.883-1.533c-0.231-0.4-0.663-0.648-1.126-0.648   c-0.087,0-0.173,0.011-0.259,0.03c-0.235-0.555-0.442-1.126-0.62-1.701c0.48-0.258,0.762-0.803,0.663-1.367l-0.306-1.74   c-0.099-0.558-0.542-0.975-1.087-1.055c-0.015-0.3-0.026-0.604-0.026-0.907c0-0.302,0.011-0.605,0.026-0.905   c0.545-0.081,0.988-0.499,1.087-1.055l0.306-1.742c0.06-0.342-0.017-0.686-0.215-0.969c-0.118-0.168-0.271-0.302-0.448-0.397   c0.178-0.575,0.385-1.145,0.62-1.701c0.086,0.019,0.172,0.03,0.261,0.03c0.461,0,0.893-0.248,1.124-0.647L253.566,234.031z    M249.152,244.714c0.112-0.161,0.282-0.269,0.477-0.303c0.042-0.007,0.085-0.011,0.128-0.011c0.358,0,0.663,0.256,0.725,0.609   l0.308,1.74c0.071,0.401-0.198,0.784-0.598,0.855c-0.399,0.069-0.786-0.204-0.855-0.598l-0.306-1.742   C248.995,245.071,249.04,244.874,249.152,244.714z M249.031,240.635l0.306-1.74c0.062-0.353,0.368-0.609,0.725-0.609   c0.042,0,0.085,0.004,0.128,0.012c0.194,0.033,0.364,0.142,0.477,0.302c0.114,0.163,0.157,0.356,0.123,0.551l-0.308,1.742   c-0.062,0.353-0.366,0.609-0.725,0.609c-0.043,0-0.086-0.004-0.128-0.011c-0.194-0.034-0.364-0.142-0.477-0.302   C249.038,241.025,248.995,240.828,249.031,240.635z M250.921,234.544l0.885-1.531c0.131-0.228,0.375-0.368,0.639-0.368   c0.129,0,0.255,0.034,0.368,0.097c0.351,0.204,0.472,0.655,0.269,1.008l-0.883,1.531c-0.131,0.228-0.377,0.368-0.639,0.368   c-0.129,0-0.256-0.034-0.368-0.099c-0.172-0.099-0.293-0.258-0.344-0.446C250.795,234.914,250.822,234.714,250.921,234.544z    M248.866,232.662l1.871,1.079l-0.303,0.523c-0.171,0.301-0.218,0.65-0.128,0.984c0.076,0.286,0.244,0.532,0.479,0.706   c-0.248,0.581-0.465,1.176-0.648,1.777c-0.026,0-0.05-0.006-0.076-0.006c-0.629,0-1.167,0.45-1.277,1.072l-0.104,0.596   l-2.132-0.377C246.979,236.749,247.773,234.61,248.866,232.662z M248.68,246.508l0.106,0.596c0.108,0.62,0.646,1.072,1.275,1.072   c0.026,0,0.052-0.006,0.076-0.008c0.183,0.603,0.4,1.199,0.648,1.78c-0.522,0.386-0.683,1.112-0.351,1.688l0.303,0.523   l-1.871,1.081c-1.094-1.949-1.887-4.089-2.317-6.355L248.68,246.508z"/><path stroke="#cce3ad" d="M252.225,240.349c0.052,0.063,0.133,0.101,0.215,0.101h1.865c-0.022,0.11-0.041,0.22-0.06,0.331   c-0.002,0.015-0.004,0.028-0.008,0.043c-0.024,0.151-0.046,0.304-0.065,0.456h-1.925c-0.146,0-0.265,0.11-0.28,0.254   c-0.043,0.463-0.063,0.939-0.063,1.417s0.021,0.954,0.063,1.417c0.015,0.144,0.134,0.254,0.28,0.254h1.925   c0.019,0.153,0.042,0.305,0.065,0.456c0.004,0.015,0.006,0.032,0.009,0.047c0.019,0.11,0.036,0.22,0.058,0.329h-1.865   c-0.082,0-0.163,0.036-0.215,0.101c-0.054,0.063-0.075,0.147-0.06,0.23c1.352,7.25,7.694,12.511,15.082,12.511   c7.386,0,13.73-5.262,15.082-12.511c0.015-0.083-0.006-0.167-0.06-0.23c-0.053-0.065-0.133-0.101-0.215-0.101h-1.865   c0.021-0.108,0.039-0.215,0.058-0.323c0.002-0.019,0.006-0.037,0.01-0.056c0.024-0.151,0.047-0.301,0.065-0.452h1.925   c0.146,0,0.265-0.11,0.28-0.254c0.043-0.461,0.063-0.937,0.063-1.417s-0.021-0.956-0.063-1.417   c-0.016-0.144-0.135-0.254-0.28-0.254h-1.925c-0.019-0.149-0.041-0.299-0.065-0.448c-0.004-0.022-0.008-0.043-0.012-0.065   c-0.019-0.106-0.035-0.211-0.056-0.315h1.865c0.082,0,0.162-0.037,0.215-0.101c0.054-0.065,0.074-0.149,0.06-0.231   c-1.352-7.25-7.696-12.511-15.082-12.511c-7.388,0-13.73,5.261-15.082,12.511C252.151,240.199,252.172,240.283,252.225,240.349z    M281.714,246.011c-1.432,6.813-7.463,11.721-14.466,11.721c-7.005,0-13.034-4.908-14.466-11.721h1.646   c0.667,2.799,2.259,5.338,4.505,7.166c2.34,1.905,5.293,2.954,8.314,2.954c3.021,0,5.975-1.049,8.313-2.954   c2.246-1.828,3.839-4.367,4.506-7.166H281.714z M256.481,242.949c0-5.937,4.83-10.767,10.767-10.767s10.768,4.83,10.768,10.767   c0,5.938-4.83,10.768-10.768,10.768S256.481,248.887,256.481,242.949z M267.248,228.166c7.003,0,13.034,4.91,14.466,11.723h-1.646   c-0.667-2.801-2.26-5.338-4.506-7.167c-2.339-1.904-5.293-2.952-8.313-2.952c-3.021,0-5.975,1.048-8.314,2.952   c-2.246,1.83-3.838,4.367-4.505,7.167h-1.646C254.214,233.076,260.243,228.166,267.248,228.166z"/><path stroke="#cce3ad" d="M262.785,249.384c-0.155,0-0.28,0.125-0.28,0.28s0.125,0.28,0.28,0.28h1.103v1.531c0,0.154,0.126,0.28,0.28,0.28   s0.28-0.125,0.28-0.28v-1.531h2.229v1.717c0,0.155,0.126,0.28,0.28,0.28c0.155,0,0.28-0.125,0.28-0.28v-1.717h1.069   c2.031,0,3.684-1.652,3.684-3.683c0-1.533-0.94-2.849-2.274-3.404c1.334-0.554,2.274-1.871,2.274-3.403   c0-2.031-1.652-3.684-3.684-3.684h-1.069v-1.53c0-0.155-0.125-0.28-0.28-0.28c-0.154,0-0.28,0.125-0.28,0.28v1.53h-2.229v-1.53   c0-0.154-0.126-0.28-0.28-0.28s-0.28,0.125-0.28,0.28v1.53h-1.103c-0.155,0-0.28,0.125-0.28,0.28s0.125,0.28,0.28,0.28h1.103   v13.054H262.785z M264.448,236.33h3.859c1.723,0,3.123,1.401,3.123,3.124s-1.4,3.124-3.123,3.124c-0.001,0-0.001,0-0.002,0h-3.857   V236.33z M264.448,243.137h3.859h0.001c1.722,0,3.122,1.401,3.122,3.124s-1.4,3.123-3.123,3.123h-3.859V243.137z"/></g></svg>