<svg xmlns="http://www.w3.org/2000/svg" data-name="Layer 2" viewBox="0 0 100 125" x="0px" y="0px"><title>blockchain_2_exp</title><path d="M80.98291,70.00928l-3.18848-1.90137a.99745.99745,0,0,0-.89746-.064l-4.011,1.67474L67.80127,68.208a.99714.99714,0,0,0-.72266.05957l-12.0332,5.8612-5.874.82972-4.78418-3.0127,11.14453-7.99805a.99914.99914,0,0,0,.40918-.93554l-.43262-3.48682a.99905.99905,0,0,0-.88086-.8706l-3.13476-.35108a.97562.97562,0,0,0-.40625.03809l-19.541,6.02685a.99648.99648,0,0,0-.376.21436L25.18408,70H19.65967a1,1,0,0,0,0,2h5.91015a.99885.99885,0,0,0,.6709-.25879l6.10645-5.52685,19.12988-5.89991,2.14356.23975L53.8833,62.669,42.01416,71.1875a.99965.99965,0,0,0,.0498,1.65869l6.35157,4a1.0114,1.0114,0,0,0,.67285.144l17.3623-2.45263a1.02148,1.02148,0,0,0,.2461-.06739L77.20361,70.0835l1.57422.939L65.29736,82.83838,49.33252,88H14.65967a1,1,0,0,0,0,2H49.48975a1.01248,1.01248,0,0,0,.30761-.04834l16.31153-5.27344a.99912.99912,0,0,0,.35156-.1997l14.66992-12.8584a.99936.99936,0,0,0-.14746-1.61084ZM66.04443,72.5752l-4.56793.6452,6.1275-2.98456,2.36231.70184ZM54.65967,24a7,7,0,1,0-7-7A7.00818,7.00818,0,0,0,54.65967,24Zm0-12a5,5,0,1,1-5,5A5.00589,5.00589,0,0,1,54.65967,12Zm-16,33a7,7,0,1,0-7-7A7.00818,7.00818,0,0,0,38.65967,45Zm0-12a5,5,0,1,1-5,5A5.00589,5.00589,0,0,1,38.65967,33ZM76.03394,44.597a2.56709,2.56709,0,0,0,.30639-1.19854V39.60156A2.60442,2.60442,0,0,0,73.73877,37H72.34033V35a1,1,0,0,0-2,0v2h-1V35a1,1,0,0,0-2,0v2h-1a.99974.99974,0,0,0-1,1v1h-1a1,1,0,1,0,0,2h1V51h-1a1,1,0,1,0,0,2h3v2a1,1,0,0,0,2,0V53h1v2a1,1,0,0,0,2,0V53h1.33789a3.66585,3.66585,0,0,0,3.66211-3.66162v-2.209A3.1203,3.1203,0,0,0,76.03394,44.597ZM67.34033,39h6.39844a.60213.60213,0,0,1,.60156.60156v3.79688A.60213.60213,0,0,1,73.73877,44H67.34033Zm8,10.33838A1.66419,1.66419,0,0,1,73.67822,51H67.34033V46h6.87012a1.131,1.131,0,0,1,1.12988,1.12939ZM70.34033,29a16,16,0,1,0,16,16A16.01833,16.01833,0,0,0,70.34033,29Zm0,30a14,14,0,1,1,14-14A14.01573,14.01573,0,0,1,70.34033,59Z"/></svg>