<svg xmlns="http://www.w3.org/2000/svg" xmlns:xlink="http://www.w3.org/1999/xlink" version="1.1" x="0px" y="0px" viewBox="206 206 100 125" enable-background="new 206 206 100 100" xml:space="preserve"><g><path stroke="#cce3ad" d="M221.046,239.051c0.054,0.063,0.133,0.101,0.215,0.101h2.041c-0.022,0.116-0.043,0.235-0.063,0.355   c-0.003,0.026-0.009,0.054-0.013,0.082c-0.028,0.167-0.052,0.335-0.073,0.503h-2.098c-0.146,0-0.266,0.11-0.28,0.254   c-0.045,0.501-0.069,1.015-0.069,1.529c0,0.512,0.024,1.026,0.069,1.527c0.015,0.144,0.134,0.254,0.28,0.254h2.096   c0.022,0.17,0.047,0.338,0.075,0.506c0.004,0.024,0.01,0.049,0.013,0.073c0.021,0.121,0.042,0.243,0.063,0.36h-2.041   c-0.082,0-0.161,0.038-0.215,0.103c-0.052,0.063-0.075,0.147-0.06,0.229c1.459,7.819,8.299,13.492,16.265,13.492   c7.964,0,14.806-5.673,16.265-13.492c0.015-0.082-0.008-0.166-0.062-0.229c-0.052-0.065-0.13-0.103-0.215-0.103h-2.039   c0.022-0.12,0.043-0.241,0.063-0.362c0.004-0.022,0.008-0.047,0.013-0.069c0.026-0.168,0.05-0.338,0.073-0.508h2.099   c0.144,0,0.266-0.11,0.278-0.254c0.047-0.499,0.069-1.013,0.069-1.527c0-0.516-0.022-1.03-0.069-1.529   c-0.013-0.144-0.134-0.254-0.278-0.254h-2.099c-0.022-0.17-0.046-0.338-0.073-0.506c-0.005-0.024-0.009-0.047-0.013-0.071   c-0.021-0.121-0.041-0.243-0.063-0.362h2.039c0.084,0,0.163-0.038,0.215-0.101c0.054-0.065,0.077-0.149,0.062-0.231   c-1.459-7.817-8.301-13.492-16.265-13.492c-7.966,0-14.806,5.675-16.265,13.492C220.971,238.902,220.993,238.986,221.046,239.051z    M252.9,245.156c-1.54,7.381-8.065,12.704-15.648,12.704c-7.583,0-14.111-5.322-15.648-12.704h1.822   c0.718,3.027,2.435,5.771,4.862,7.746c2.523,2.052,5.705,3.182,8.964,3.182c3.257,0,6.439-1.13,8.962-3.182   c2.428-1.976,4.147-4.72,4.863-7.746H252.9z M225.602,241.875c0-6.425,5.225-11.649,11.649-11.649   c6.422,0,11.647,5.225,11.647,11.649c0,6.423-5.225,11.647-11.647,11.647C230.826,253.522,225.602,248.298,225.602,241.875z    M237.251,225.888c7.581,0,14.108,5.322,15.648,12.704h-1.824c-0.716-3.025-2.435-5.769-4.863-7.744   c-2.522-2.054-5.705-3.184-8.962-3.184c-3.259,0-6.441,1.13-8.964,3.184c-2.427,1.976-4.145,4.719-4.862,7.744h-1.822   C223.14,231.21,229.668,225.888,237.251,225.888z"/><path stroke="#cce3ad" d="M232.431,248.844c-0.155,0-0.281,0.125-0.281,0.28s0.125,0.28,0.281,0.28h1.213v1.675c0,0.155,0.125,0.28,0.28,0.28   s0.28-0.125,0.28-0.28v-1.675h2.453v1.875c0,0.155,0.125,0.28,0.28,0.28s0.28-0.125,0.28-0.28v-1.875h1.177   c2.181,0,3.956-1.774,3.956-3.955c0-1.665-1.034-3.093-2.493-3.676c1.459-0.583,2.493-2.01,2.493-3.675   c0-2.181-1.774-3.956-3.956-3.956h-1.177v-1.675c0-0.155-0.125-0.28-0.28-0.28s-0.28,0.125-0.28,0.28v1.675h-2.453v-1.675   c0-0.155-0.125-0.28-0.28-0.28s-0.28,0.125-0.28,0.28v1.675h-1.213c-0.155,0-0.281,0.125-0.281,0.28s0.125,0.28,0.281,0.28h1.213   v14.14H232.431z M234.205,234.704h4.19c1.872,0,3.395,1.523,3.395,3.395c0,1.872-1.523,3.395-3.395,3.395h-4.19V234.704z    M234.205,242.054h4.19c1.872,0,3.395,1.523,3.395,3.396c0,1.872-1.523,3.395-3.395,3.395h-4.19V242.054z"/><path stroke="#cce3ad" d="M293.971,256.97v-9.429c0-5.625-4.576-10.201-10.201-10.201h-23.63c-0.5-2.534-1.412-4.92-2.662-7.088   c-0.006-0.015-0.012-0.03-0.021-0.044c-0.01-0.017-0.021-0.032-0.034-0.047c-1.349-2.315-3.087-4.378-5.122-6.102   c-0.015-0.021-0.032-0.041-0.052-0.06c-0.021-0.017-0.043-0.028-0.065-0.039c-4.049-3.381-9.256-5.417-14.929-5.419   c-0.001,0-0.003,0-0.003,0c-0.002,0-0.004,0-0.004,0c-5.675,0.002-10.881,2.039-14.929,5.419c-0.024,0.011-0.046,0.022-0.067,0.039   c-0.021,0.019-0.038,0.039-0.051,0.06c-2.035,1.723-3.773,3.786-5.122,6.102c-0.013,0.015-0.026,0.03-0.036,0.047   c-0.009,0.017-0.015,0.032-0.021,0.048c-1.975,3.423-3.105,7.391-3.105,11.62c0,3.777,0.904,7.346,2.504,10.506v30.878   c0,5.625,4.577,10.201,10.201,10.201h57.148c5.625,0,10.201-4.576,10.201-10.201v-9.43c2.331-0.401,4.111-2.435,4.111-4.879v-7.102   C298.083,259.405,296.302,257.37,293.971,256.97z M257.268,240.303c0.212-0.301,0.292-0.667,0.229-1.029l-0.118-0.664l2.346-0.415   c0.196,1.198,0.299,2.427,0.299,3.679s-0.103,2.48-0.299,3.678l-2.346-0.413l0.118-0.666c0.123-0.702-0.313-1.377-0.985-1.566   c0.019-0.342,0.03-0.688,0.03-1.033s-0.012-0.691-0.03-1.035C256.818,240.755,257.084,240.569,257.268,240.303z M251.087,256.88   c0.282-0.237,0.456-0.57,0.487-0.936c0.028-0.321-0.054-0.635-0.233-0.899c0.469-0.502,0.916-1.033,1.331-1.584   c0.178,0.081,0.37,0.125,0.564,0.125c0.491,0,0.949-0.265,1.194-0.689l0.338-0.585l2.058,1.188c-1.267,2.123-2.867,4.024-4.73,5.63   l-1.525-1.816L251.087,256.88z M249.265,257.678c-0.147,0.124-0.333,0.191-0.525,0.191c-0.243,0-0.471-0.107-0.628-0.292   c-0.29-0.346-0.245-0.863,0.101-1.153l1.463-1.228c0.148-0.123,0.334-0.19,0.525-0.19c0.243,0,0.471,0.106,0.627,0.292   c0.141,0.168,0.208,0.379,0.187,0.598c-0.019,0.217-0.122,0.415-0.288,0.555L249.265,257.678z M252.528,251.798l0.955-1.654   c0.146-0.252,0.418-0.409,0.71-0.409c0.142,0,0.284,0.037,0.407,0.11c0.191,0.108,0.325,0.286,0.381,0.497   c0.056,0.211,0.028,0.432-0.082,0.62l-0.953,1.654c-0.146,0.252-0.418,0.409-0.71,0.409c-0.142,0-0.284-0.039-0.408-0.11   c-0.19-0.11-0.325-0.286-0.381-0.497C252.389,252.207,252.419,251.986,252.528,251.798z M256.613,246.257   c-0.079,0.439-0.503,0.744-0.948,0.664c-0.217-0.037-0.404-0.157-0.529-0.336c-0.125-0.177-0.174-0.396-0.135-0.611l0.331-1.88   c0.069-0.393,0.407-0.677,0.804-0.677c0.048,0,0.095,0.006,0.144,0.013c0.444,0.079,0.742,0.503,0.663,0.947L256.613,246.257z    M256.809,239.982c-0.126,0.18-0.314,0.299-0.529,0.336c-0.047,0.009-0.095,0.013-0.142,0.013c-0.398,0-0.736-0.284-0.805-0.677   l-0.331-1.88c-0.039-0.215,0.009-0.432,0.135-0.611c0.125-0.179,0.314-0.299,0.529-0.336c0.047-0.009,0.095-0.013,0.144-0.013   c0.396,0,0.734,0.284,0.804,0.677l0.33,1.88C256.982,239.586,256.934,239.802,256.809,239.982z M252.096,224.619   c1.863,1.605,3.463,3.505,4.73,5.63l-2.058,1.187l-0.336-0.583c-0.247-0.426-0.705-0.689-1.196-0.689   c-0.194,0-0.387,0.043-0.564,0.123c-0.415-0.551-0.861-1.082-1.331-1.584c0.179-0.262,0.262-0.578,0.233-0.899   c-0.032-0.366-0.205-0.699-0.486-0.935l-0.518-0.433L252.096,224.619z M254.602,233.903c-0.125,0.073-0.267,0.11-0.409,0.11   c-0.292,0-0.564-0.157-0.71-0.409l-0.953-1.654c-0.226-0.391-0.091-0.891,0.299-1.116c0.124-0.073,0.266-0.11,0.408-0.11   c0.292,0,0.564,0.157,0.71,0.409l0.955,1.654C255.125,233.176,254.99,233.678,254.602,233.903z M248.112,226.172   c0.157-0.187,0.385-0.293,0.628-0.293c0.192,0,0.377,0.069,0.525,0.192l1.463,1.228c0.166,0.14,0.269,0.336,0.288,0.555   c0.021,0.217-0.046,0.43-0.187,0.596c-0.157,0.187-0.385,0.293-0.627,0.293c-0.193,0-0.377-0.069-0.525-0.192l-1.463-1.226   c-0.166-0.142-0.269-0.338-0.288-0.557C247.906,226.552,247.972,226.34,248.112,226.172z M245.391,223.991   c0.091,0.198,0.103,0.418,0.028,0.624c-0.118,0.323-0.428,0.54-0.77,0.54c-0.095,0-0.188-0.017-0.278-0.05l-1.796-0.652   c-0.204-0.075-0.368-0.226-0.461-0.424c-0.092-0.198-0.101-0.418-0.026-0.626c0.118-0.321,0.426-0.538,0.768-0.538   c0.095,0,0.189,0.017,0.28,0.05l1.794,0.652C245.135,223.642,245.3,223.793,245.391,223.991z M237.531,219.105   c2.534,0.032,4.971,0.479,7.243,1.276l-0.813,2.237l-0.635-0.23c-0.151-0.056-0.311-0.084-0.471-0.084   c-0.529,0-1.007,0.31-1.237,0.779c-0.671-0.157-1.355-0.277-2.042-0.359c-0.069-0.695-0.658-1.239-1.37-1.239h-0.674V219.105z    M236.296,222.046h1.91c0.451,0,0.817,0.366,0.817,0.816c0,0.452-0.366,0.818-0.818,0.818h-1.908c-0.45,0-0.818-0.366-0.818-0.818   C235.478,222.412,235.846,222.046,236.296,222.046z M230.469,223.24l0.895-0.325c0.092-0.034,0.185-0.05,0.28-0.05   c0.342,0,0.652,0.217,0.77,0.538c0.075,0.206,0.063,0.428-0.028,0.626c-0.092,0.198-0.256,0.35-0.461,0.424l-1.794,0.652   c-0.091,0.034-0.185,0.05-0.28,0.05c-0.342,0-0.652-0.217-0.768-0.54c-0.155-0.424,0.065-0.893,0.49-1.048l0.895-0.325   C230.469,223.242,230.469,223.24,230.469,223.24z M229.199,220.573l0.814,2.237l-0.633,0.23c-0.669,0.243-1.037,0.955-0.865,1.631   c-0.617,0.314-1.216,0.662-1.792,1.039c-0.256-0.25-0.6-0.393-0.962-0.393c-0.321,0-0.637,0.116-0.886,0.323l-0.516,0.434   l-1.523-1.816C224.727,222.707,226.872,221.455,229.199,220.573z M226.287,227.325l-1.461,1.226   c-0.147,0.123-0.334,0.192-0.527,0.192c-0.243,0-0.471-0.106-0.626-0.293c-0.29-0.346-0.245-0.861,0.101-1.153l1.461-1.226   c0.147-0.123,0.334-0.192,0.525-0.192c0.243,0,0.473,0.106,0.628,0.293C226.678,226.518,226.633,227.033,226.287,227.325z    M222.458,232.232c0.307-0.533,0.217-1.185-0.173-1.616c0.4-0.531,0.828-1.043,1.282-1.525c0.217,0.136,0.469,0.213,0.732,0.213   c0.323,0,0.639-0.116,0.886-0.323l1.463-1.228c0.471-0.395,0.609-1.039,0.389-1.579c0.555-0.361,1.13-0.695,1.723-0.998   c0.256,0.333,0.658,0.54,1.091,0.54c0.161,0,0.32-0.03,0.473-0.084l1.794-0.654c0.346-0.125,0.622-0.377,0.777-0.712   c0.095-0.204,0.136-0.422,0.127-0.641c0.646-0.15,1.302-0.264,1.96-0.342c0.177,0.555,0.699,0.958,1.313,0.958h1.908   c0.615,0,1.136-0.403,1.313-0.958c0.66,0.079,1.315,0.194,1.96,0.342c-0.009,0.218,0.034,0.437,0.129,0.641   c0.155,0.334,0.432,0.587,0.777,0.712l1.794,0.654c0.151,0.056,0.31,0.084,0.471,0.084c0.434,0,0.835-0.208,1.093-0.54   c0.59,0.303,1.168,0.637,1.721,0.998c-0.083,0.202-0.118,0.42-0.097,0.645c0.032,0.366,0.206,0.699,0.486,0.935l1.463,1.228   c0.249,0.208,0.563,0.323,0.886,0.323c0.263,0,0.518-0.077,0.734-0.213c0.452,0.482,0.882,0.994,1.282,1.525   c-0.393,0.432-0.48,1.083-0.174,1.614l0.955,1.654c0.245,0.426,0.703,0.689,1.194,0.689c0.099,0,0.198-0.013,0.295-0.033   c0.26,0.607,0.488,1.235,0.68,1.87c-0.192,0.101-0.363,0.247-0.492,0.432c-0.211,0.301-0.292,0.667-0.228,1.029l0.333,1.88   c0.104,0.598,0.583,1.046,1.171,1.127c0.017,0.331,0.028,0.664,0.028,0.996s-0.011,0.666-0.028,0.996   c-0.588,0.079-1.067,0.527-1.171,1.125l-0.333,1.88c-0.064,0.362,0.017,0.729,0.228,1.03c0.129,0.185,0.299,0.331,0.492,0.432   c-0.192,0.635-0.42,1.263-0.68,1.872c-0.097-0.022-0.196-0.035-0.295-0.035c-0.491,0-0.949,0.265-1.194,0.689l-0.955,1.654   c-0.185,0.317-0.233,0.689-0.138,1.046c0.058,0.215,0.165,0.409,0.312,0.57c-0.4,0.529-0.83,1.041-1.282,1.525   c-0.217-0.138-0.471-0.213-0.734-0.213c-0.323,0-0.637,0.114-0.886,0.321l-1.461,1.228c-0.471,0.394-0.611,1.039-0.391,1.579   c-0.553,0.36-1.131,0.695-1.721,0.998c-0.258-0.332-0.66-0.538-1.093-0.538c-0.161,0-0.319,0.028-0.471,0.084l-1.794,0.652   c-0.346,0.125-0.623,0.379-0.777,0.712c-0.095,0.203-0.138,0.422-0.129,0.641c-0.645,0.149-1.301,0.264-1.96,0.344   c-0.177-0.557-0.699-0.96-1.312-0.96h-1.91c-0.613,0-1.134,0.403-1.313,0.96c-0.658-0.08-1.316-0.194-1.96-0.344   c0.009-0.219-0.032-0.438-0.127-0.641c-0.155-0.333-0.432-0.587-0.777-0.712l-1.794-0.654c-0.153-0.054-0.312-0.082-0.473-0.082   c-0.433,0-0.835,0.206-1.091,0.538c-0.592-0.303-1.169-0.638-1.723-0.998c0.084-0.201,0.118-0.42,0.099-0.643   c-0.034-0.368-0.206-0.699-0.488-0.936l-1.463-1.228c-0.247-0.208-0.563-0.321-0.884-0.321c-0.265,0-0.518,0.075-0.734,0.211   c-0.454-0.482-0.882-0.992-1.282-1.523c0.39-0.432,0.48-1.085,0.173-1.616l-0.955-1.654c-0.245-0.426-0.705-0.689-1.196-0.689   c-0.099,0-0.196,0.013-0.293,0.035c-0.26-0.611-0.488-1.237-0.682-1.872c0.518-0.271,0.826-0.856,0.719-1.461l-0.331-1.88   c-0.106-0.598-0.585-1.046-1.172-1.125c-0.017-0.331-0.03-0.666-0.03-0.996c0-0.334,0.013-0.667,0.03-0.996   c0.587-0.079,1.065-0.527,1.172-1.127l0.331-1.88c0.065-0.362-0.017-0.729-0.228-1.029c-0.129-0.185-0.297-0.331-0.491-0.432   c0.194-0.635,0.422-1.261,0.682-1.87c0.097,0.021,0.194,0.033,0.295,0.033c0.492,0,0.949-0.263,1.194-0.689L222.458,232.232z    M237.531,262.264h0.674c0.712,0,1.301-0.546,1.372-1.24c0.686-0.082,1.37-0.202,2.041-0.357c0.229,0.47,0.708,0.777,1.237,0.777   c0.161,0,0.32-0.027,0.471-0.084l0.635-0.229l0.813,2.238c-2.272,0.798-4.709,1.245-7.243,1.274V262.264z M236.296,261.703   c-0.45,0-0.818-0.368-0.818-0.818s0.368-0.818,0.818-0.818h1.91c0.451,0,0.817,0.368,0.817,0.818s-0.366,0.818-0.817,0.818H236.296   z M244.032,260.508l-0.897,0.324c-0.091,0.034-0.185,0.051-0.28,0.051c-0.342,0-0.65-0.217-0.768-0.538   c-0.075-0.205-0.065-0.428,0.028-0.626c0.091-0.198,0.256-0.348,0.461-0.423l1.792-0.653c0.092-0.032,0.185-0.049,0.28-0.049   c0.344,0,0.652,0.217,0.77,0.538c0.153,0.425-0.065,0.896-0.49,1.049L244.032,260.508z M224.359,257.675l0.516,0.431   c0.249,0.21,0.563,0.324,0.886,0.324c0.362,0,0.707-0.143,0.962-0.391c0.576,0.375,1.175,0.723,1.792,1.037   c-0.172,0.676,0.196,1.388,0.865,1.631l0.633,0.23l-0.814,2.238c-2.327-0.884-4.472-2.136-6.363-3.687L224.359,257.675z    M223.673,255.298c0.155-0.185,0.385-0.292,0.628-0.292c0.19,0,0.377,0.067,0.525,0.19l1.461,1.228   c0.168,0.14,0.271,0.338,0.29,0.555c0.019,0.217-0.048,0.43-0.188,0.598c-0.155,0.185-0.385,0.292-0.628,0.292   c-0.19,0-0.377-0.067-0.525-0.191l-0.731-0.614l-0.73-0.613C223.428,256.161,223.384,255.643,223.673,255.298z M229.573,260.181   c-0.424-0.155-0.645-0.624-0.49-1.049c0.118-0.321,0.426-0.538,0.768-0.538c0.096,0,0.191,0.017,0.28,0.049l1.794,0.653   c0.205,0.075,0.37,0.225,0.461,0.423c0.091,0.198,0.103,0.421,0.028,0.626c-0.118,0.321-0.426,0.538-0.77,0.538   c-0.095,0-0.188-0.017-0.28-0.051L229.573,260.181z M221.674,252.915c-0.125,0.071-0.265,0.108-0.409,0.108   c-0.292,0-0.563-0.155-0.708-0.409l-0.479-0.826l-0.477-0.826c-0.226-0.391-0.092-0.891,0.299-1.117   c0.125-0.073,0.266-0.11,0.407-0.11c0.293,0,0.564,0.157,0.71,0.409l0.955,1.654C222.197,252.188,222.064,252.689,221.674,252.915z    M218.22,243.429c0.048-0.007,0.095-0.013,0.144-0.013c0.396,0,0.736,0.284,0.804,0.677l0.333,1.88   c0.079,0.445-0.22,0.871-0.664,0.947c-0.048,0.009-0.095,0.013-0.144,0.013c-0.396,0-0.736-0.284-0.806-0.677l-0.164-0.94   l-0.167-0.94C217.478,243.934,217.778,243.508,218.22,243.429z M217.557,239.371l0.333-1.88c0.069-0.393,0.408-0.677,0.804-0.677   c0.048,0,0.095,0.004,0.144,0.013c0.215,0.038,0.402,0.157,0.527,0.336c0.125,0.179,0.174,0.396,0.136,0.611l-0.331,1.88   c-0.069,0.393-0.408,0.677-0.806,0.677c-0.046,0-0.095-0.004-0.144-0.013c-0.215-0.038-0.402-0.157-0.527-0.336   C217.568,239.804,217.519,239.586,217.557,239.371z M219.601,232.785l0.955-1.652c0.146-0.252,0.417-0.409,0.708-0.409   c0.144,0,0.284,0.037,0.409,0.11c0.391,0.225,0.525,0.725,0.299,1.118l-0.955,1.652c-0.146,0.252-0.417,0.409-0.708,0.409   c-0.144,0-0.284-0.037-0.409-0.11C219.51,233.678,219.375,233.176,219.601,232.785z M217.394,230.734l2.06,1.188l-0.338,0.583   c-0.355,0.619-0.18,1.398,0.387,1.807c-0.271,0.633-0.508,1.286-0.71,1.945c-0.032-0.002-0.065-0.004-0.099-0.004   c-0.669,0-1.239,0.48-1.357,1.14l-0.116,0.663l-2.347-0.413C215.339,235.177,216.202,232.853,217.394,230.734z M214.873,246.104   l2.345-0.413l0.118,0.663c0.116,0.662,0.688,1.14,1.357,1.14c0.034,0,0.067-0.002,0.099-0.004c0.202,0.66,0.439,1.312,0.708,1.945   c-0.564,0.41-0.742,1.19-0.385,1.807l0.336,0.583l-2.058,1.188C216.202,250.897,215.339,248.571,214.873,246.104z M293.411,256.905   c-0.093-0.004-0.187-0.008-0.28-0.008h-16.07c-2.732,0-4.952,2.223-4.952,4.952v7.102c0,2.73,2.22,4.952,4.952,4.952h16.07   c0.094,0,0.188-0.004,0.28-0.01v9.366c0,1.764-0.479,3.418-1.31,4.842l-2.698-2.7c0.373-0.46,0.598-1.047,0.598-1.684   c0-1.48-1.203-2.682-2.682-2.682c-1.479,0-2.682,1.201-2.682,2.682c0,1.478,1.202,2.682,2.682,2.682   c0.639,0,1.226-0.227,1.688-0.601l2.79,2.79c-1.729,2.596-4.682,4.312-8.026,4.312h-19.955v-3.819h8.001   c0.141,1.347,1.284,2.402,2.669,2.402c1.478,0,2.682-1.203,2.682-2.681c0-1.48-1.204-2.682-2.682-2.682   c-1.385,0-2.526,1.052-2.667,2.399h-8.283c-0.155,0-0.281,0.125-0.281,0.28v4.1h-3.359v-10.046l6.143-6.135   c0.475,0.418,1.093,0.674,1.771,0.674c1.478,0,2.682-1.203,2.682-2.684c0-1.478-1.204-2.682-2.682-2.682   c-1.479,0-2.682,1.204-2.682,2.682c0,0.601,0.2,1.149,0.53,1.597l-6.241,6.233c-0.053,0.053-0.082,0.123-0.082,0.198V292.9h-4.5   v-3.833c1.347-0.142,2.401-1.283,2.401-2.668c0-1.479-1.204-2.682-2.684-2.682c-1.478,0-2.682,1.203-2.682,2.682   c0,1.385,1.056,2.528,2.403,2.668v3.833h-4.86v-16.867c0-0.074-0.03-0.146-0.083-0.198l-5.042-5.041   c0.34-0.451,0.545-1.01,0.545-1.617c0-1.479-1.204-2.681-2.682-2.681s-2.682,1.201-2.682,2.681c0,1.479,1.204,2.682,2.682,2.682   c0.671,0,1.282-0.248,1.753-0.655l4.946,4.946V292.9h-3.205v-9.714c0-0.154-0.125-0.28-0.28-0.28h-9.732   c-0.007,0-0.015,0.002-0.024,0.002c-0.142-1.346-1.284-2.399-2.667-2.399c-1.478,0-2.682,1.203-2.682,2.682   c0,1.48,1.204,2.682,2.682,2.682c1.387,0,2.53-1.058,2.668-2.407c0.008,0,0.015,0.002,0.022,0.002h9.452v9.434h-18.465   c-5.316,0-9.641-4.326-9.641-9.641v-5.533h5.509c0.075,0,0.146-0.03,0.198-0.082l5.042-5.042c0.45,0.342,1.009,0.546,1.616,0.546   c1.478,0,2.682-1.202,2.682-2.682c0-1.479-1.204-2.682-2.682-2.682s-2.682,1.203-2.682,2.682c0,0.671,0.249,1.281,0.656,1.753   l-4.946,4.946h-5.393v-23.744c0.013,0.024,0.026,0.048,0.041,0.073c0.006,0.015,0.011,0.032,0.021,0.047   c0.008,0.013,0.019,0.024,0.028,0.035c1.351,2.321,3.091,4.388,5.129,6.112c0.015,0.022,0.03,0.043,0.051,0.06   c0.019,0.016,0.039,0.025,0.06,0.034c4.049,3.384,9.257,5.423,14.937,5.425c0,0,0.002,0,0.004,0c0,0,0.002,0,0.003,0   c5.677-0.002,10.887-2.041,14.937-5.425c0.021-0.012,0.04-0.019,0.058-0.034c0.021-0.017,0.038-0.037,0.052-0.06   c0.182-0.153,0.361-0.31,0.538-0.469h4.234v9.452c0,0.007,0.002,0.015,0.002,0.022c-1.351,0.138-2.407,1.281-2.407,2.668   c0,1.479,1.202,2.682,2.682,2.682c1.478,0,2.681-1.203,2.681-2.682c0-1.385-1.054-2.526-2.399-2.666   c0-0.01,0.002-0.018,0.002-0.024v-9.732c0-0.155-0.125-0.28-0.28-0.28h-3.913c1.551-1.499,2.896-3.208,3.99-5.083   c0.009-0.011,0.019-0.022,0.026-0.035c0.009-0.015,0.015-0.03,0.021-0.045c1.602-2.775,2.647-5.911,2.985-9.25h4.606v8.001   c-1.347,0.14-2.402,1.284-2.402,2.668c0,1.479,1.203,2.682,2.682,2.682c1.478,0,2.681-1.203,2.681-2.682   c0-1.383-1.052-2.524-2.399-2.667v-8.284c0-0.155-0.125-0.281-0.28-0.281h-4.836c0.045-0.598,0.069-1.201,0.069-1.811   c0-0.521-0.019-1.037-0.053-1.549h10.766l6.134,6.143c-0.417,0.473-0.673,1.093-0.673,1.771c0,1.478,1.203,2.682,2.682,2.682   c1.478,0,2.682-1.204,2.682-2.682s-1.204-2.682-2.682-2.682c-0.599,0-1.147,0.2-1.595,0.531l-6.233-6.241   c-0.053-0.053-0.124-0.083-0.198-0.083h-10.925c-0.058-0.63-0.138-1.252-0.244-1.865h23.526c5.314,0,9.641,4.324,9.641,9.641   V256.905z M283.134,265.4c0,1.804-1.467,3.271-3.271,3.271s-3.271-1.467-3.271-3.271c0-1.803,1.467-3.271,3.271-3.271   S283.134,263.597,283.134,265.4z"/></g></svg>