<svg xmlns="http://www.w3.org/2000/svg" data-name="Layer 2" viewBox="0 0 100 125" x="0px" y="0px"><title>blockchain_2_exp</title><path d="M86.24561,28.89561c.00018-.00775.00439-.01416.00439-.02191v-4.248a5.00011,5.00011,0,0,0-5.86621-4.92431l-44.0332,8.25439c-.01081.002-.01868.00946-.02936.01184A5.00312,5.00312,0,0,0,32.25,32.8737v7.5a1,1,0,0,0,2,0v-7.5a3.00328,3.00328,0,0,1,3-3h46a3.00328,3.00328,0,0,1,3,3v8.47516a14.088,14.088,0,0,1-8,2.52484h-6a1,1,0,0,0-1,1v12a1.00005,1.00005,0,0,0,1,1h6a16.10083,16.10083,0,0,0,8-2.16089V65.8737a3.00328,3.00328,0,0,1-3,3H50.00732a1,1,0,0,0,0,2H83.25a5.00589,5.00589,0,0,0,5-5v-33A4.97905,4.97905,0,0,0,86.24561,28.89561ZM47.64288,27.8737l33.0954-6.2041A2.99941,2.99941,0,0,1,84.25,24.62565v3.34912a5,5,0,0,0-1-.10107Zm30.60712,28h-5v-10h5a16.11388,16.11388,0,0,0,8-2.146v9.63477A14.096,14.096,0,0,1,78.25,55.8737Zm-1-7v4a1,1,0,0,1-2,0v-4a1,1,0,0,1,2,0ZM35.37866,62.1074a2.4498,2.4498,0,0,0,.17114-.886V57.76628a2.47522,2.47522,0,0,0-2.47216-2.47266H32.3501V53.73356a1,1,0,1,0-2,0v1.56006H29.1499V53.73356a1,1,0,0,0-2,0v1.56006H24.31006a1,1,0,0,0,0,2H25.23V68.09391h-.91992a1,1,0,1,0,0,2H27.1499v1.55957a1,1,0,0,0,2,0V70.09391h1.2002v1.55957a1,1,0,1,0,2,0V70.09391h1.0708a3.413,3.413,0,0,0,3.40918-3.40918V64.62126A2.91856,2.91856,0,0,0,35.37866,62.1074ZM33.5498,57.76628v3.45507a.47283.47283,0,0,1-.47216.47217H27.23v-4.3999h5.84766A.47293.47293,0,0,1,33.5498,57.76628Zm1.28028,8.91845a1.411,1.411,0,0,1-1.40918,1.40918H27.23V63.69352h6.67285a.92848.92848,0,0,1,.92725.92774ZM29.75,44.3737a18,18,0,1,0,18,18A18.02031,18.02031,0,0,0,29.75,44.3737Zm0,34a16,16,0,1,1,16-16A16.01833,16.01833,0,0,1,29.75,78.3737Zm0-30.12012A14.12012,14.12012,0,1,0,43.87012,62.3737,14.13639,14.13639,0,0,0,29.75,48.25358Zm0,26.24024A12.12012,12.12012,0,1,1,41.87012,62.3737,12.13378,12.13378,0,0,1,29.75,74.49382Z"/></svg>